<?xml version="1.0" standalone="no"?>
<!DOCTYPE svg PUBLIC "-//W3C//DTD SVG 1.1//EN" "http://www.w3.org/Graphics/SVG/1.1/DTD/svg11.dtd" >
<svg xmlns="http://www.w3.org/2000/svg">
<metadata></metadata>
<defs>
<font id="amienneregular" horiz-adv-x="681" >
<font-face units-per-em="2048" ascent="1491" descent="-557" />
<missing-glyph horiz-adv-x="407" />
<glyph unicode="&#x28;C&#x29;" horiz-adv-x="1333" d="M96 365q0 100 29 199.5t81 190.5t123.5 170t156.5 136t179.5 90t194.5 33q25 0 54.5 -4t41.5 -11q-160 -14 -290.5 -79.5t-229.5 -169.5q-49 -53 -93 -119t-77 -139.5t-51 -150.5t-18 -153q0 -66 19.5 -124t56 -102t90 -69.5t122.5 -25.5q131 0 263.5 47t239 132t172 203 t65.5 261q0 74 -28 141.5t-77 119.5t-118.5 83t-151.5 31q-59 0 -113.5 -12.5t-87.5 -26.5q2 14 25.5 28.5t56.5 26.5t65.5 20.5t53.5 8.5q102 0 190 -30t152.5 -85t100.5 -133t36 -172q0 -170 -73.5 -300t-189.5 -218t-258 -134t-278 -46q-92 0 -171.5 24.5t-138 72.5 t-91.5 119.5t-33 166.5zM504 479q0 39 15.5 83t45 82t74.5 63.5t104 25.5q18 0 37 -2t35 -10t26.5 -23.5t10.5 -40.5q0 -18 -2 -22q-12 35 -43 49t-64 14q-25 0 -49 -12t-43.5 -34.5t-33 -57.5t-13.5 -80q0 -27 11.5 -46t27.5 -31.5t33.5 -17.5t32.5 -5q27 0 57 3.5t53 26.5 q-8 -27 -30.5 -44t-50 -28.5t-56.5 -15.5t-51 -4q-47 0 -87 28t-40 99z" />
<glyph unicode="&#x28;R&#x29;" horiz-adv-x="1335" d="M96 365q0 98 29 197.5t80 190.5t122.5 169.5t156.5 137t180.5 91.5t195.5 33q25 0 54.5 -4t41.5 -11q-180 -16 -322 -95t-245 -208q-41 -49 -75.5 -110.5t-60.5 -127t-41 -134t-15 -136.5q0 -66 19.5 -124t56 -102t90 -69.5t122.5 -25.5q133 0 265.5 46t238 131t171 203 t65.5 263q0 74 -28 141.5t-77 119.5t-118.5 83t-151.5 31q-59 0 -113.5 -12.5t-87.5 -26.5q2 14 25.5 28.5t56.5 26.5t65.5 20.5t53.5 8.5q102 0 190 -30t152.5 -85t100.5 -133t36 -172q0 -172 -74.5 -302t-191.5 -218t-258 -133t-275 -45q-92 0 -171.5 24.5t-138 72.5 t-91.5 119.5t-33 166.5zM434 768q29 12 61.5 30.5t69.5 36t75 31t75 13.5q45 0 86 -14.5t71.5 -38t49 -56.5t18.5 -70q0 -39 -20.5 -64.5t-54.5 -43t-79 -29.5t-96 -20q6 -23 43 -62t83 -76.5t91 -67.5t68 -34q-25 -12 -51 -12q-41 0 -85 19.5t-86 51t-78 70.5t-61 80 q-14 -16 -27.5 -38.5t-24.5 -47.5t-19 -49.5t-11 -42.5q-31 8 -30 53q0 37 20.5 89t48 108.5t54 113t41.5 103.5q14 -29 14 -58q0 -39 -10.5 -72.5t-22.5 -62.5q98 0 159.5 36t61.5 79q0 53 -37.5 82t-78.5 29q-57 0 -105.5 -19.5t-103.5 -60.5q-23 -16 -38.5 -23.5 t-19.5 -7.5q-12 0 -26.5 11t-24.5 34z" />
<glyph unicode="oe" horiz-adv-x="1275" d="M51 223q0 61 32 153.5t86 177.5t126 145.5t154 60.5q111 0 188.5 -62.5t105.5 -160.5q53 76 118 137t132 78q39 0 79 -8.5t74 -27t58.5 -47t34.5 -69.5q-14 -49 -52 -104.5t-90.5 -102.5t-113.5 -77.5t-123 -30.5q-35 0 -63.5 11t-38.5 28q-4 -4 -12.5 -20.5t-16.5 -40 t-14 -51.5t-6 -54q0 -63 43 -89t96 -26q47 0 115.5 27.5t140.5 76t134 115t97 144.5q-16 -102 -71.5 -182.5t-127 -135.5t-149.5 -84t-135 -29q-109 0 -160 49t-67 119q-59 -70 -145.5 -120t-178.5 -50q-123 0 -186.5 70t-63.5 180zM131 182q0 -51 24.5 -87t92.5 -36 q80 0 153.5 38t129 99.5t89 136.5t33.5 148q0 37 -8 72t-25.5 60.5t-46 42t-69.5 16.5t-85 -25.5t-85 -66.5t-78 -94.5t-64.5 -107.5t-44 -105.5t-16.5 -90.5zM776 371q4 -10 24.5 -16.5t30.5 -6.5q20 0 70.5 18.5t104 51.5t94.5 80t41 102q0 27 -23.5 53.5t-46.5 28.5 q-39 -2 -86 -40t-90 -88t-76 -102.5t-43 -80.5z" />
<glyph unicode="As" horiz-adv-x="788" d="M0 0v788h788v-788h-788z" />
<glyph unicode="&#xfb01;" horiz-adv-x="780" d="M-2 573q0 31 20 48q12 -35 59.5 -43.5t96.5 -8.5q8 53 23.5 139.5t41 182.5t61.5 193.5t83 175t108.5 127t137.5 49.5q88 0 137 -52.5t49 -156.5q0 -102 -39 -194.5t-106.5 -169.5t-159.5 -137t-199 -99l-8 -60q111 10 235 39t228 86q-37 -70 -64.5 -159t-47 -171.5 t-30 -149.5t-10.5 -93q0 -35 5.5 -57.5t17.5 -22.5q27 0 53.5 22.5t50 54t42 67.5t30.5 65q4 -12 4 -29q0 -31 -14.5 -68.5t-40 -72.5t-60 -63.5t-75.5 -43.5q-35 0 -61.5 17.5t-44 47.5t-26 68.5t-8.5 81.5q0 74 9.5 128.5t27 100.5t40 85t50.5 82q-86 -23 -159.5 -35 t-151.5 -23q-6 -27 -12 -87t-13.5 -139t-14.5 -168t-15 -175t-15.5 -160t-13.5 -121q-6 -41 -33.5 -109.5t-83.5 -137.5q-4 18 -4 37.5v41.5q0 117 7.5 274t18.5 308.5t22.5 271t19.5 162.5q-53 2 -86 6t-51.5 10.5t-24.5 15.5t-6 19zM315 655q84 35 162 88.5t138.5 123 t97.5 157.5t37 195q0 27 -4.5 55.5t-14.5 52t-28.5 37.5t-49.5 14q-61 0 -107 -40t-80 -104.5t-58.5 -145t-41 -160.5t-29 -153t-22.5 -120z" />
<glyph unicode="&#xfb02;" horiz-adv-x="737" d="M-2 573q0 31 20 48q12 -35 59.5 -43.5t96.5 -8.5q4 55 18.5 141.5t37 182.5t55 192.5t73.5 174t92.5 127t112.5 49.5q76 0 124 -48.5t48 -146.5q0 -102 -28.5 -196.5t-83 -174t-133 -142t-179.5 -101.5l-8 -60q78 0 159 34t148 83q31 117 67 231.5t69.5 223t61.5 210 t42 191.5q37 -80 37 -174q0 -29 -4 -58.5t-9 -60.5q-6 -27 -20 -84t-34.5 -132t-43 -160t-43 -166.5t-38 -154.5t-23.5 -122q-6 -27 -13.5 -71t-13.5 -94t-10 -99t-4 -86q0 -70 18 -70q14 0 31.5 12.5t35 31t32 36.5t24.5 31q-8 -70 -50 -112t-91 -42q-68 0 -93.5 40 t-25.5 118q0 39 5 98.5t16.5 128t26.5 142t36 143.5q-63 -57 -140 -84t-153 -27q-6 -27 -12 -87t-13.5 -139t-14.5 -168t-15 -175t-15.5 -160t-13.5 -121q-6 -41 -33.5 -109.5t-83.5 -137.5q-4 18 -4 37.5v41.5q0 117 7.5 274t18.5 308.5t22.5 271t19.5 162.5q-53 2 -86 6 t-51.5 10.5t-24.5 15.5t-6 19zM315 655q78 33 143.5 88.5t112.5 127t74 160.5t27 194q0 27 -4 53.5t-13.5 49t-25 36.5t-39.5 14q-55 0 -96 -53t-73 -148.5t-57.5 -228.5t-48.5 -293z" />
<glyph unicode="&#xfb03;" horiz-adv-x="1308" d="M14 612q0 31 21 50q12 -35 59 -43.5t99 -8.5q4 53 14 133t28.5 170.5t46 181.5t68.5 163.5t96.5 117.5t126.5 45q88 0 142.5 -51t54.5 -158q0 -213 -117.5 -353t-328.5 -224l-5 -27q20 -6 120 -11t231 -11q8 55 24.5 140t43 180t63.5 191.5t85 173.5t108.5 125t131.5 48 q90 0 138.5 -53.5t48.5 -157.5q0 -205 -121 -328t-344 -143q84 33 156.5 69.5t127 90t85 126t30.5 177.5q0 27 -3 56.5t-14 52t-29.5 37.5t-49.5 15q-59 0 -105.5 -39.5t-81 -105t-59 -149.5t-43 -173.5t-33 -176.5t-28.5 -156q55 4 117.5 12t125 20.5t120 31t104.5 42.5 q-37 -70 -65.5 -159t-47 -171.5t-29 -149.5t-10.5 -93q0 -35 6 -57.5t19 -22.5q27 0 52.5 22.5t49 54t43 67.5t31.5 65q0 -6 1 -13.5t1 -15.5q0 -31 -14.5 -68.5t-39 -72.5t-59.5 -63.5t-76 -43.5q-35 0 -61.5 17.5t-43.5 47.5t-25.5 68.5t-8.5 81.5q0 74 9.5 128.5 t25.5 100.5t38.5 85t51.5 82q-72 -18 -157 -28.5t-162 -12.5q-2 -18 -6.5 -74.5t-7.5 -133.5t-7 -166t-9 -175t-11 -161t-13 -124q-4 -20 -14 -52t-27.5 -69t-43 -74.5t-58.5 -68.5q-4 10 -4 20.5v22.5q0 106 6 257t15.5 304.5t21.5 288.5t25 211q-113 6 -205 9t-140 7 q-4 -27 -11 -89t-16 -145t-19.5 -179.5t-20.5 -188.5t-21.5 -172t-19.5 -133q-8 -41 -30.5 -110.5t-78.5 -137.5q-4 8 -4 19.5v23.5q0 70 5.5 170t12.5 214t16 230.5t18.5 217t17.5 174t14 104.5q-53 2 -86 6t-51 10.5t-24.5 15.5t-6.5 19zM326 666q84 35 153.5 83 t120.5 112.5t79 149.5t28 193q0 27 -6.5 55.5t-19.5 51t-33.5 37t-49.5 14.5q-61 0 -102 -38t-69 -99.5t-43 -138t-25.5 -154.5t-17.5 -148.5t-15 -117.5z" />
<glyph unicode="&#xfb04;" horiz-adv-x="1306" d="M14 612q0 31 21 50q12 -35 59 -43.5t99 -8.5q4 53 14 134t28.5 171.5t46 180.5t68.5 162.5t96.5 117.5t126.5 45q88 0 142.5 -51t54.5 -158q0 -211 -117.5 -352t-328.5 -225l-5 -27q20 -6 120 -11t231 -11q8 55 24.5 140t43 180t63.5 191.5t85 173.5t108.5 125t131.5 48 q90 0 138.5 -53.5t48.5 -157.5q0 -203 -122 -327t-343 -144q84 33 156.5 70.5t127 90t85 125t30.5 177.5q0 27 -3 56.5t-14 52t-29.5 37.5t-49.5 15q-70 0 -123 -59t-92 -148t-64.5 -193.5t-41 -194t-21.5 -149.5l-6 -60q96 -4 185 -5.5t155 -3.5q29 113 75 243l92 260 t83 254t49 226q16 -41 19 -90t3 -96q0 -41 -7 -84t-22.5 -101.5t-39 -139t-54.5 -195.5q-33 -121 -59.5 -223.5t-44.5 -195.5t-27.5 -180t-9.5 -173q0 -70 19 -70q14 0 32.5 12.5t36 31t31.5 36.5t22 31q-10 -70 -52 -112t-89 -42q-70 0 -94.5 40t-24.5 118 q0 106 15.5 211.5t42.5 216.5q-70 -6 -158 -7t-182 -1q-6 -25 -10.5 -83.5t-8.5 -135t-8 -164.5t-8 -173t-9 -159t-12 -121q-4 -20 -14 -52t-27.5 -69t-43 -73.5t-58.5 -69.5q-4 16 -4 35.5v42.5q0 74 3 165t8 189t12.5 197.5t14.5 188.5t14 163t16 123q-113 6 -205 9 t-140 7q-4 -27 -11 -89t-16 -145t-19.5 -179.5t-20.5 -187.5t-21.5 -172t-19.5 -134q-8 -41 -30.5 -110.5t-78.5 -137.5q-4 16 -4 35.5v42.5q0 74 5.5 174t12.5 211t16 222.5t18.5 205.5t17.5 163.5t14 98.5q-53 2 -86 6t-51 10.5t-24.5 15.5t-6.5 19zM326 666 q84 35 153.5 83t120.5 113.5t79 149.5t28 192q0 27 -6.5 55.5t-19.5 51t-33.5 37t-49.5 14.5q-61 0 -102 -38t-68 -100.5t-42 -139t-24.5 -153.5t-17.5 -147.5t-18 -117.5z" />
<glyph horiz-adv-x="2048" />
<glyph horiz-adv-x="2048" />
<glyph unicode="&#xd;" horiz-adv-x="1165" />
<glyph horiz-adv-x="407" />
<glyph unicode=" "  horiz-adv-x="407" />
<glyph unicode="&#x09;" horiz-adv-x="407" />
<glyph unicode="&#xa0;" horiz-adv-x="407" />
<glyph unicode="!" horiz-adv-x="301" d="M51 25q0 41 10.5 79.5t22.5 72.5t24.5 60.5t16.5 43.5q45 0 67.5 -31t22.5 -64q0 -35 -13.5 -68.5t-31.5 -66.5t-37 -66.5t-29 -68.5q-53 25 -53 109zM96 604q0 23 2 47.5t6 46.5q10 51 40 113.5t64 129.5t63.5 132.5t39.5 120.5q35 -27 44.5 -52.5t9.5 -54.5v-30 q-2 -18 -22.5 -66.5t-45.5 -105t-48.5 -112.5t-29.5 -91q-4 -16 -6 -48t-2 -61q0 -37 4 -61.5t27 -24.5q33 0 69.5 20.5t50.5 33.5q-4 -35 -43.5 -53.5t-89.5 -18.5q-80 0 -106.5 41t-26.5 94z" />
<glyph unicode="&#x22;" horiz-adv-x="462" d="M178 938q0 61 12.5 123.5t29 118t31.5 99.5t19 69q41 0 66.5 -26t25.5 -69q0 -49 -17 -105t-39.5 -112.5t-47.5 -113t-37 -107.5q-43 27 -43 123zM365 911q0 66 16 132.5t36.5 125t40 105.5t23.5 74q37 0 60.5 -25t23.5 -66q0 -20 -2 -28q-12 -49 -32.5 -100.5 t-44 -103.5t-46.5 -104.5t-37 -105.5q-39 25 -38 96z" />
<glyph unicode="#" horiz-adv-x="737" d="M63 547q31 -6 79 -10.5t114 -4.5l35 111q-53 4 -79 11.5t-38 19.5t-16 29.5t-11 41.5q23 -6 67 -8t110 -2q20 39 41.5 87t41 96.5t35 92.5t21.5 74q18 -35 18 -69q0 -51 -21.5 -120t-60.5 -161q23 0 49.5 1t67.5 5q20 43 51 100.5t58.5 116t49 110.5t25.5 87l2 14 q18 0 26.5 -21.5t8.5 -43.5q0 -41 -19.5 -98.5t-43 -110.5t-44 -96t-22.5 -58q57 0 111.5 3.5t103.5 13.5q-41 -57 -100 -75.5t-148 -18.5q-14 -27 -25 -55.5t-22 -63.5q35 0 195 -13l-58.5 -18t-38 -11t-47 -10.5t-83.5 -15.5q-29 -78 -51.5 -138t-40 -109.5t-26.5 -89.5 t-9 -77q0 -14 1 -24t3 -23q-29 6 -41.5 33t-12.5 66q0 23 2.5 46t10.5 60t26.5 92.5t49.5 139.5q-33 -2 -56.5 -2h-44.5q-57 -168 -83.5 -270.5t-26.5 -151.5q0 -23 14 -23h2q2 0 3 1t3 1q-6 -29 -26 -28q-49 0 -50 114q0 57 7.5 102.5t19.5 86.5t27.5 80.5t31.5 87.5 q-53 0 -84.5 6t-49 17t-23.5 29.5t-9 43.5zM340 539q33 4 54.5 5t41.5 1q10 29 22.5 55.5t22.5 52.5q-35 -6 -60.5 -10t-47.5 -4z" />
<glyph unicode="$" horiz-adv-x="540" d="M45 326q0 31 37 39q-8 -4 -8 -21q0 -6 8 -11t33 -5q29 0 60.5 5t72.5 13l26 125q-55 39 -97 85t-42 101q0 31 18.5 63t49 59.5t73.5 49t93 31.5q18 72 35.5 137.5t17.5 122.5q0 33 -16 54q45 0 45 -97q0 -33 -6.5 -82t-16.5 -110v-19q72 -6 103.5 -25.5t31.5 -33.5 q-12 6 -41 6q-23 0 -51.5 -4t-56.5 -10q-14 -80 -31.5 -157t-38.5 -155q49 -33 103.5 -61.5t95.5 -56.5q-41 -23 -106.5 -44.5t-135.5 -35.5l-12 -66q-12 -66 -17.5 -135.5t-5.5 -112.5v-28q-47 6 -47 131q0 35 4 86t17 117q-35 -6 -59.5 -8.5t-43.5 -2.5q-41 0 -66.5 16.5 t-25.5 39.5zM211 631q0 -27 16.5 -50.5t57.5 -52.5l59 244q-59 -29 -96 -63.5t-37 -77.5zM317 365q58 12 97 30q-16 10 -37 18.5t-43 22.5q-6 -16 -9 -35.5t-8 -35.5z" />
<glyph unicode="%" horiz-adv-x="839" d="M27 -10q2 29 33.5 86t84 132t120 164t139 180t142 181t132.5 168q49 63 84 109.5t59.5 83t42 67.5t31.5 66q23 -6 23 -41q0 -2 -2.5 -8.5t-2.5 -10.5q-12 -92 -81.5 -205.5t-167 -238.5t-205 -255t-193.5 -255q-16 -23 -41.5 -57.5t-49 -71.5t-41 -72t-17.5 -59 q0 -31 43 -33q-35 -35 -88 -35q-16 0 -30.5 19.5t-14.5 60.5v25zM139 700q0 12 1 23.5t3 21.5q4 27 21.5 69t45.5 88t63.5 94t76.5 86t84 61.5t88 23.5q0 -18 7.5 -28.5t16.5 -20.5t16 -28.5t7 -55.5q0 -12 -1 -22.5t-3 -20.5q-6 -41 -38.5 -106.5t-78 -128t-99.5 -107.5 t-103 -45q-59 0 -83 24.5t-24 71.5zM193 678q0 -10 4 -14q63 10 120.5 61t101.5 113.5t69.5 124t25.5 92.5q0 33 -16 32q-16 0 -66.5 -35.5t-104 -94t-94 -131t-40.5 -148.5zM391 29q0 18 11.5 59t31 92t49 106.5t67.5 100.5t82 75t95 30q0 -16 10.5 -25.5t23.5 -24 t23.5 -37t10.5 -61.5q0 -18 -9.5 -57t-27 -87t-42 -99.5t-55 -93.5t-68.5 -68.5t-79 -26.5q-123 0 -123 117zM453 -10q0 -13 10 -19q51 6 99 52.5t86 106.5t61.5 121.5t23.5 102.5q0 53 -24 54q-20 0 -62.5 -37t-85.5 -95.5t-75.5 -134t-32.5 -151.5z" />
<glyph unicode="&#x26;" horiz-adv-x="790" d="M8 102q0 94 49 187.5t138 171.5q-23 51 -23 151q0 133 37 236.5t97.5 175.5t135 108.5t148.5 36.5q88 0 88 -102q0 -90 -38 -177t-96.5 -169t-128 -157t-130.5 -136q4 -18 19 -52t36.5 -72t45.5 -72.5t42 -53.5q27 20 64.5 58t72.5 78t59.5 74t24.5 44q0 8 -2 14.5 t-4 12.5q10 12 24.5 16t24.5 4q23 0 37 -9t14 -34q0 -37 -29.5 -81t-69.5 -87t-82 -78.5t-68 -54.5q70 -68 145.5 -118t130.5 -50q47 0 59 49q16 -6 26.5 -19t10.5 -40q0 -41 -37.5 -78t-101.5 -37q-49 0 -98 22.5t-94.5 56.5t-83 72.5t-64.5 69.5q-43 -29 -101.5 -55 t-150.5 -26q-127 0 -127 120zM80 98q0 -29 15.5 -45t56.5 -16q47 0 103 23.5t91 58.5q-8 12 -27.5 44t-40 68.5t-38 73.5t-21.5 60q-16 -12 -40.5 -38t-46 -61t-37 -77t-15.5 -91zM250 604q0 -49 10 -76q45 45 108.5 118t122 154t99.5 157.5t41 129.5q0 47 -47 48 q-47 0 -101.5 -34t-101.5 -89q-41 -47 -65.5 -102.5t-40 -111t-20.5 -105.5t-5 -89z" />
<glyph unicode="'" horiz-adv-x="266" d="M178 938q0 59 12.5 120.5t29 117t30.5 100.5t20 72q41 0 66.5 -26t25.5 -69q0 -49 -17 -104t-39.5 -111.5t-47.5 -114t-37 -108.5q-43 27 -43 123z" />
<glyph unicode="(" horiz-adv-x="647" d="M147 406q0 106 24 245.5t87.5 277.5t175 258t285.5 185q-111 -70 -202 -172t-155.5 -226t-99.5 -262.5t-35 -279.5q0 -109 20.5 -213t58.5 -192t92 -155.5t122 -100.5q-102 6 -173 63t-116 146.5t-64.5 200t-19.5 225.5z" />
<glyph unicode=")" horiz-adv-x="655" d="M53 -215q104 68 192.5 166t152 218t99 255t35.5 276q0 106 -19 208t-55 189t-89.5 153.5t-120.5 101.5q98 -6 167.5 -62.5t112.5 -143.5t63.5 -195.5t20.5 -219.5q0 -70 -10 -156t-34.5 -176t-65.5 -181t-102.5 -173t-147.5 -149.5t-199 -110.5z" />
<glyph unicode="*" horiz-adv-x="712" d="M135 532q39 31 65.5 61t50 60.5t51.5 61t69 63.5q-41 53 -66.5 88t-44 55.5t-34 28.5t-33.5 8q6 16 22 20.5t33 4.5q47 0 93 -28.5t81 -88.5q47 162 78.5 242t72.5 80q-12 -47 -21 -98.5t-18.5 -97.5t-17.5 -85t-14 -59q49 49 120.5 86t149.5 37q-70 -33 -107.5 -55.5 t-62 -43t-47.5 -41t-61 -47.5q66 -70 104.5 -129t38.5 -100q-37 4 -60.5 14.5t-42 26.5t-37.5 40.5t-46 59.5q-27 -78 -49.5 -136t-63.5 -128q-2 16 -2 31.5v28.5q0 31 1 49t4 36.5t8 45t16 77.5q-25 -31 -55.5 -60.5t-62.5 -53t-61.5 -39t-50.5 -15.5z" />
<glyph unicode="+" horiz-adv-x="980" d="M133 616q33 -16 104.5 -23t149.5 -7q33 0 62.5 1t56.5 3q12 45 25.5 101.5t23.5 113.5t17.5 109.5t7.5 89.5q0 43 -13 53q18 6 29 6q27 0 35 -35t8 -88q0 -35 -3 -79t-9 -90t-14.5 -92t-16.5 -85q37 -2 69.5 -2h61.5q78 0 129 4t111 20q-45 -31 -90.5 -50t-92.5 -28.5 t-97 -13.5t-105 -4q-16 -51 -33 -135t-33 -170q-4 -43 -13 -67.5t-19.5 -36t-21.5 -13.5t-20 -2q-35 0 -56 39t-21 84q0 23 4 29l23 -57.5t24 -22.5q4 0 12 27.5t18.5 77t22 113.5t23.5 138q-16 0 -48 -2t-73 -2q-37 0 -77 4t-74 15.5t-57.5 30t-29.5 46.5z" />
<glyph unicode="," horiz-adv-x="266" d="M-53 -201q12 18 33.5 61.5t42 101.5t36 126t15.5 133q18 10 39 10q66 0 65 -81q0 -96 -31.5 -163t-71.5 -109t-78 -60.5t-50 -18.5z" />
<glyph unicode="-" horiz-adv-x="671" d="M135 555q90 0 160 14.5t133 14.5q33 0 70 -1t70.5 -2t60.5 -5.5t37 -10.5q-92 -41 -186.5 -59.5t-190.5 -18.5q-51 0 -94 12.5t-60 55.5z" />
<glyph unicode="." horiz-adv-x="266" d="M25 25q0 41 10 79.5t23.5 72.5t24.5 60.5t13 43.5q43 0 66.5 -31t23.5 -64q0 -35 -13 -67.5t-31.5 -65.5t-38 -66.5t-29.5 -70.5q-49 23 -49 109z" />
<glyph unicode="/" horiz-adv-x="581" d="M25 -104q0 39 38.5 138t98 230t132.5 279.5t140.5 286t121.5 247t79 164.5q12 29 22.5 54.5t16.5 56.5q23 -14 22 -64q0 -66 -39 -173t-99 -236t-132 -269.5t-138.5 -273.5t-117 -249t-66.5 -196q0 -6 -1 -8t-1 -6q0 -35 41 -35q-35 -35 -63 -35q-16 0 -35.5 19.5 t-19.5 69.5z" />
<glyph unicode="0" horiz-adv-x="727" d="M68 246q0 106 27.5 214.5t73.5 210t105.5 191.5t123 161t125 117t112.5 60q2 -12 6 -32.5t4 -34.5q10 -4 39 -23.5t59.5 -57.5t55 -99.5t24.5 -147.5q0 -90 -22.5 -188.5t-61.5 -192.5t-91 -178t-110.5 -149.5t-120 -105.5t-118.5 -44q-100 0 -165.5 78.5t-65.5 220.5z M168 236q0 -31 5 -65t14.5 -64.5t25 -54.5t33.5 -32q49 4 103 43t108.5 101.5t104.5 145.5t88 176.5t60.5 190.5t22.5 191q0 47 -13 81t-31.5 56.5t-36 34t-25.5 11.5q-16 0 -56.5 -31t-91.5 -86t-106.5 -131t-100.5 -166t-74.5 -192.5t-29.5 -208.5z" />
<glyph unicode="1" horiz-adv-x="466" d="M-53 119l196 -23q6 57 24.5 164t44.5 230.5t54.5 248.5t57.5 219q-29 -35 -68 -59.5t-80 -24.5q-37 0 -70 27q78 35 147 98.5t112 155.5q49 14 127 14q-78 -272 -155 -541.5t-126 -541.5q45 -4 84 -6t80 -2q31 0 60.5 1t58.5 3q-59 -55 -135 -67.5t-162 -12.5 q-4 -12 -6.5 -33.5t-2.5 -38.5q-20 12 -33.5 37t-17.5 47q-55 8 -108.5 33t-81.5 72z" />
<glyph unicode="2" horiz-adv-x="894" d="M-10 94v29l4 16q63 41 147 98.5t173 126t175 147.5t155 163t111 172t42 176q0 41 -35 67.5t-107 26.5q-61 0 -116.5 -21.5t-108.5 -54t-104.5 -71.5t-102.5 -74q-41 -27 -73 -27q-37 0 -58.5 23.5t-23.5 64.5q39 4 104.5 40t142 78t157.5 77t155 35q53 0 103 -15.5 t88 -44t61.5 -67.5t23.5 -84q0 -74 -39 -154t-101.5 -160.5t-142 -159.5t-159.5 -153t-155 -139.5t-128 -118.5q37 6 117 6q72 0 165 -7t187 -19.5t176 -29.5t131 -40q-72 6 -147.5 7t-153.5 1q-166 0 -323.5 -10t-280.5 -31q-31 16 -45 51t-14 76z" />
<glyph unicode="3" horiz-adv-x="917" d="M25 143q0 49 17 91t46 77t65.5 61.5t75.5 45.5q-43 -41 -70.5 -88t-27.5 -133q0 -61 50 -79t163 -18q66 0 140.5 8.5t138 30t105.5 57t42 93.5q0 55 -34 104t-85 88t-109.5 66t-109.5 33q-68 -37 -139 -37q-76 0 -124 29.5t-48 91.5q20 -6 46 -10.5t52 -4.5 q51 0 119 15.5t138.5 41t138 59.5t122 70.5t87 74.5t32.5 73q0 41 -35 67.5t-85 43t-104 22.5t-93 6q-41 0 -93.5 -15t-100.5 -43t-81 -64.5t-33 -79.5q-35 8 -54 30.5t-19 42.5q0 33 29.5 67t84 61.5t132 45t176.5 17.5q39 0 102 -7.5t122.5 -28t103.5 -58t44 -99.5 q0 -63 -37.5 -117.5t-96 -99.5t-131.5 -83t-142 -70q61 -23 121.5 -53.5t108.5 -73.5t78 -97.5t30 -124.5q0 -66 -29 -113.5t-75 -80.5t-105.5 -53.5t-119.5 -30.5t-117.5 -14.5t-98.5 -4.5q-78 0 -136.5 15.5t-98.5 39t-59 53.5t-19 60z" />
<glyph unicode="4" horiz-adv-x="821" d="M25 459q0 12 2 16q102 43 191 120t163 169t132 189.5t101 181.5q-47 -223 -139 -382t-256 -261q35 0 70 1t69 1q78 0 147.5 -5.5t129.5 -19.5q20 94 56 195.5t71 206t59.5 207t24.5 196.5q41 -23 53 -66t12 -102q0 -68 -15 -150t-38.5 -169t-48.5 -174t-43 -162 q61 -8 113.5 -24.5t113.5 -16.5q27 0 43 26q4 -20 4 -22q-4 -41 -92 -41q-41 0 -96 12t-98 18q-10 -47 -25.5 -109.5t-33 -132t-33 -141t-27.5 -133.5q-8 0 -21.5 1t-27 4.5t-24.5 8.5t-15 13q0 119 21.5 248t56.5 260q-47 10 -103.5 19.5t-122.5 9.5q-90 0 -177 -17.5 t-169 -54.5q-29 29 -28 80z" />
<glyph unicode="5" horiz-adv-x="937" d="M2 150q0 37 20.5 75.5t56.5 73.5t81 63.5t94 45.5q-43 -41 -70.5 -69t-42 -49.5t-19.5 -39t-5 -37.5q0 -37 22.5 -61.5t55 -38t71.5 -18.5t72 -5q70 0 149.5 12.5t148.5 49t114 106.5t45 186q0 190 -303 191q-49 0 -94.5 -15.5t-86.5 -42t-76.5 -59.5t-66.5 -67 q-43 43 -62 104q27 37 46.5 102.5t33 139t19.5 146.5t6 126v70q10 12 25.5 23.5t33.5 21.5q35 -10 93.5 -22.5t113.5 -12.5q51 0 94 4t85 9t86 9.5t96 4.5q2 0 28.5 -4.5t57 -16.5t56.5 -32.5t26 -53.5q0 -16 -5.5 -35.5t-33.5 -42.5q-4 18 -11.5 30.5t-28 21t-59.5 12.5 t-106 4q-53 0 -104.5 -13.5t-135.5 -13.5q-49 0 -108.5 7.5t-130.5 17.5q0 -111 -13.5 -224.5t-40.5 -216.5q92 80 263 80q207 0 313 -90t106 -229q0 -90 -48 -164t-121.5 -127t-159.5 -83t-160 -30q-55 0 -127 5.5t-137.5 23.5t-110.5 53t-45 95z" />
<glyph unicode="6" horiz-adv-x="940" d="M45 270q0 23 4 33q14 94 57.5 195.5t105.5 200t141 187.5t166 159.5t179.5 118.5t180.5 63q-78 -53 -170.5 -133t-179.5 -170t-157.5 -181.5t-105.5 -167.5q53 55 126 91t177 36q178 0 268.5 -75.5t90.5 -208.5q0 -88 -46 -169t-123 -143.5t-177.5 -100.5t-206.5 -38 q-90 0 -152.5 23.5t-101.5 65.5t-57.5 97.5t-18.5 116.5zM158 231q0 -41 10 -79.5t32.5 -68.5t56.5 -47.5t81 -17.5q78 0 163 44t156 106q92 78 130 147.5t38 135.5q0 39 -9 75.5t-30.5 65.5t-55.5 45t-85 16q-66 0 -131 -27.5t-116.5 -65.5t-83 -79t-31.5 -67 q-1 -62 79 -62q-37 -25 -67 -24q-66 0 -90 63q-27 -35 -37 -76t-10 -84z" />
<glyph unicode="7" horiz-adv-x="630" d="M137 88q0 133 58.5 267t134.5 253q98 154 220 285t234 240q-90 -14 -193.5 -21.5t-211.5 -7.5q-33 0 -70 2t-68.5 12t-52 30.5t-20.5 57.5q0 14 2 17q16 -12 58 -24.5t143 -12.5q49 0 168.5 2t324.5 6q41 -31 58 -74q-143 -123 -272.5 -264t-235.5 -305q-53 -80 -94 -164 t-69 -156.5t-43 -124t-15 -67.5q0 -27 4 -52.5t15 -46t29.5 -32.5t49.5 -12q-20 -8 -31 -9q-37 0 -60.5 18.5t-38 48.5t-19.5 64.5t-5 69.5z" />
<glyph unicode="8" horiz-adv-x="624" d="M-2 68q0 49 39 113.5t89 124t100 104.5t73 59q-47 51 -80 138t-33 175q0 72 31 144.5t86 130t133 93.5t174 36q14 0 30.5 -3t32 -8.5t26 -11.5t10.5 -14q-78 0 -157 -28.5t-142.5 -83t-104.5 -133.5t-41 -179q0 -57 20.5 -112.5t61.5 -84.5q47 31 111.5 87.5t124 121 t101.5 130t42 112.5q0 35 -43 53.5t-90 18.5q-12 0 -22.5 -2t-20.5 -5q35 27 77 39.5t76 12.5q57 0 90 -32t33 -73t-23.5 -89t-60 -100t-84 -102.5t-94.5 -96.5t-88.5 -81.5t-68.5 -58.5q20 -29 44.5 -56.5t46 -58.5t36 -68.5t14.5 -82.5q0 -84 -29 -130.5t-74 -69 t-97 -26.5t-101 -4t-93 7.5t-79 21.5t-55.5 31.5t-20.5 40.5zM117 61q0 -23 13 -35t54 -12q31 0 75 4.5t85 20.5t69.5 48t28.5 85q0 63 -31.5 129t-66.5 107q-35 -33 -75 -80t-73.5 -96.5t-56 -94.5t-22.5 -76z" />
<glyph unicode="9" horiz-adv-x="634" d="M61 608q0 68 24 130.5t59.5 117.5t78.5 101.5t84 78.5q100 80 199.5 119t165.5 39q98 0 123 -55q12 0 42.5 -9.5t41.5 -15.5q-170 -293 -272.5 -587.5t-135.5 -622.5q-43 94 -43 211q0 141 38 290.5t107 276.5q-35 -31 -76.5 -69t-89 -69.5t-97.5 -53t-99 -21.5 q-72 0 -111 41t-39 98zM127 559q0 -20 5 -37.5t18 -17.5q57 0 111 26.5t105.5 67.5t98.5 90t90 96q25 27 52.5 66t55 83t55 91t50.5 90q0 23 -22.5 33t-45.5 10q-31 0 -71.5 -13.5t-86.5 -37t-93.5 -58t-92.5 -77.5q-37 -37 -77.5 -84t-74.5 -101.5t-55.5 -113t-21.5 -113.5 z" />
<glyph unicode=":" horiz-adv-x="266" d="M25 25q0 41 10 78.5t23.5 70.5t24.5 60.5t13 46.5q43 0 66.5 -31t23.5 -64t-13 -65.5t-31.5 -65t-38 -67.5t-29.5 -72q-49 23 -49 109zM141 602q0 37 9.5 75t21.5 71.5t24.5 62.5t16.5 47q45 0 67.5 -26.5t22.5 -61.5q0 -37 -14.5 -72.5t-33.5 -70.5t-37.5 -70t-24.5 -70 q-29 14 -40.5 44t-11.5 71z" />
<glyph unicode=";" horiz-adv-x="266" d="M-53 -201q12 16 33.5 60.5t42 104t36 127t15.5 130.5q18 10 39 10q66 0 65 -81q0 -96 -31.5 -164t-71.5 -109t-78 -59.5t-50 -18.5zM141 602q0 37 9.5 75t21.5 71.5t24.5 62.5t16.5 47q45 0 67.5 -26.5t22.5 -61.5q0 -37 -14.5 -72.5t-33.5 -70.5t-37.5 -70t-24.5 -70 q-29 14 -40.5 44t-11.5 71z" />
<glyph unicode="&#x3c;" horiz-adv-x="796" d="M102 547q14 25 57.5 48t104 47t130 46.5t136 45t123 43t88.5 40.5q-12 -45 -52 -80t-93 -63.5t-112.5 -53t-113 -48t-92 -48t-49.5 -55.5q49 -59 140.5 -119.5t251.5 -122.5q-98 8 -191.5 38t-166.5 74t-117 98.5t-44 109.5z" />
<glyph unicode="=" horiz-adv-x="821" d="M78 451q121 0 214 14t177 14h98t92 -2t75 -6t48 -10q-127 -35 -259 -56.5t-257 -21.5q-70 0 -121 13.5t-67 54.5zM119 657q123 0 217 16.5t178 16.5h94t93 -2t77 -6t47 -10q-127 -39 -258 -58.5t-258 -19.5q-72 0 -123 11t-67 52z" />
<glyph unicode="&#x3e;" horiz-adv-x="796" d="M102 227q18 68 93 114t163 82t163 70.5t93 81.5q-51 59 -142 119t-251 123q98 -10 192.5 -41t167 -74t116.5 -97t44 -109q-14 -25 -58 -48.5t-103.5 -47t-129 -46t-136 -45t-123 -43.5t-89.5 -39z" />
<glyph unicode="?" horiz-adv-x="665" d="M63 877q8 68 54.5 124t113 97t148.5 64.5t166 23.5q63 0 119.5 -19.5t97.5 -51.5t64.5 -76t23.5 -93q0 -53 -27.5 -104t-71.5 -98.5t-100.5 -92.5t-113 -85t-107.5 -76.5t-88 -67.5q66 8 133.5 30.5t122.5 59.5q-2 -16 -19.5 -43t-48 -52.5t-73.5 -48t-92 -28.5 q-12 2 -33 11t-41.5 21.5t-36.5 24t-23 17.5q18 45 67.5 85t112 77.5t130 75.5t124 77t93.5 83t37 93q0 43 -20.5 75t-55.5 53.5t-79 32.5t-89 11q-41 0 -106.5 -8t-136 -30.5t-137.5 -61.5t-108 -100zM264 25q0 41 10.5 79.5t22.5 72.5t24.5 60.5t16.5 43.5q43 0 66.5 -31 t23.5 -64q0 -37 -14.5 -69.5t-34 -65.5t-38 -66.5t-24.5 -68.5q-53 25 -53 109z" />
<glyph unicode="@" horiz-adv-x="1157" d="M68 391q0 168 86 313.5t219 252t290.5 167t303.5 60.5q78 0 135 -24.5t94 -63.5t54.5 -89.5t17.5 -101.5q0 -57 -15.5 -120.5t-40 -125t-55.5 -120t-61 -103.5q-55 -78 -120 -127t-124 -49q-33 0 -60.5 16.5t-49 42t-35 55t-17.5 54.5q-10 -12 -27.5 -30.5t-41 -36 t-49 -30t-50.5 -12.5t-43 11.5t-32.5 29t-21.5 37t-7 35.5q0 59 35.5 126t85 122t101.5 91t85 36q57 0 80 -37q12 16 18 33q47 -2 64 -15q-12 -27 -32.5 -70.5t-40 -96t-35 -107.5t-15.5 -106q0 -12 7 -27.5t17.5 -28t21.5 -21.5t19 -9q37 0 79 34.5t82 89t77 122t64.5 132 t44 118.5t16.5 85q0 43 -13.5 83t-43 72t-74.5 50t-109 18q-113 0 -214 -37.5t-188 -99t-155.5 -140.5t-118 -160t-76 -158.5t-26.5 -135.5q0 -82 32 -149.5t86 -115.5t127 -74.5t156 -26.5q119 0 218.5 38.5t191.5 92.5q-31 -41 -80 -75t-110.5 -58.5t-131 -39 t-141.5 -14.5q-90 0 -172 33t-144.5 89.5t-100 132t-37.5 163.5zM479 393q0 -18 13 -18q27 0 58.5 16.5t59 40t49 46t31.5 34.5q10 25 24.5 59.5t30 67.5t29 59.5t21.5 38.5q-6 23 -18.5 33t-22.5 10q-39 -20 -87.5 -69t-89 -106.5t-69.5 -115t-29 -96.5z" />
<glyph unicode="A" horiz-adv-x="868" d="M80 63q0 78 35 176.5t78 217.5q18 49 47.5 122.5t69.5 154.5t88 162t102.5 146.5t113 105.5t119.5 40q59 0 80 -33t21 -82q0 -41 -11.5 -103.5t-27 -137t-30.5 -159.5t-22 -167q47 4 105.5 5t97.5 1h25q-23 -12 -46.5 -20.5t-52 -17.5t-62.5 -18.5t-79 -23.5 q-4 -41 -4 -80v-76q0 -133 21.5 -213.5t74.5 -80.5q20 0 40 15t30 38q6 -6 6 -21q0 -8 -4 -20t-13.5 -22.5t-26.5 -18.5t-44 -8q-63 0 -102 28.5t-60.5 76.5t-29 110.5t-7.5 130.5q0 29 1 58.5t3 58.5q-41 -14 -98 -28.5t-119 -14.5q-78 0 -133 24q-35 -115 -54 -205 t-19 -155q0 -45 12 -66q-53 0 -89 22.5t-36 77.5zM285 449q59 0 146 6t190 37q0 45 10 106t26.5 128t35 133.5t34.5 120.5t26.5 92t10.5 48q0 31 -21 31q-47 0 -95 -40t-93 -102.5t-87 -141.5t-78 -156.5t-62.5 -147t-42.5 -114.5z" />
<glyph unicode="B" horiz-adv-x="966" d="M70 -10q27 164 65.5 323.5t82.5 308t94 280.5t102 239q-23 0 -56.5 -4t-72.5 -11.5t-77 -15.5t-67 -14q18 20 53 37.5t78 30t86 18.5t78 6q10 0 15.5 19.5t7.5 19.5q0 -10 1 -22.5t3 -12.5q88 0 177 -17.5t159.5 -49t114.5 -76.5t44 -101q0 -55 -33.5 -95t-87 -69.5 t-120 -50t-132 -35t-121.5 -23.5t-91 -18q47 -2 110.5 -10t131 -23.5t132 -39t116.5 -57t84 -80t32 -103.5q0 -59 -49 -108.5t-128 -88t-178.5 -68.5t-199.5 -49.5t-194 -29.5t-160 -10zM182 98q154 16 277 44t209 66t132 85t46 102q0 43 -51.5 80t-130 65.5t-176 47 t-189.5 28.5q-2 0 -11 -30.5t-21.5 -79.5t-26 -109.5t-25.5 -118t-21.5 -105.5t-11.5 -75zM328 725q31 2 82 10t108 21.5t115.5 34t105.5 48t77 60.5t30 74q0 31 -35 60.5t-90 52t-122 38t-130 19.5q-6 -4 -22.5 -50t-38 -110.5t-43 -135.5t-37.5 -122z" />
<glyph unicode="C" horiz-adv-x="1157" d="M154 399q0 137 62.5 277.5t170 254t249.5 185.5t302 72q37 0 71.5 -18.5t61.5 -49t43 -68.5t16 -77q0 -45 -14 -64q-10 27 -23.5 57.5t-32 56.5t-44 43t-58.5 17q-117 0 -240.5 -60t-227 -158.5t-169 -222.5t-65.5 -251q0 -72 28.5 -130t73.5 -100t100.5 -65.5 t110.5 -23.5q104 0 202.5 40t184.5 100t157 129t120 126q6 0 6 -25q0 -18 -2 -20q-53 -86 -142 -168t-190.5 -144.5t-205 -101.5t-185.5 -39q-80 0 -145.5 33t-113.5 91.5t-74.5 136t-26.5 167.5z" />
<glyph unicode="D" horiz-adv-x="1028" d="M94 0q0 70 33 200t81 288.5t103.5 330.5t102.5 326q-14 4 -31.5 5t-46.5 1q-41 0 -75 -9t-75 -26q31 41 83.5 55.5t107.5 14.5q141 0 271 -44t229.5 -116t159 -164t59.5 -188q0 -70 -42 -150t-112 -157.5t-158 -149.5t-179 -126t-178 -87t-153 -33q-29 0 -47 6.5 t-34 12.5v-23q-8 -29 -18.5 -59.5t-20.5 -42.5q-35 23 -47.5 60.5t-12.5 74.5zM211 88q43 10 121 34.5t169 61.5t186 86t172 112.5t126 140.5t49 167q0 80 -52 159t-132 141.5t-174 101t-180 38.5q-176 -532 -285 -1042z" />
<glyph unicode="E" horiz-adv-x="1005" d="M98 176q0 119 51.5 202t128 140t163.5 91t161 57q-49 18 -100 42.5t-92 57.5t-67 73t-26 89q0 84 49.5 134t116 77.5t136 37t112.5 9.5q88 0 151.5 -13.5t105.5 -35t61.5 -50t19.5 -61.5q0 -29 -22.5 -55.5t-88.5 -48.5q6 6 7.5 12t1.5 12q0 39 -17.5 73t-47.5 59.5 t-68.5 40t-83.5 14.5q-41 0 -97.5 -8.5t-110 -28t-90 -50t-36.5 -75.5q0 -51 54 -100.5t134 -87.5t171 -60.5t163 -22.5q51 0 90 23q-37 -125 -186 -125q-18 0 -42 3t-48.5 9t-47 13.5t-38.5 13.5q-53 -10 -132 -44t-152 -84t-125 -112.5t-52 -132.5q0 -43 37 -77.5 t93 -57.5t122.5 -35t126.5 -12q80 0 139 10t99 37t59.5 71t19.5 109q0 23 -5 42.5t-13 35.5q49 -23 73.5 -54.5t24.5 -92.5q0 -37 -19.5 -83t-68.5 -86t-132 -68t-212 -28q-51 0 -128 6.5t-148.5 28t-123 60.5t-51.5 106z" />
<glyph unicode="F" horiz-adv-x="974" d="M36 704.5q3 16.5 13 28.5q35 -14 78 -14q35 0 62.5 7t50.5 17q-47 -49 -82 -63l194 29q35 100 70 181t70 150q-25 2 -72 10.5t-95.5 24t-83 41t-34.5 62.5q0 25 14 32q18 -14 35.5 -25t38 -18.5t49.5 -11.5t70 -4q29 0 60.5 1t68.5 5q18 29 33.5 68t17.5 51 q31 0 41 -16.5t10 -38.5v-23.5t-2 -21.5v-9q180 12 273.5 16.5t111.5 4.5q25 0 81 -1t112.5 -6t99.5 -14.5t43 -25.5q-4 -18 -37 -21l5 5t3 8q-8 2 -13 4t-9 2t-34 -3t-79 -3q-10 0 -54 -4.5t-104.5 -11.5t-131 -15t-134 -16.5t-114 -15.5t-70.5 -11q-37 -90 -66.5 -172 t-58.5 -160q328 43 498 65.5t204 25.5q-96 -41 -184 -68t-172 -50q-80 -20 -174 -37.5t-211 -27.5q-43 -147 -78 -300t-35 -317q0 -51 13 -51q27 27 58.5 76t60 105.5t53 113.5t40.5 100q-6 -66 -26 -137t-49 -134.5t-64.5 -112t-76.5 -62.5q-20 6 -38 15.5t-30 26.5 t-19.5 48t-7.5 82q0 35 6.5 100.5t18.5 141.5t28.5 152.5t36.5 135.5q-98 -8 -162.5 -13t-93.5 -5q-30 30 -30 69q0 19 3 35.5z" />
<glyph unicode="G" horiz-adv-x="1335" d="M131 418q0 147 72.5 277t218.5 263q115 104 238.5 173t242.5 69q16 0 70.5 -11t113 -35t104.5 -61.5t46 -93.5q0 -12 -7 -28.5t-17.5 -31.5t-22.5 -25.5t-23 -10.5q2 8 7.5 19.5t5.5 29.5q0 33 -28 59.5t-64.5 46t-75.5 30t-64 10.5q-31 0 -86 -16.5t-118.5 -45 t-126 -67.5t-111.5 -84q-49 -47 -97.5 -105.5t-86 -130t-61 -154.5t-23.5 -178q0 -70 25.5 -116.5t65.5 -75.5t89 -41t98 -12q98 0 190.5 20.5t188.5 69.5q29 14 72 44t87 64.5t80.5 68.5t51.5 58q16 27 23.5 53.5t23.5 55.5q-41 -12 -110.5 -25.5t-147.5 -26t-151.5 -20.5 t-123.5 -8q-43 0 -80.5 22.5t-37.5 63.5q12 -4 49 -9t78 -5q35 0 89 4t114.5 9t123 13t114.5 17.5t87 17.5t43 16q14 -16 37.5 -35.5t44.5 -47.5q-43 -37 -76 -94.5t-58.5 -124t-44 -136t-29.5 -129t-16 -104.5t-5 -62q0 -20 16 -57q-23 0 -39 14.5t-26.5 35t-15.5 44 t-5 41.5q0 20 8 66.5t20.5 101.5t24.5 108.5t19 86.5q-31 -43 -90.5 -97.5t-139.5 -103.5t-173 -82t-191 -33q-109 0 -187 39t-127 102.5t-72.5 144.5t-23.5 165z" />
<glyph unicode="H" horiz-adv-x="1032" d="M6 590q0 6 1 14t1 17q14 6 48 14t73 17.5t78 16.5t67 9q4 12 20.5 55t39 101.5t49.5 124t52.5 122t49 97.5t39.5 51q-2 -27 -9 -73t-30 -112q-12 -37 -20 -62.5t-19.5 -60t-31 -89t-52.5 -148.5q49 0 81 -2t51.5 -6t31 -10.5t19.5 -12.5q-12 2 -30.5 2h-43.5h-50.5 t-64.5 -2q-20 -43 -28.5 -76.5t-18.5 -52.5h49q18 0 36 3t53.5 7.5t96 10.5t165.5 10q20 90 47.5 176t63.5 172t81 175t98 186v-15q0 -18 -6 -45q-2 -16 -14 -63t-31.5 -110.5t-41 -136.5t-42 -138.5t-36 -118.5t-21.5 -78q53 4 74.5 7t39 5t44 3t90.5 1q29 0 60.5 -2t57 -7 t42 -13t16.5 -23q-10 0 -15.5 3.5t-14.5 5.5t-23.5 4t-38.5 2q-35 0 -128 -10.5t-214 -28.5l-13 -74q-2 -6 -6 -27.5t-7 -52t-5 -68.5t-2 -77q0 -45 5 -90t18.5 -80t36 -57.5t59.5 -22.5q39 0 63.5 22.5t36.5 54.5t16.5 64.5t4.5 51.5q0 23 -5.5 60.5t-17.5 72.5 q16 -16 31.5 -61.5t15.5 -100.5q0 -10 -3 -46t-18.5 -74t-48 -68.5t-90.5 -30.5q-33 0 -69.5 13t-68.5 47t-53.5 92.5t-21.5 150.5q0 33 2 69.5t13 77.5l20 140q-10 0 -52 -5.5t-97.5 -11.5t-112.5 -13t-98 -11h-45q-18 -43 -31.5 -105.5t-23 -127t-14.5 -125t-5 -99.5 q0 -90 19.5 -125t41.5 -51q-23 2 -45 13t-39.5 35.5t-29 67.5t-11.5 111q0 80 7.5 149.5t18.5 125t22.5 91t17.5 48.5l-57.5 5t-68.5 14t-57.5 37t-23.5 75zM59 582q18 -16 29.5 -24.5t28 -12.5t41 -9.5t71.5 -13.5q16 47 23.5 78t11.5 43q-39 0 -88 -12.5t-117 -48.5z" />
<glyph unicode="I" horiz-adv-x="309" d="M121 137q0 31 2 69t10 83q14 102 50 228t75 245t70.5 214t40.5 138q2 6 2 29q0 51 -23 51q-25 0 -52.5 -23.5t-35.5 -37.5q4 23 19.5 52t50.5 34q55 0 78.5 -36t23.5 -120q0 -100 -24.5 -207.5t-56.5 -216.5t-64.5 -215.5t-46.5 -202.5q-8 -47 -10.5 -98t-2.5 -94v-61 t4 -38q-53 6 -81.5 54.5t-28.5 152.5z" />
<glyph unicode="J" horiz-adv-x="462" d="M-150 -186q0 29 27 57.5t60.5 51t65.5 35.5t42 13q-41 -37 -62.5 -66.5t-21.5 -86.5q0 -29 28.5 -41.5t69.5 -12.5q43 0 85 13.5t75 39t53.5 60.5t20.5 78q0 63 -5 175t-5 239q0 129 21.5 269t61.5 261t97 209t127 117q-51 -131 -94 -265.5t-62 -232.5 q-23 -164 -32 -278.5t-9 -192.5q0 -59 3 -103t7.5 -77t7.5 -57.5t3 -45.5q0 -80 -32 -129t-80 -74.5t-103.5 -33.5t-100.5 -8q-37 0 -80 2t-79.5 10t-62.5 25.5t-26 48.5z" />
<glyph unicode="K" horiz-adv-x="956" d="M96 645q0 6 1 11.5t3 15.5q20 -39 51 -63.5t60 -41.5q37 145 72.5 243.5t70.5 177.5t72 148.5t76 157.5q16 -16 22 -39.5t6 -46.5q0 -25 -2 -28q-10 -80 -37.5 -151t-63.5 -143.5t-73 -154.5t-63 -186q12 -4 39.5 -9.5t72.5 -5.5q88 0 164 36t140.5 91.5t118 125t92 136 t64.5 124t38 90.5q0 -68 -14.5 -161t-59.5 -188.5t-129 -180.5t-223 -136q-37 -14 -67.5 -20.5t-56.5 -8.5t-47.5 -3t-41.5 -3q55 -66 139 -137.5t168 -131t155.5 -99t104.5 -39.5q20 0 42 14t30 43q8 -14 8 -39q0 -39 -23.5 -66.5t-64.5 -27.5q-70 0 -139.5 27.5t-135 71.5 t-126 98.5t-113.5 108.5t-96 103t-72 82q-10 -31 -24.5 -81t-27.5 -107t-22.5 -116.5t-9.5 -108.5q0 -29 12 -29q14 0 19 31q10 -14 10 -35q0 -47 -39 -47q-18 0 -29.5 13t-17.5 32.5t-8 40t-2 35.5q0 39 6 89t15.5 105t21.5 110.5t26 102.5q-41 23 -66.5 66t-25.5 104z" />
<glyph unicode="L" horiz-adv-x="858" d="M6 59q4 12 27 31q51 125 104 265.5t101.5 283.5t88.5 282.5t66 262.5q41 -76 41 -191q0 -98 -25.5 -206.5t-63.5 -219t-81 -218t-78 -202.5q25 8 84 9q80 0 155 -25t142 -59q92 -47 188.5 -60.5t207.5 -17.5q-78 -33 -168 -33q-78 0 -150 16.5t-141 51.5q-49 25 -90 42 t-86 17q-70 0 -135.5 -41t-94.5 -119z" />
<glyph unicode="M" horiz-adv-x="802" d="M-80 -334q29 53 64.5 156.5t75.5 235.5t82 285t82 308.5t77 304t68 273.5h18q35 0 50.5 -4t37.5 -13q-20 -117 -40.5 -238.5t-20.5 -242.5q0 -104 17.5 -202.5t66.5 -184.5q113 156 192.5 329t93.5 355q4 0 15.5 2t25.5 2q66 0 105 -16q-23 -68 -54.5 -154t-60.5 -191.5 t-49.5 -230.5t-20.5 -270q0 -78 9.5 -149.5t34 -130t67.5 -97.5t111 -49q37 0 76.5 21.5t78.5 54.5t75 68.5t65 64.5q-72 -119 -147 -178.5t-167 -63.5q-70 0 -126 33t-96 85t-61.5 117.5t-21.5 131.5q0 68 11.5 171t19.5 210q-6 -14 -23.5 -40t-39 -53.5t-43 -51 t-36.5 -29.5q-63 2 -105 46t-67.5 105.5t-38 130t-14.5 117.5q-20 -80 -43.5 -175t-52.5 -195.5t-61.5 -200t-69.5 -185.5t-77 -154.5t-83 -107.5z" />
<glyph unicode="N" horiz-adv-x="743" d="M125 -27q16 166 26.5 337t36.5 343q23 145 60 283.5t78 239.5q31 18 71 18q41 0 60 -20q-51 -131 -73 -255t-22 -247q0 -104 12.5 -203.5t35.5 -198.5q16 -72 40.5 -137t77.5 -113q8 27 17.5 52.5t13.5 54.5q14 88 32.5 195.5t46.5 222t65.5 226.5t90 207t121 165.5 t158.5 103.5q-96 -127 -161.5 -266t-110.5 -285.5t-75 -297t-54 -296.5q-10 -55 -44 -90t-87 -45q-100 20 -149.5 86t-72 152t-29.5 182t-24 180q-8 -98 -16 -174t-23 -164q-6 -37 -14 -74.5t-20.5 -73.5t-29 -64.5t-38.5 -43.5z" />
<glyph unicode="O" horiz-adv-x="1333" d="M18 514q0 141 59.5 265t154 215t213 144.5t239.5 53.5q150 0 280 -25.5t226 -80t152.5 -139.5t56.5 -204q0 -164 -67.5 -304t-178.5 -243.5t-253 -163t-292 -59.5q-86 0 -166 38t-140 101.5t-96 142.5t-36 163q0 123 37 230.5t90 193.5t114.5 146.5t108.5 88.5 q-104 -47 -193 -115.5t-153.5 -152.5t-100.5 -178t-36 -191q0 -28 6 -53q-12 20 -18.5 56t-6.5 71zM266 410q0 -76 21.5 -145.5t62.5 -122t102.5 -83t139.5 -30.5q113 0 229.5 48t210.5 134t153.5 204t59.5 257q0 86 -38 168t-108.5 146.5t-169 104t-220.5 39.5 q-74 0 -135.5 -37.5t-110.5 -98t-86 -138.5t-61.5 -159t-37 -155.5t-12.5 -131.5z" />
<glyph unicode="P" horiz-adv-x="911" d="M-162 901q0 61 36 107.5t92.5 79t126 53t137 33t126 16.5t93.5 4q100 0 211.5 -17.5t204.5 -59.5t154.5 -111.5t61.5 -171.5q0 -45 -23.5 -92.5t-100 -91.5t-220 -79.5t-381.5 -56.5q-23 -84 -50 -172t-52 -175t-45.5 -172t-30.5 -161q-16 39 -16 103q0 63 11 144 t26.5 161t34 150.5t32.5 111.5q-20 -4 -39.5 -6t-38.5 -2q-92 0 -180 24q27 4 64 10t75.5 10.5t74.5 9.5t63 9q70 205 134 336t105 201q-10 -61 -31.5 -136t-44 -147t-43 -134.5t-26.5 -98.5q47 10 111.5 26.5t134 37t138 46t122 55t87.5 63.5t34 71q0 49 -35 87t-88.5 67.5 t-119 50t-128 33.5t-114.5 19.5t-79 6.5q-61 0 -149 -12.5t-171 -45t-146.5 -91t-79.5 -148.5l-2 -17q-55 0 -56 72z" />
<glyph unicode="Q" horiz-adv-x="1157" d="M125 389q0 137 34 261t94 225.5t142 179.5t178 125q-37 -35 -76.5 -79t-60.5 -75q61 55 110.5 89t94.5 51.5t90 22.5t98 5q88 0 163 -24.5t127 -76t82 -130t30 -187.5t-25.5 -201t-63.5 -163.5t-81 -121.5t-76 -75q70 -53 115 -108.5t88 -100.5t93 -73.5t128 -28.5 q41 0 82 14t76 35q-23 -35 -70 -67.5t-137 -32.5q-84 0 -140.5 25.5t-100.5 68.5t-86 99.5t-99 115.5q-16 -16 -56 -46t-97.5 -59.5t-129 -52t-153.5 -22.5q-94 0 -164 30.5t-116 86t-69.5 130t-23.5 160.5zM197 414q0 -66 15 -131.5t49 -117.5t87 -84t127 -32 q106 0 208.5 36t190.5 134q-27 20 -70.5 47t-98 51.5t-117 42t-125.5 21.5q57 27 117 27q90 0 181 -40t169 -102q84 92 134 215t50 271q0 92 -27.5 157.5t-72.5 106.5t-104.5 60.5t-123.5 19.5q-119 0 -208 -54.5t-153.5 -134.5t-103 -168t-57.5 -155q0 41 8.5 84t20.5 83 t24.5 74.5t22.5 59.5q-25 -20 -49.5 -84t-46 -138.5t-34.5 -145.5t-13 -103z" />
<glyph unicode="R" horiz-adv-x="688" d="M-37 903q0 66 40 118t100.5 88t132 55.5t135.5 19.5q100 0 184 -23.5t145.5 -65.5t95 -101.5t33.5 -133.5t-37.5 -125t-104 -86t-158 -57.5t-199.5 -36.5q-2 -4 -11.5 -26.5t-9.5 -36.5q51 -96 134 -195.5t173.5 -181.5t174 -136.5t139.5 -58.5q-27 -35 -54.5 -47 t-62.5 -12q-51 0 -105.5 30.5t-107.5 79.5t-104.5 109.5t-94.5 121t-76 113.5t-51 88q-18 -61 -39.5 -137t-41 -152.5t-36 -148t-26.5 -123.5q-29 76 -29 166q0 111 32 243t77 255q-6 6 -17.5 24.5t-20.5 40t-16 45t-7 39.5q29 -14 55 -16t53 -4q14 49 28.5 85t28 73.5 t27.5 87t29 125.5q12 -14 17 -35t5 -60q0 -41 -8 -95t-29 -159q84 12 158 35t129 55.5t88 73.5t33 88q0 68 -40 110t-96.5 64.5t-120 29.5t-110.5 7q-66 0 -132 -22.5t-124.5 -59.5t-103.5 -86t-66 -102q-8 25 -8 53z" />
<glyph unicode="S" horiz-adv-x="841" d="M-147 -39q20 -16 52 -21.5t75 -5.5q80 0 168 9.5t175 26t166.5 42t145.5 60.5q-33 29 -82 51t-104.5 48t-110.5 58.5t-99 79.5t-72 111.5t-28 154.5q0 98 44 207t121 201t180.5 152.5t224.5 60.5q106 0 173.5 -46t71.5 -134q-37 33 -89 47t-115 14q-111 0 -204 -33.5 t-163 -91.5q-41 -35 -77 -81t-62.5 -98t-43 -109.5t-16.5 -112.5q0 -72 38 -124t99.5 -90t136 -65.5t149.5 -50t139.5 -45t105.5 -49.5q-4 -16 -62.5 -63.5t-165 -96.5t-257 -87t-340.5 -38q-76 0 -117 31t-57 88z" />
<glyph unicode="T" horiz-adv-x="954" d="M178 1155q0 14 4 23q4 -4 10.5 -8.5t19.5 -6.5t38.5 -3t68.5 -1q90 0 343 25q8 20 20 40.5t25 37.5q8 -16 8 -37t2 -39q31 2 74 2h77q154 0 239 -9.5t127 -21.5t50 -24.5t8 -18.5q-37 4 -57.5 7t-44 6t-59 4.5t-103.5 1.5q-47 0 -120.5 -1.5t-198.5 -11.5 q-61 -145 -112.5 -280t-90.5 -266.5t-60.5 -263.5t-21.5 -271q0 -51 8 -84t31 -33q12 0 27.5 12.5t25.5 36.5q0 -20 -10 -43.5t-53 -23.5q-68 0 -102 61.5t-34 153.5q0 125 26 254t69 256t98.5 249.5t114.5 235.5q-66 -6 -147 -16.5t-156 -10.5q-84 0 -114 16.5t-30 51.5z " />
<glyph unicode="U" horiz-adv-x="929" d="M147 334q0 78 12.5 171t34 189.5t53.5 186.5t71.5 160.5t87 112.5t100.5 42q27 0 41 -8q-66 -47 -121 -151.5t-95 -236.5t-61.5 -277.5t-21.5 -274.5q0 -72 26.5 -126t104.5 -77q59 0 127.5 47t127 109.5t97.5 126t39 94.5q45 256 121 456.5t172 327.5q47 -6 86 -39 q-23 -33 -53.5 -95t-63.5 -140t-64.5 -166t-56 -171t-40 -154.5t-15.5 -116.5q0 -68 10.5 -134.5t36 -121t70.5 -90t112 -40.5q-20 -4 -33.5 -8t-23.5 -4q-35 0 -74 15.5t-75.5 52.5t-67.5 96.5t-49 147.5q-31 -49 -69 -96.5t-84 -84.5t-98 -59.5t-112 -22.5 q-123 0 -187.5 84t-64.5 275z" />
<glyph unicode="V" horiz-adv-x="524" d="M156 1180q27 -47 52 -97.5t43.5 -112t30 -136t11.5 -172.5q0 -66 -4 -144t-19 -174q20 96 47 199.5t63 205t82 194.5t103.5 167t129 124t157.5 64q-45 -35 -99.5 -94t-106.5 -133t-97 -158t-72 -168q-63 -197 -108 -395t-76 -383q-29 4 -55.5 12.5t-34.5 20.5 q6 113 11 227.5t5 233.5q0 106 -4 208.5t-11 195.5t-19.5 173t-28.5 142z" />
<glyph unicode="W" horiz-adv-x="1028" d="M123 231q0 63 16.5 144.5t45 169.5t70.5 178t93 174t109.5 155.5t124.5 123.5q-66 -141 -133.5 -271.5t-120.5 -269.5q-41 -104 -77 -217t-36 -225q0 -31 5 -60t12.5 -52.5t17.5 -37.5t22 -14q72 0 172.5 202.5t227.5 604.5q6 0 12 1t14 1t21.5 -1t30.5 -3 q-6 -12 -21.5 -60.5t-36 -116t-44 -142.5t-43 -142.5t-34 -115.5t-16.5 -60q-4 -23 -7 -42.5t-3 -41.5q0 -92 30.5 -143.5t77.5 -51.5q45 0 92.5 67.5t91.5 178t84 250t73.5 285t59.5 282t42 240.5q14 -41 24 -81t10 -104q0 -61 -10 -145t-30 -211q-10 -70 -31 -157 t-49.5 -177t-63.5 -176t-76 -153.5t-87 -108.5t-95 -41q-94 0 -140 75.5t-46 188.5q0 12 1 26.5t3 30.5q-18 -35 -41 -69.5t-50.5 -63t-58 -47t-63.5 -18.5q-45 0 -78 19.5t-53.5 53t-29.5 77.5t-9 91z" />
<glyph unicode="X" horiz-adv-x="1007" d="M25 -14q14 115 66 218t125 198.5t157 185.5t164 180q4 29 8 76t4 94q0 33 -3 67.5t-12.5 62.5t-24.5 45t-40 17q-63 0 -122.5 -22.5t-111 -61t-91.5 -90t-62 -108.5q0 8 -1 18.5t-1 20.5q0 63 32.5 120.5t84 100.5t114 68.5t123.5 25.5q94 0 152.5 -55t58.5 -184 q0 -25 -2 -48.5t-8 -50.5q92 96 213 179t244 126q-111 -106 -238 -230t-238 -251q-12 -29 -14 -68.5t-2 -80.5q0 -84 18.5 -172t57.5 -160t96 -118t137 -46q41 0 85 20.5t73 86.5q0 -33 -16.5 -69t-43 -66.5t-61.5 -50t-72 -19.5q-100 0 -169.5 41t-113.5 108.5t-64.5 153.5 t-20.5 174q0 92 24 188q-59 -63 -127.5 -135t-136 -149.5t-130 -163.5t-111.5 -176z" />
<glyph unicode="Y" horiz-adv-x="698" d="M143 328q0 106 37 228t86 245t97.5 240.5t70.5 220.5q10 -41 16.5 -77t6.5 -71q0 -94 -33 -188.5t-71 -192.5t-70.5 -201.5t-32.5 -216.5q0 -12 2 -40.5t10 -58.5t21.5 -53.5t35.5 -23.5q20 0 57.5 42t80.5 106.5t86 141.5t71 144q59 135 110.5 290t92.5 315q49 6 69.5 7 t43.5 1q-10 -33 -35 -109t-58.5 -180t-73.5 -229t-81 -254t-80 -254t-69.5 -229.5t-51 -181.5t-24.5 -109q-6 -29 -6 -64q0 -20 2 -33.5t16 -13.5q20 0 34.5 22.5t24.5 49.5q-10 -57 -32.5 -93t-77.5 -36q-41 0 -56.5 33.5t-15.5 80.5q0 33 11.5 88.5t30 121t41 137t47 139 t47 125t40.5 94.5q-25 -31 -51.5 -64.5t-55 -63.5t-61.5 -53.5t-69 -31.5q-51 2 -86 23.5t-56.5 55t-31 79t-9.5 92.5z" />
<glyph unicode="Z" horiz-adv-x="776" d="M37 152q63 98 150 224t186.5 252t209 238.5t218.5 186.5q-49 -5 -107 -5h-19h-31q-52 0 -104 -2q-66 -4 -124 -15t-94 -40q-20 41 -28.5 90t-10.5 95q25 -16 172 -23t428 -20q12 14 29.5 30.5t43.5 32.5q27 -29 39.5 -64.5t14.5 -93.5q-117 -45 -231.5 -134t-222 -204.5 t-201 -251t-167.5 -272.5q12 12 35 22.5t45.5 16.5t42 9t25.5 3q102 0 181 -49t140.5 -127t106.5 -176t81 -197.5t64.5 -188.5t55.5 -151q-76 158 -153 300.5t-155.5 250t-161.5 171t-171 63.5q-31 0 -65 -13.5t-66.5 -34t-63 -44.5t-55.5 -47q-37 88 -37 168z" />
<glyph unicode="[" horiz-adv-x="653" d="M29 -141q27 166 65.5 347t73.5 368.5t62.5 376t33.5 370.5l55 41q55 -10 117 -13t116 -7.5t94 -12.5t54 -26q-16 4 -34.5 6t-36.5 2q-72 0 -129.5 -11.5t-134.5 -11.5q-16 -133 -41 -306t-55.5 -356.5t-65.5 -358.5t-72 -310q31 -16 61.5 -34.5t64.5 -35t71 -27t82 -10.5 q16 0 36.5 1.5t38.5 5.5q-16 -18 -40.5 -29.5t-45.5 -11.5q-49 0 -92 7t-84 15t-81 15.5t-79 7.5q-27 0 -34 -2z" />
<glyph unicode="\" horiz-adv-x="581" d="M227 1186q0 43 10.5 74.5t26 52t30.5 30t28 9.5q29 0 53 -33q-41 -4 -50.5 -28.5t-9.5 -76.5q0 -109 27 -263t59.5 -319t59 -325t26.5 -280q0 -80 -17 -142t-46 -78q2 12 3 20.5t1 14.5q0 20 -2 38t-4 40q-4 47 -20.5 141.5t-38 213t-46 251.5t-44 259t-33 231.5 t-13.5 169.5z" />
<glyph unicode="]" horiz-adv-x="653" d="M29 -125q16 -4 36.5 -6t36.5 -2q35 0 67 4t62.5 8t63.5 8t70 4q18 131 43.5 304.5t55.5 356.5t64.5 358t71.5 311q-33 16 -63.5 34.5t-63.5 35t-69.5 26.5t-81.5 10q-16 0 -37 -1t-37 -5q14 18 37.5 29.5t44.5 11.5q49 0 93 -7t85 -15.5t81 -15.5t81 -7q23 0 30 2 q-27 -166 -64.5 -347t-73.5 -368.5t-62.5 -376t-30.5 -370.5l-55 -41q-57 10 -120 13t-116 7t-94 12.5t-55 26.5z" />
<glyph unicode="^" d="M131 489q33 20 75 57.5t82 83.5t74.5 99t53.5 107q47 129 72.5 258t39.5 239q23 -4 58 -13t49 -15q6 -84 9 -187.5t9 -206t14.5 -194.5t24.5 -154q-33 27 -55.5 70t-37.5 95t-22.5 110.5t-7.5 117.5q4 29 3 55.5t6 55.5q-23 -94 -57 -190.5t-86 -177.5t-125.5 -138 t-178.5 -72z" />
<glyph unicode="_" horiz-adv-x="1226" d="M-14 -43q0 8 4 10q14 -12 51 -20t80 -8h172q59 0 135 2t151.5 4t143.5 4t111 2q147 0 237 -8.5t121 -42.5q-47 -4 -135 -10.5t-190.5 -11.5t-211 -10t-198.5 -10t-150.5 -7.5t-68.5 -2.5q-141 0 -196.5 27t-55.5 82z" />
<glyph unicode="`" horiz-adv-x="327" d="M158 1063q80 0 132 -58.5t97 -168.5q-68 0 -107.5 26.5t-62 63.5t-34 75.5t-25.5 61.5z" />
<glyph unicode="a" d="M70 154q0 92 45 184t115.5 173t156.5 144.5t168 96.5q55 -12 103.5 -43t60.5 -72q-27 -43 -58.5 -104.5t-58.5 -127t-45 -127t-18 -104.5q0 -35 9 -68.5t28.5 -61.5t48 -44t65.5 -16q-6 -16 -30.5 -22.5t-38.5 -6.5q-96 0 -133 49t-37 121q0 20 1 38.5t7 41.5 q-4 0 -27.5 -35t-61.5 -78t-85 -77.5t-99 -34.5q-31 0 -53 16t-35.5 43t-20.5 56.5t-7 58.5zM125 63q0 -24 29 -24h2q39 0 93 43t108.5 103.5t99.5 124t63 106.5q12 27 23.5 59.5t20.5 65t17.5 63t12.5 53.5q-74 -35 -156 -99t-151.5 -145t-115.5 -172t-46 -178z" />
<glyph unicode="b" horiz-adv-x="727" d="M39 18q12 -6 32.5 -8t61.5 -2q59 0 144 55.5t164 143.5t134.5 194.5t55.5 208.5q0 31 -9.5 49.5t-20.5 29.5t-22.5 15.5t-13.5 4.5q-80 -6 -140 -42t-103 -89q-37 -47 -74 -190.5t-94 -348.5q-70 25 -82 94q10 37 32.5 118t49 190.5t55.5 239.5t53.5 264t42 264t21.5 241 q23 -23 31 -82t8 -139q0 -88 -8.5 -189.5t-17.5 -189.5t-18.5 -148.5t-11.5 -66.5q33 39 68 64.5t67.5 40t59 19.5t43.5 5q100 0 143 -56.5t43 -148.5q0 -68 -35.5 -167t-106.5 -193.5t-177.5 -161t-247.5 -66.5q-39 0 -61.5 2t-36 7.5t-19.5 14.5t-10 23z" />
<glyph unicode="c" horiz-adv-x="643" d="M61 256q0 80 33 167t88.5 159.5t129 120t157.5 47.5q100 0 150.5 -41t50.5 -84q0 -63 -60 -76q0 25 -11 47t-29.5 39.5t-39 27t-38.5 9.5q-63 0 -121 -50.5t-101 -126t-68.5 -162.5t-25.5 -161q0 -55 16.5 -99t65.5 -44q55 0 108.5 21.5t100.5 54t88 72.5t72 79 q-10 -43 -50 -91t-94.5 -88t-116 -66.5t-116.5 -26.5q-51 0 -87 23.5t-58.5 62.5t-33 88t-10.5 98z" />
<glyph unicode="d" horiz-adv-x="643" d="M39 135q0 53 13.5 109.5t38 111t56 105.5t68.5 94q8 12 37 43t63.5 63.5t71.5 60.5t64 36q27 0 60.5 -7.5t51.5 -13.5q8 33 24.5 88.5t36 122t40 137t40 134t35 114.5t25.5 80q20 12 49 23.5t55 17.5q-14 -55 -38.5 -144t-55.5 -194.5t-63.5 -219.5t-60 -218.5 t-49 -192.5t-28.5 -141q-8 -51 -16 -109.5t-8 -109.5q0 -53 11 -86t40 -33q35 0 54.5 12.5t33.5 26.5q-6 -29 -39 -54.5t-76 -25.5q-59 0 -85.5 49t-26.5 142q0 23 2 46t6 52q-20 -37 -51 -83t-68 -86t-78 -68.5t-79 -32.5q-78 14 -116 54t-38 97zM125 115q0 -23 9 -41.5 t36 -18.5t61.5 31t68.5 74t64.5 91t49.5 83q18 31 41.5 81t46 101t38 96t15.5 70q0 10 -12 10q-33 0 -67 -17.5t-66.5 -45t-62 -62t-54.5 -71.5q-31 -39 -60.5 -86.5t-53 -97.5t-39 -101t-15.5 -96z" />
<glyph unicode="e" horiz-adv-x="708" d="M63 215q0 96 49.5 198.5t141.5 202.5q45 49 90 86t96 50q39 0 80 -8.5t75 -27t58.5 -47t30.5 -69.5q-12 -49 -50 -104.5t-90 -102.5t-114.5 -77.5t-122.5 -30.5q-35 0 -62.5 11t-41.5 28q-4 -4 -12.5 -20.5t-15.5 -40t-13 -51.5t-6 -54q0 -63 42 -89t95 -26 q45 0 115.5 27.5t143.5 77t136 116t96 142.5q-23 -104 -79 -185.5t-126.5 -135.5t-145.5 -82t-132 -28q-68 0 -113 20.5t-72.5 54.5t-40 77t-12.5 88zM221 371q6 -10 26.5 -16.5t33.5 -6.5q20 0 70 18.5t103.5 51.5t94.5 80t41 102q0 27 -25.5 53.5t-48.5 28.5 q-41 -4 -87 -43t-88 -89t-75 -101.5t-45 -77.5z" />
<glyph unicode="f" horiz-adv-x="497" d="M-2 573q0 31 20 48q12 -35 59.5 -43.5t96.5 -8.5q4 53 20.5 139.5t43 182.5t63.5 193.5t86 175t109.5 127t132.5 49.5q88 0 137 -52.5t49 -156.5t-39 -196.5t-107.5 -168.5t-160.5 -135t-197 -100l-8 -60q49 -12 128 -23.5t200 -31.5q-41 -4 -73 -6t-62 -2q-53 0 -96.5 5 t-96.5 15q-6 -27 -12 -87t-13.5 -139t-14.5 -168t-15 -175t-15.5 -160t-13.5 -121q-6 -41 -33.5 -109.5t-83.5 -137.5q-4 18 -4 37.5v41.5q0 117 7.5 274t18.5 308.5t22.5 271t19.5 162.5q-53 2 -86 6t-51.5 10.5t-24.5 15.5t-6 19zM315 655q84 33 162 85.5t138.5 123 t97.5 159.5t37 196q0 27 -4.5 55.5t-14.5 52t-28.5 37.5t-49.5 14q-61 0 -107 -40t-80 -104.5t-57.5 -144t-41 -159.5t-30 -153t-22.5 -122z" />
<glyph unicode="g" horiz-adv-x="671" d="M-90 -424q0 51 22.5 94t75.5 66q-14 -33 -20 -71t-6 -75q0 -41 38.5 -72.5t137.5 -31.5q51 0 108.5 21.5t112.5 76.5q41 41 65.5 85t41 110.5t29 164t30.5 244.5q-25 -33 -58.5 -67.5t-72.5 -64t-82 -48t-86 -18.5q-92 0 -144.5 51t-52.5 137q0 82 35 171t98.5 169 t151.5 140.5t194 82.5l70 -12t57 -16q2 -33 2 -67v-71q0 -92 -6 -196.5t-15 -206.5t-19.5 -198.5t-22.5 -174.5q-16 -98 -49 -169.5t-90.5 -119t-140.5 -71t-197 -23.5q-31 0 -68 11.5t-67.5 32t-51 50t-20.5 66.5zM123 150q0 -16 3 -37t12 -38.5t24.5 -29.5t42.5 -12 q37 0 101.5 40t119.5 99q49 51 76.5 93t40 85t15.5 91t3 114q0 41 -6.5 73t-22.5 44q-25 0 -64.5 -25.5t-85.5 -66.5t-92 -95.5t-83 -113t-60.5 -115.5t-23.5 -106z" />
<glyph unicode="h" horiz-adv-x="696" d="M35 39q2 10 11 54t20.5 103.5t24.5 129t25.5 131t23 108.5t14.5 64q33 162 71.5 309t73.5 268t61.5 207t36.5 127q55 -29 56 -104q0 -8 -1 -19.5t-1 -21.5q-20 -119 -48 -223.5t-59 -212t-60.5 -224.5t-54.5 -260q27 59 69 110.5t87 88.5t88 57.5t72 20.5 q41 0 69.5 -15.5t47 -41t27.5 -58.5t9 -68q0 -66 -15 -128t-33.5 -117.5t-35 -100.5t-18.5 -76q-10 -47 -10 -84q0 -35 7 -54t25 -19q23 0 39 10t45 45q-23 -59 -53.5 -78.5t-58.5 -19.5q-16 0 -37 6t-37 21.5t-27.5 43t-11.5 72.5q0 29 8 64q14 102 28.5 178t27 131 t19.5 94t7 68q0 39 -28 39q-43 0 -88 -42t-87 -109t-79 -146.5t-67 -155.5t-50.5 -138.5t-28.5 -90.5q-29 8 -58.5 21t-45.5 36z" />
<glyph unicode="i" horiz-adv-x="352" d="M61 186q0 68 19.5 144t49.5 150.5t68 145t74 126.5q61 -10 88 -45q-49 -92 -82.5 -180.5t-54 -165t-29 -139t-8.5 -103.5q0 -35 5.5 -57.5t19.5 -22.5q27 0 53.5 21.5t50 53t42 68.5t30.5 66q2 -6 2 -29q0 -31 -14.5 -68.5t-40 -72.5t-60 -63.5t-77.5 -43.5 q-35 0 -59.5 17.5t-42 47.5t-26 68.5t-8.5 81.5zM317 1053q0 45 10.5 89t22.5 82t24.5 69.5t18.5 49.5q43 0 68.5 -31.5t25.5 -66.5q0 -37 -15 -76t-34.5 -79.5t-40 -80.5t-32.5 -79q-29 8 -38.5 43t-9.5 80z" />
<glyph unicode="j" horiz-adv-x="292" d="M-213 -434q0 53 18 100t41 74q-4 -23 -4 -42.5v-35.5q0 -72 20.5 -118t67.5 -46q68 0 108 35t61.5 85t28.5 106.5t7 97.5q0 59 -4 126.5t-10 137.5t-10.5 135.5t-4.5 122.5q0 31 3.5 78t12.5 102.5t26.5 112.5t44.5 108q57 0 100 -38q-14 -47 -25.5 -108.5t-19.5 -125 t-13.5 -125t-5.5 -110.5q0 -117 9.5 -223.5t9.5 -227.5q0 -76 -8.5 -154.5t-53.5 -130.5q-35 -41 -79 -64.5t-93 -23.5q-39 0 -78.5 9.5t-72.5 28t-54.5 47t-21.5 67.5zM260 1053q0 47 10.5 92t23.5 83t26.5 67.5t17.5 47.5q43 0 66.5 -31.5t23.5 -66.5q0 -39 -14.5 -79 t-34 -81t-40 -79.5t-30.5 -75.5q-29 8 -39 43t-10 80z" />
<glyph unicode="k" horiz-adv-x="610" d="M27 -45q4 23 18 99.5t32.5 182t39 225.5t40 229.5t35 195.5t23.5 123q27 176 46.5 313t19.5 215q53 0 75.5 -60.5t22.5 -164.5q0 -115 -19.5 -255t-46 -279.5t-52 -265.5t-40.5 -212q72 45 137.5 110.5t117.5 137.5t85 142.5t41 129.5q51 -57 51 -129q0 -59 -33.5 -120.5 t-82 -117t-101.5 -100.5t-94 -71q55 -8 93 -49t72 -87.5t70.5 -83t88.5 -36.5q40 0 69 10q-43 -35 -80 -50.5t-65 -15.5q-45 0 -82 28t-76 64.5t-85 74.5t-107 59q-16 0 -24.5 -5.5t-22.5 -15.5q-10 -35 -24.5 -68.5t-35 -64.5t-47.5 -54.5t-59 -33.5z" />
<glyph unicode="l" horiz-adv-x="309" d="M86 123q0 47 7 103.5t20 131.5q25 156 68.5 314.5t90.5 311.5t90.5 294t61.5 262q35 -76 35 -174q0 -29 -4 -58.5t-4 -60.5q-6 -27 -21.5 -84t-35 -132t-43 -160t-45 -166.5t-39 -154.5t-25.5 -122q-4 -27 -11.5 -71t-13.5 -94t-10 -99t-4 -86q0 -70 18 -70 q16 0 34.5 12.5t35 31t31 37t22.5 30.5q-8 -70 -51 -112t-90 -42q-68 0 -92.5 40t-24.5 118z" />
<glyph unicode="m" horiz-adv-x="886" d="M8 6q10 61 34 141t49.5 168t50 179.5t34.5 177.5q4 16 6 31.5t2 31.5q0 41 -14 73t-49 48q55 -6 92 -37t37 -112q0 -35 -6 -77t-23 -89q29 41 56.5 78.5t56 66.5t59.5 46.5t68 17.5q72 0 89 -34t17 -85q31 49 71 80.5t89 31.5q43 0 70.5 -20.5t45 -56t24.5 -83.5t7 -102 q0 -72 -10 -148.5t-23.5 -152.5t-30 -147.5t-28.5 -132.5q-23 8 -42 16t-40 25q12 66 24.5 137.5t23 142t17.5 138t7 126.5q0 72 -12 131.5t-35 73.5q-86 -49 -128 -132t-69 -175q-16 -47 -44.5 -135t-75.5 -221q-45 4 -93 41q27 72 55.5 152.5t50 158.5t36 147.5 t14.5 116.5q0 23 -2 38t-12 26q-96 -61 -155.5 -155.5t-97.5 -201t-61.5 -214t-48.5 -195.5q-43 16 -86 65z" />
<glyph unicode="n" horiz-adv-x="616" d="M39 -14q12 59 31.5 142t38 173t31 178t12.5 158q0 61 -15.5 108.5t-56.5 79.5q90 -10 123 -63t33 -123q0 -55 -17 -117q20 47 43 87t53.5 70t69.5 47t94 17q37 0 61.5 -17t39 -47t19.5 -71t5 -86q0 -68 -6 -140.5t-20.5 -144t-38 -138t-58.5 -119.5q-25 8 -51.5 29.5 t-36.5 41.5q23 76 42.5 154t33.5 155q0 10 3 38t6 63t6 74.5t3 76.5t-4 62.5t-14 25.5q-33 0 -63.5 -27.5t-55 -65.5t-43 -76.5t-24.5 -61.5q-53 -129 -81 -266t-52 -266q-29 6 -61 18t-50 31z" />
<glyph unicode="o" horiz-adv-x="761" d="M51 223q0 39 14.5 94.5t40 116t62.5 118.5t81 104t94 75t106 29q68 0 123 -24.5t95 -66.5t62.5 -98.5t22.5 -119.5q0 -86 -39 -171t-102.5 -153t-144.5 -111t-165 -43q-123 0 -186.5 70t-63.5 180zM131 182q0 -51 24.5 -87t92.5 -36q82 0 155.5 39t129 100.5t88 136.5 t32.5 146q0 37 -8 72t-25.5 60.5t-46 42t-69.5 16.5q-59 0 -125 -54.5t-121 -131t-91 -160.5t-36 -144z" />
<glyph unicode="p" horiz-adv-x="634" d="M-37 -498q0 23 2 29l64 432q14 100 29.5 199.5t27.5 188.5t20.5 164t8.5 124v35t-2 26q33 -23 54 -77t21 -103q45 88 105.5 144.5t167.5 78.5q51 0 84 -24.5t50 -61t23.5 -78.5t6.5 -75q0 -55 -10.5 -113.5t-28 -113t-41 -101.5t-47.5 -80q-41 -53 -101.5 -82.5 t-148.5 -29.5q-29 0 -55.5 5t-53.5 19q-27 -178 -48 -331.5t-48 -294.5q-43 16 -61.5 47.5t-18.5 72.5zM158 68q100 12 177 57t127 111.5t75.5 148.5t25.5 170q0 41 -15.5 76t-60.5 35q-51 0 -100 -32t-90 -77t-69.5 -94t-34.5 -84q-8 -78 -21.5 -156t-13.5 -155z" />
<glyph unicode="q" horiz-adv-x="610" d="M29 160q0 125 53 233.5t132 188.5t171 125t172 45q47 0 73.5 -15.5t43.5 -36.5q-33 16 -80 17q-86 0 -173 -57.5t-156.5 -144.5t-114 -188.5t-44.5 -187.5q0 -29 10.5 -56.5t39.5 -27.5q33 0 71.5 27t73.5 61q131 137 193.5 261t91.5 253q23 0 48 -4t36 -18 q-72 -217 -142.5 -455.5t-105.5 -474.5q-6 -43 -12.5 -93t-6.5 -91q0 -57 13 -58q12 0 22.5 19.5t14.5 42.5q4 -6 4 -33q0 -29 -15.5 -53.5t-44.5 -24.5q-41 0 -57 41t-16 103q0 70 10 150.5t26.5 164.5t40 169t50.5 165q-27 -39 -61 -76t-71.5 -66.5t-77.5 -47t-79 -17.5 q-12 0 -35 6t-44.5 23.5t-37.5 49.5t-16 81z" />
<glyph unicode="r" horiz-adv-x="442" d="M49 88q0 70 10.5 148.5t25.5 161.5t34 166t37 159q23 -16 30 -53t7 -78q0 -25 -1.5 -44.5t-5.5 -35.5q31 57 74 106.5t94.5 86t109.5 58t120 21.5q33 0 69 -6q-129 -31 -220 -110.5t-151.5 -187t-95 -230.5t-53.5 -240q-2 -14 -4 -25.5t-2 -19.5q0 -20 8 -28 q-6 -6 -18 -7q-41 0 -54.5 48.5t-13.5 109.5z" />
<glyph unicode="s" horiz-adv-x="452" d="M-88 -70q0 49 51 64q-6 -4 -9 -14.5t-3 -18.5t6 -14t27 -6q29 0 70.5 10t87.5 25.5t93.5 35t83.5 37.5q-31 20 -71.5 55t-77.5 80t-62.5 99.5t-25.5 113.5q0 53 29.5 113.5t77 113t107.5 87t122 34.5q84 0 114.5 -25.5t30.5 -47.5v-6q-18 6 -33 6q-55 0 -121.5 -24.5 t-124 -67.5t-96 -100.5t-38.5 -121.5q0 -37 34.5 -85t81.5 -96t97.5 -93t80.5 -76q-41 -31 -98 -58.5t-120.5 -48t-123 -32.5t-102.5 -12q-41 0 -64.5 22.5t-23.5 50.5z" />
<glyph unicode="t" horiz-adv-x="452" d="M-53 778q20 -6 50 -13t61.5 -11t61.5 -7.5t48 -3.5q74 154 129 290t84 265q27 -53 27 -110q0 -59 -15.5 -121.5t-37 -122t-42 -112t-32.5 -89.5q33 0 80 5.5t100 5.5q47 0 89 -8.5t71 -36.5q-92 -4 -183.5 -24.5t-181.5 -31.5q-10 -53 -27.5 -103t-34 -103.5t-27.5 -113 t-11 -130.5q0 -66 17 -113t54 -47q20 0 51 40t60 95t49.5 115.5t20.5 103.5q0 20 -1.5 37t-7.5 35q25 -14 35 -44t10 -73q0 -16 -2 -34.5t-6 -41.5q-6 -37 -28.5 -89t-56.5 -100t-79 -82t-94 -34q-80 0 -111.5 49.5t-31.5 122.5q0 74 10 140.5t27.5 129t37 123t37.5 121.5 q-31 2 -66.5 10.5t-65 23t-49 36t-19.5 51.5z" />
<glyph unicode="u" horiz-adv-x="550" d="M45 178q0 29 13.5 99.5t39 157.5t65.5 176t95 153q12 -14 19.5 -30.5t11.5 -41.5q-23 -59 -45.5 -126.5t-43 -139.5t-32.5 -144.5t-12 -140.5q0 -41 14 -78.5t57 -48.5q70 59 114 149.5t69.5 188t39 190.5t19.5 158q16 6 33.5 7.5t38.5 1.5h21t20 -2q-12 -61 -24.5 -135 t-23 -150t-17.5 -149.5t-7 -137.5q0 -66 15.5 -122t68.5 -85q-29 -14 -53 -14q-31 0 -54.5 21.5t-40 52t-25.5 65.5t-13 64q-12 -23 -36 -48.5t-52.5 -46t-61.5 -34t-61 -13.5q-43 0 -72 17.5t-47.5 45.5t-25.5 64.5t-7 75.5z" />
<glyph unicode="v" horiz-adv-x="425" d="M63 731q33 -29 55.5 -71t38 -94t22.5 -110.5t7 -117.5q-4 -29 -3 -55.5t-5 -55.5q23 94 56.5 190.5t86 177.5t126 138.5t178.5 71.5q-33 -20 -75 -57t-82 -83.5t-75 -99.5t-53 -106q-47 -129 -73 -258t-40 -240q-23 4 -57.5 13.5t-48.5 15.5q-6 82 -9 186.5t-9.5 206.5 t-15.5 194.5t-24 153.5z" />
<glyph unicode="w" horiz-adv-x="905" d="M55 231q0 123 45 259.5t138 246.5q2 0 20 -8t23 -14q-23 -55 -46.5 -122t-42 -140.5t-30.5 -149.5t-12 -147q0 -55 8 -93t35 -38q25 0 54 25.5t60 65.5t59.5 88t51.5 95q10 63 28.5 126.5t40.5 129.5q25 -10 31 -34.5t6 -59.5q0 -53 -7 -119t-7 -131q0 -31 5 -65.5 t16.5 -65.5t26.5 -51.5t38 -20.5q45 0 79 43t55.5 101.5t31.5 117t10 88.5q0 129 -69.5 236.5t-186.5 165.5q23 8 43.5 13t42.5 5q82 0 138.5 -34.5t90 -89t48 -122t14.5 -135.5q0 -43 -13.5 -116.5t-45 -145.5t-85 -125t-135.5 -53q-49 0 -87 20.5t-63.5 55.5t-37.5 79 t-12 91q-20 -37 -46 -77t-55.5 -75t-62.5 -57.5t-64 -22.5q-35 0 -59.5 24.5t-39.5 62.5t-23.5 84t-8.5 89z" />
<glyph unicode="x" horiz-adv-x="561" d="M-70 -53q0 70 54.5 161t146.5 195q-6 49 -7 106.5t-1 104.5q0 41 2 81t2 75v23.5t-2 25.5q45 -8 56.5 -49t11.5 -103v-108t4 -84q49 61 112.5 122.5t128 115t127 98.5t109.5 73q10 -18 10 -41q0 -29 -16.5 -57.5t-43 -56t-60.5 -55t-66 -52.5q-63 -47 -132 -109.5 t-139 -136.5q12 -23 32 -66.5t46.5 -88.5t57 -79t63.5 -34q14 0 26.5 12.5t19.5 31t11 38t4 33.5q16 -33 17 -62q0 -27 -16.5 -54t-59.5 -27q-39 0 -81 18t-80 49t-67.5 72t-41.5 84q-90 -92 -133 -157.5t-54 -113.5q0 -4 1 -8t1 -10q14 0 36 16.5t36 16.5 q-6 -16 -27.5 -31.5t-31.5 -15.5q-55 0 -56 47z" />
<glyph unicode="y" horiz-adv-x="540" d="M2 86q0 78 39 166t88 177t96 174t64 157q23 -72 22 -131q0 -84 -34.5 -155t-75.5 -136.5t-76 -130t-35 -137.5q0 -16 8 -28.5t17 -12.5q10 0 40.5 26.5t64.5 61.5t63.5 69.5t42.5 51.5q25 66 55.5 146.5t62 159.5t60 148.5t51.5 112.5h41q18 0 32.5 -1t26.5 -3 q-59 -150 -120.5 -309.5t-112.5 -318.5t-88 -310.5t-49 -284.5q0 -18 10 -18t26.5 19.5t34 49t35 62.5t27.5 59q-4 -35 -17.5 -79t-33 -83t-42 -66.5t-42.5 -27.5q-47 0 -66.5 33t-19.5 82q0 47 8 111.5t22.5 133t36 139t47.5 130.5q-16 -23 -39.5 -52.5t-50 -55t-56.5 -43 t-56 -17.5q-57 0 -82 37t-25 94z" />
<glyph unicode="z" horiz-adv-x="671" d="M-16 127q0 61 41 114.5t103 98.5t136 82t139.5 69.5t111.5 59.5t54 51q-4 12 -22.5 23.5t-46 18.5t-60 12.5t-63.5 5.5q-55 0 -107.5 -7.5t-107.5 -23.5q-8 14 -14.5 33.5t-6.5 42.5q0 18 2 24q18 6 46 10t59 8.5t61.5 6.5t55.5 2q55 0 104 -15.5t87 -39t60.5 -52 t22.5 -57.5q0 -23 -15.5 -46.5t-39 -47t-51 -46t-54.5 -38.5q-45 -29 -104.5 -61.5t-114.5 -69.5t-100 -78t-62 -90q0 -12 39 -17.5t109 -5.5q68 0 145.5 4t149 10.5t127 13.5t75.5 13q-27 -35 -89 -61.5t-136 -45t-149.5 -28.5t-130.5 -10q-43 0 -88.5 5t-82 20.5t-60 42 t-23.5 69.5z" />
<glyph unicode="{" horiz-adv-x="679" d="M115 -74q0 61 23.5 107.5t59 84.5t77.5 71.5t78 70.5t59.5 81t23.5 101q0 29 -13 59.5t-28 43.5q-59 2 -126.5 36.5t-121.5 75.5q35 31 64 43.5t55 12.5q27 0 50.5 -14.5t51 -33t62.5 -33t86 -14.5q23 0 41 19.5t18 54.5q0 43 -31.5 89t-70.5 97.5t-70.5 104.5t-31.5 113 q0 55 32.5 109.5t84 97.5t116 70.5t127.5 27.5q23 0 44.5 -5t41.5 -5q-4 -16 -30.5 -38t-43.5 -36q-14 4 -36.5 8t-75.5 4q-29 0 -58.5 -15.5t-55 -43t-42 -63.5t-16.5 -74q0 -61 31.5 -110.5t69.5 -94.5t70 -89t32 -94q0 -43 -19.5 -76.5t-46.5 -57t-52.5 -38t-37.5 -18.5 q18 -29 18 -68q0 -92 -47 -165.5t-103.5 -134t-103.5 -110.5t-47 -95q0 -20 17.5 -49t48 -56t72.5 -45t92 -18q23 0 39 14t27 35.5t17.5 49.5t6.5 52v10q35 -39 35 -84q0 -29 -12.5 -56.5t-34 -52t-48 -44t-57.5 -27.5q-47 0 -101.5 11.5t-101.5 37t-77.5 66.5t-30.5 100z " />
<glyph unicode="|" horiz-adv-x="360" d="M121 -104q4 68 17.5 187.5t30.5 260.5t35.5 288.5t35 270.5t28 206t13.5 95q14 102 31.5 173t38 116t46 65.5t60.5 22.5q-16 -29 -35 -82t-27 -113q-41 -295 -69.5 -518t-50 -383.5t-39 -262t-33.5 -150.5q-23 -61 -41 -104t-41 -72z" />
<glyph unicode="}" horiz-adv-x="679" d="M20 -147q0 72 70 129q-12 -23 -15 -44.5t-3 -41.5q0 -35 12 -56.5t41 -21.5q57 0 110.5 22.5t92.5 53t62.5 62.5t23.5 52q0 39 -23.5 81t-53.5 91t-53.5 106.5t-23.5 127.5q0 37 10.5 77.5t38.5 67.5q-10 4 -27.5 14.5t-34 27.5t-28.5 42t-12 57q0 66 53 121.5 t117.5 110.5t118 117.5t53.5 144.5q0 61 -36 101t-85 40q-53 0 -75.5 -5t-37.5 -11q-16 16 -33.5 36.5t-17.5 35.5q18 6 42 11t46 5q51 0 100.5 -21.5t88.5 -56.5t61.5 -80t22.5 -94t-26 -94t-63.5 -87t-82.5 -83t-83 -79t-63.5 -74t-25.5 -68q0 -45 38 -45q49 0 88 14 t72 31.5t61.5 32t55.5 14.5t51.5 -12.5t52.5 -40.5q-68 -45 -145.5 -79t-138.5 -36q-18 -12 -33.5 -32.5t-27 -42t-16.5 -43t-5 -36.5q0 -61 27.5 -107t61.5 -89t61.5 -89.5t27.5 -107.5q0 -78 -40 -132t-99.5 -89t-127 -50.5t-122.5 -15.5q-47 16 -75 53t-28 85z" />
<glyph unicode="~" horiz-adv-x="700" d="M113 537q31 0 53 18t44.5 42t50.5 42t67 18q61 0 96 -18t54.5 -41t27.5 -41t18 -18q8 0 17.5 1t23 9t30.5 24t42 45q2 -8 6 -25.5t4 -35.5q0 -20 -10 -35.5t-24.5 -27t-28 -17.5t-19.5 -6q-37 0 -64.5 21.5t-49 47t-36 47t-20.5 21.5q-25 0 -52.5 -18.5t-56 -42t-57 -42 t-55.5 -18.5q-51 0 -61 50z" />
<glyph unicode="&#xa1;" horiz-adv-x="301" d="M78 27q0 45 24.5 100t55 119.5t55.5 137.5t25 157q0 35 -7.5 57.5t-27.5 22.5q-31 0 -69 -19.5t-52 -32.5q6 35 46 52.5t91 17.5q78 0 103.5 -40t25.5 -93q0 -76 -27.5 -153t-64.5 -151.5t-72 -146t-49 -139.5q-35 27 -46 53.5t-11 57.5zM229 924q0 33 13.5 65.5t32 65 t37 67.5t30.5 72q51 -25 51 -107q0 -41 -10 -79.5t-23.5 -72.5t-24.5 -61t-13 -43q-47 0 -70 29t-23 64z" />
<glyph unicode="&#xa2;" horiz-adv-x="643" d="M115 545q0 51 22.5 102t63.5 96t98 78t127 45q16 63 26.5 110.5t15.5 84.5t7 66.5t2 60.5q35 -29 35 -111q0 -37 -5 -81t-15 -85l-5 -43q86 -4 131.5 -29.5t45.5 -54.5q0 -20 -10.5 -32.5t-39.5 -18.5q0 18 -12 33.5t-29.5 27t-37 17.5t-33.5 6q-25 0 -27 -2 q-23 -109 -46 -214t-48 -210q80 18 147.5 62.5t110.5 78.5q-6 -23 -31.5 -48t-62.5 -49.5t-81 -45t-89 -29.5q-10 -45 -19.5 -100t-16.5 -109.5t-11 -103.5t-4 -80v-26q-23 6 -33 34.5t-10 96.5q0 47 5 114.5t21 165.5q-53 0 -89 17.5t-59.5 45t-33.5 62.5t-10 68zM223 492 q0 -41 17.5 -75t70.5 -34q23 98 48.5 202.5t48.5 205.5q-41 -23 -75 -56t-58.5 -72.5t-38 -83.5t-13.5 -87z" />
<glyph unicode="&#xa3;" horiz-adv-x="948" d="M-53 -6q39 113 115.5 173t156.5 60q20 0 44 -5t38 -11q12 18 28.5 45t33 57.5t30 61.5t21.5 57q-29 0 -59.5 -1t-53.5 -7q-12 -4 -24.5 -3t-28 -1t-32.5 -8t-38 -23q-6 14 -6 27q0 20 7 35.5t35 28t84 22.5t153 20q20 39 41.5 96.5t52 137.5t77 184t115.5 238q20 8 40 13 t40 5q43 -4 74 -31.5t50.5 -68.5t28.5 -91.5t9 -101.5q0 -119 -44 -222t-134 -149q47 49 75.5 133.5t28.5 182.5q0 86 -28.5 162.5t-92.5 105.5q-51 -84 -83.5 -157.5t-59.5 -144.5t-54.5 -141.5t-66.5 -148.5q33 0 54.5 2t39.5 2q29 0 45.5 -9t30.5 -48q-20 0 -49 -3 t-57.5 -7t-53 -7t-36.5 -3q-23 -66 -57 -132.5t-75 -134.5q63 -27 101.5 -57.5t71 -57t68.5 -44t93 -17.5q41 0 85 4t71 33q6 -12 6 -18q0 -41 -32.5 -69t-123.5 -28q-68 0 -127 27t-108 59.5t-87 62.5t-63 38q-10 -10 -38.5 -30.5t-74.5 -41t-110.5 -36t-146.5 -15.5z M25 72q31 6 63.5 16t62 21.5t51 21.5t27.5 16q-10 6 -26.5 10.5t-42.5 4.5q-41 0 -78 -26.5t-57 -63.5z" />
<glyph unicode="&#xa4;" horiz-adv-x="813" d="M20 254q55 14 105.5 39.5t97.5 60.5q-25 39 -24 95q0 47 29.5 118.5t82.5 134.5q-29 53 -49 107.5t-20 108.5q0 16 4 31.5t8 31.5q37 -117 106 -229q33 29 71 46t79 17q47 0 88 -15.5t72 -39.5q59 59 100 118.5t51 106.5q12 -10 20.5 -23.5t8.5 -29.5q0 -53 -38 -112.5 t-91 -121.5q25 -43 24 -94q0 -61 -34.5 -122.5t-87.5 -108.5q39 -53 79.5 -99.5t88.5 -85.5q-68 16 -122.5 55.5t-99.5 88.5q-41 -25 -86 -39t-90 -14q-47 0 -76 10q-51 -47 -101 -80t-103 -33q-41 0 -62.5 21.5t-30.5 56.5zM270 428q0 -33 19.5 -56.5t68.5 -23.5 q61 0 115.5 25.5t95.5 65.5t64.5 88.5t23.5 93.5q0 47 -24.5 84.5t-83.5 37.5q-43 0 -92 -34.5t-91 -84t-69 -103.5t-27 -93z" />
<glyph unicode="&#xa5;" horiz-adv-x="952" d="M106 414q23 0 61 -1t80 -4t83 -7.5t69 -8.5q0 104 -14 218t-43 222.5t-73 205t-101 163.5q92 -49 153.5 -116.5t97.5 -148.5t51 -175t15 -199v-47t-4 -47q111 223 232 403.5t278 331.5q35 35 66 35q49 0 49 -53v-8q0 -8 -1 -17.5t-7 -9.5q-18 0 -56 -39t-89.5 -101.5 t-109 -144.5t-114.5 -167t-108.5 -167.5t-88.5 -150.5q43 -20 87.5 -27.5t99.5 -29.5q-25 -6 -66 -7q-37 0 -74.5 3.5t-66.5 3.5q-2 -4 -8 -15.5t-12.5 -25t-11.5 -25.5t-5 -18q47 -10 111.5 -15.5t146.5 -5.5q-59 -35 -105 -43t-106 -8h-30.5t-34.5 2q-16 -31 -26.5 -72 t-16.5 -84t-8.5 -84t-2.5 -71q-43 14 -58 51t-15 84q0 45 8 92t20 88q-39 -16 -77 -16q-49 0 -84 18.5t-35 52.5q0 8 4 11q35 -2 86 -5.5t92 -3.5q23 0 35 20.5t20 74.5l-2 14q-35 4 -82 4t-91 5t-77.5 18.5t-40.5 46.5z" />
<glyph unicode="&#xa6;" horiz-adv-x="360" d="M121 -104q14 96 20 178t11.5 158.5t13.5 152.5t29 160q12 53 45.5 89t56.5 36q-10 -29 -18.5 -102.5t-19.5 -163t-24.5 -180.5t-31.5 -152q-20 -61 -39.5 -104t-42.5 -72zM213 836q14 53 22.5 92t14.5 79t12 86t19 111q18 102 35.5 173t38 115t44 65.5t58.5 23.5 q-16 -29 -33.5 -77t-28.5 -118q-12 -90 -25.5 -190t-27.5 -186q-10 -53 -43 -102t-86 -72z" />
<glyph unicode="&#xa7;" horiz-adv-x="782" d="M59 88q0 12 5.5 31.5t25.5 42.5q4 -47 36 -88t110 -41q47 0 109.5 9t117.5 29.5t94 53.5t39 80q0 29 -23.5 53.5t-58.5 41.5t-72.5 27.5t-64.5 10.5q-12 -2 -23.5 -2h-25.5q-41 0 -83 5t-77 17.5t-56.5 34t-21.5 56.5q0 49 27.5 81.5t70.5 52t93.5 26.5t97.5 7 q18 0 46 -3t53.5 -11t45 -21.5t19.5 -31.5q0 -14 -11 -25q0 8 -12 18.5t-30.5 17.5t-40 12.5t-41.5 5.5q-33 0 -70 -4.5t-67.5 -16.5t-50 -34.5t-19.5 -59.5q0 -27 23.5 -40t58.5 -13q66 0 125 9t104 24.5t71.5 34t26.5 34.5q0 25 -18.5 50.5t-44 50t-53 44t-45.5 31.5 q-35 20 -67 47t-58.5 56.5t-42 64.5t-15.5 72q0 55 34 102t87 80t117.5 51.5t124.5 18.5q33 0 65.5 -4.5t59 -13.5t43 -21.5t16.5 -28.5q0 -29 -12.5 -38t-20.5 -15q0 41 -36.5 61.5t-96.5 20.5q-39 0 -83 -18.5t-82 -49.5t-63.5 -70.5t-25.5 -84.5q0 -53 22.5 -95.5 t57.5 -77t74 -63.5t73.5 -56.5t57 -56t22.5 -63.5t-22.5 -60.5t-56 -44t-74.5 -31t-78 -18.5q37 -6 80 -19.5t78 -33.5t58.5 -49t23.5 -68q0 -47 -34 -86t-87 -66.5t-117.5 -43t-126.5 -15.5q-33 0 -82 3t-94 15.5t-77 36t-32 62.5z" />
<glyph unicode="&#xa8;" horiz-adv-x="700" d="M264 948q0 20 8.5 41t19.5 37t19 29.5t8 23.5q47 0 71 -16t24 -37q0 -18 -12.5 -37.5t-28 -40t-30.5 -41.5t-19 -39q-35 4 -47.5 28t-12.5 52zM543 940q0 25 8 45.5t18.5 37.5t18.5 30.5t8 23.5q47 0 71.5 -19.5t24.5 -37.5q0 -20 -12 -38.5t-27.5 -37t-31 -37.5 t-21.5 -39q-33 6 -45 24.5t-12 47.5z" />
<glyph unicode="&#xaa;" horiz-adv-x="509" d="M248 891q0 55 26.5 109.5t69.5 102.5t94 86t101 58q33 -6 61.5 -24.5t34.5 -44.5q-16 -27 -34.5 -64t-34 -76t-27 -75.5t-11.5 -61.5q0 -41 22.5 -78t67.5 -37q-4 -10 -17 -13t-23 -3q-57 0 -80 29.5t-23 70.5v24.5t4 25.5q-2 0 -16 -21.5t-37 -46.5t-50.5 -46.5 t-58.5 -21.5q-39 0 -54 35t-15 72zM281 834q0 -14 18 -15q23 0 55.5 25.5t64.5 62.5t58.5 75t38.5 62q16 33 28.5 76t16.5 72q-43 -23 -93 -61.5t-91 -87t-68.5 -103.5t-27.5 -106z" />
<glyph unicode="&#xab;" horiz-adv-x="727" d="M117 543q14 35 62 67.5t107.5 64.5t118 62.5t89.5 61.5q-12 -68 -57.5 -112t-97.5 -79t-96 -65.5t-55 -73.5q33 -59 87.5 -113.5t140.5 -107.5q-57 10 -110.5 38.5t-95.5 68.5t-67.5 88.5t-25.5 99.5zM342 506q2 31 45 68.5t101.5 77.5t118 80t89.5 71q-16 -80 -58 -130 t-88 -87t-84 -68t-44 -74q43 -51 99.5 -96t158.5 -88q-59 0 -118.5 19.5t-107.5 53.5t-79 79t-33 94z" />
<glyph unicode="&#xac;" horiz-adv-x="980" d="M133 616q57 -23 134 -30.5t163 -7.5q125 0 251 11t218 15q18 -12 37.5 -37.5t24.5 -66.5q-23 -43 -44.5 -97.5t-40 -114t-33 -117.5t-24.5 -110q-43 27 -43 123q0 49 8.5 97.5t19.5 94.5t24.5 88t23.5 75q-55 -16 -151.5 -28.5t-200.5 -12.5q-61 0 -122 6t-110 19.5 t-85 36t-50 56.5z" />
<glyph unicode="&#xad;" horiz-adv-x="671" d="M135 555q90 0 160 14.5t133 14.5q33 0 70 -1t70.5 -2t60.5 -5.5t37 -10.5q-92 -41 -186.5 -59.5t-190.5 -18.5q-51 0 -94 12.5t-60 55.5z" />
<glyph unicode="&#xaf;" horiz-adv-x="700" d="M211 993q90 0 160.5 15.5t134.5 15.5q33 0 69.5 -1t70.5 -2t60.5 -5t36.5 -10q-180 -78 -378 -78q-49 0 -93.5 12t-60.5 53z" />
<glyph unicode="&#xb0;" horiz-adv-x="561" d="M248 997q0 49 20.5 105.5t60.5 104.5t98 81t134 33q2 -12 26.5 -23.5t52.5 -33t50.5 -55t22.5 -91.5q0 -47 -17.5 -97t-51.5 -92t-81 -70t-108 -28q-102 6 -154.5 49.5t-52.5 116.5zM354 963q0 -35 23 -58q51 0 96 24.5t78 61.5t51.5 80t18.5 78q0 23 -7.5 37t-16.5 23.5 t-19.5 13.5t-14.5 4q-33 0 -69.5 -18.5t-67.5 -53.5t-51.5 -83t-20.5 -109z" />
<glyph unicode="&#xb1;" horiz-adv-x="980" d="M76 36q59 -23 122.5 -27.5t131.5 -4.5q104 0 200.5 1t194.5 5q41 2 93.5 6t91.5 20q-39 -37 -84 -58t-103.5 -30.5t-132.5 -11.5t-168 -2q-66 0 -122 2t-101 11.5t-77 30t-46 58.5zM133 616q33 -16 104.5 -23t149.5 -7q33 0 62.5 1t56.5 3q12 45 25.5 101.5t23.5 113.5 t17.5 109.5t7.5 89.5q0 43 -13 53q18 6 29 6q27 0 35 -35t8 -88q0 -35 -3 -79t-9 -90t-14.5 -92t-16.5 -85q37 -2 69.5 -2h61.5q78 0 129 4t111 20q-45 -31 -90.5 -50t-92.5 -28.5t-97 -13.5t-105 -4q-16 -51 -33 -135t-33 -170q-4 -43 -13 -67.5t-19.5 -36t-21.5 -13.5 t-20 -2q-35 0 -56 39t-21 84q0 23 4 29l23 -57.5t24 -22.5q4 0 12 27.5t18.5 77t22 113.5t23.5 138q-16 0 -48 -2t-73 -2q-37 0 -77 4t-74 15.5t-57.5 30t-29.5 46.5z" />
<glyph unicode="&#xb2;" horiz-adv-x="600" d="M138 727q0 10 1 17t1 13q57 37 133 90.5t143.5 114t114.5 123t47 115.5q0 20 -66 20q-43 0 -83 -20.5t-75.5 -46t-64.5 -46t-51 -20.5q-27 0 -42 30t-15 83q33 2 71.5 21.5t80.5 42t83 41t80 18.5q66 0 115 -40t49 -106q0 -47 -27.5 -99t-74 -107.5t-106.5 -114 t-126 -117.5q31 0 72 -1t80.5 -4t75.5 -8t59 -12q27 -10 45 -29.5t28 -64.5q-39 4 -84 5t-92 1q-88 0 -174 -5t-151 -15q-29 23 -38 57.5t-9 63.5z" />
<glyph unicode="&#xb3;" horiz-adv-x="583" d="M138 731q0 72 40.5 117t110.5 51q-45 -45 -56 -73t-11 -62q0 -14 23.5 -18.5t80.5 -4.5q94 0 156.5 22.5t62.5 45.5q0 16 -16.5 35.5t-41 37t-54 32t-56.5 22.5q-23 -10 -40 -16.5t-38 -6.5q-100 0 -100 131q18 -8 57 -8q27 0 83.5 13.5t112.5 34t98 46t42 51.5 q0 12 -17.5 19.5t-43 12.5t-53 6t-46.5 1q-25 0 -52 -7t-49.5 -20.5t-38 -34t-15.5 -46.5q-33 8 -48.5 29.5t-15.5 46.5q0 37 21.5 61.5t55.5 40.5t78 23.5t87 7.5q23 0 58.5 -4.5t70.5 -18.5t60.5 -40.5t25.5 -69.5q0 -66 -46 -119.5t-128 -79.5q20 -8 45 -21.5t45.5 -35 t33.5 -54t13 -78.5q0 -68 -37 -106.5t-87 -57t-102 -22.5t-83 -4q-94 0 -140 40t-46 81z" />
<glyph unicode="&#xb4;" horiz-adv-x="344" d="M119 811q35 12 69.5 53t73.5 85t84.5 82t104.5 46q-25 -59 -64 -111.5t-81 -91t-82 -61t-66 -22.5q-8 0 -21.5 4t-17.5 16z" />
<glyph unicode="&#xb5;" horiz-adv-x="653" d="M-20 -498q0 23 2 29l63 432q8 55 17.5 111.5t19.5 115.5q6 35 20.5 107t40 155t62.5 166.5t90 145.5q12 -14 19.5 -30.5t11.5 -41.5q-23 -59 -45.5 -126.5t-43 -139.5t-32.5 -144.5t-12 -140.5q0 -41 14 -78.5t57 -48.5q70 59 114 149.5t69.5 188t39 190.5t19.5 158 q16 6 33.5 7.5t38.5 1.5h21t19 -2q-12 -61 -24 -135t-22.5 -150t-17.5 -149.5t-7 -137.5q0 -66 15.5 -122t68.5 -85q-29 -14 -53 -14q-31 0 -54.5 21.5t-40 52t-25.5 65.5t-14 64q-12 -23 -35.5 -48.5t-52 -46t-61.5 -34t-62 -13.5q-43 0 -77 21q-20 -152 -44 -303.5 t-53 -310.5q-43 16 -61 47.5t-18 72.5z" />
<glyph unicode="&#xb6;" horiz-adv-x="929" d="M113 745q0 66 55 143t146.5 141.5t208 107.5t241.5 43q113 0 187.5 -43t74.5 -103q0 -31 -14 -43q-8 72 -76 116t-152 44q-111 0 -214 -53.5t-183 -128t-127 -152.5t-47 -127q0 -23 9 -35t34 -19t68 -11t108 -7q23 59 57.5 131t75.5 185q2 -10 3 -18.5t1 -22.5 q0 -27 -5 -60.5t-12 -68.5t-15.5 -67.5t-14.5 -53.5q39 8 71 18.5t60 26.5q27 53 45.5 92t31.5 71t24.5 57.5t23.5 49.5q6 -29 6 -53q0 -41 -11 -84t-28 -102q27 8 40.5 15t28.5 15.5t39 21.5t69 34q-14 -35 -71.5 -71t-115.5 -70q-68 -193 -120 -383.5t-93 -376.5 q-31 23 -42 61.5t-11 79.5q0 57 18.5 131t43 150.5t49 152.5t38.5 139q-10 -6 -36.5 -14t-69.5 -18q-59 -147 -113.5 -346t-103.5 -410q-29 76 -29 160q0 63 14.5 139t36 153.5t48 152.5t49.5 140q-53 0 -107.5 7.5t-97.5 27t-69.5 52t-26.5 83.5z" />
<glyph unicode="&#xb7;" horiz-adv-x="354" d="M156 690q0 41 10 80t23.5 73t25.5 61.5t14 43.5q41 0 65.5 -29.5t24.5 -62.5q0 -35 -13 -68.5t-31.5 -66.5t-38 -66.5t-29.5 -70.5q-51 25 -51 106z" />
<glyph unicode="&#xb8;" horiz-adv-x="405" d="M-27 -285q12 -2 20.5 -2h14.5q80 0 120 39t40 144q0 39 -5 70.5t-16 60.5q41 -25 75 -71t34 -116q0 -47 -16.5 -81.5t-43 -57.5t-57 -34t-57.5 -11q-35 0 -69 18t-40 41z" />
<glyph unicode="&#xb9;" horiz-adv-x="479" d="M138 757q43 -10 85 -13t64 -3q4 33 12.5 79t18.5 95t21.5 99.5t21.5 93.5q-23 -16 -47 -17q-18 0 -92 56q66 29 114.5 67.5t73.5 89.5q37 10 98 11q-33 -102 -57.5 -184.5t-43 -152t-31.5 -129t-25 -116.5q51 0 101 1t114 7q-18 -39 -49 -62.5t-65 -36t-67 -15.5t-53 -3 q-2 -6 -2 -22t2 -21q-29 8 -45 49q-14 2 -37.5 10.5t-46 23t-41 38t-24.5 55.5z" />
<glyph unicode="&#xba;" horiz-adv-x="542" d="M248 928q0 35 19.5 89t51 105.5t74.5 88t92 36.5q80 0 132.5 -54t52.5 -132q0 -49 -23.5 -100.5t-62.5 -92.5t-88.5 -66.5t-100.5 -25.5q-72 0 -109.5 42t-37.5 110zM295 901q0 -33 14.5 -54.5t55.5 -21.5q49 0 94 23.5t78.5 60.5t53 82t19.5 88q0 45 -21.5 80t-68.5 35 q-37 0 -75.5 -32t-72.5 -78t-55.5 -96t-21.5 -87z" />
<glyph unicode="&#xbb;" horiz-adv-x="727" d="M137 246q18 80 60.5 130t88.5 87t83 67.5t45 71.5q-35 47 -98.5 95t-161.5 89q55 0 114.5 -19t108.5 -53t82 -78t35 -93q-8 -35 -54.5 -75t-103.5 -80t-113.5 -76.5t-85.5 -65.5zM340 248q18 70 63.5 115t94.5 78.5t92 63.5t55 70q-33 59 -84 111.5t-145 114.5 q57 -10 111.5 -38t97.5 -69t68.5 -90t25.5 -98q-14 -35 -63.5 -67.5t-109 -64.5t-117.5 -62.5t-89 -63.5z" />
<glyph unicode="&#xbc;" horiz-adv-x="1087" d="M123 757q43 -10 85 -13t64 -3q4 33 12.5 79t18.5 95t21.5 99.5t21.5 93.5q-23 -16 -47 -17q-18 0 -92 56q66 29 114.5 67.5t73.5 89.5q37 10 98 11q-33 -102 -57.5 -184.5t-43 -152t-31.5 -129t-25 -116.5q51 0 101 1t114 7q-18 -39 -49 -62.5t-65 -36t-67 -15.5t-53 -3 q-2 -6 -2 -22t2 -21q-29 8 -45 49q-14 2 -37.5 10.5t-46 23t-41 38t-24.5 55.5zM158 -35q0 35 31.5 96.5t84 139.5t120 168t139 182t143.5 182t133 168q49 63 84 109.5t59.5 83t42 67.5t31.5 66q23 -6 23 -41q0 -2 -2 -8.5t-2 -10.5q-12 -92 -82 -205.5t-167.5 -238.5 t-205 -255t-193.5 -255q-16 -23 -41.5 -57.5t-49 -71.5t-41 -72t-17.5 -59q0 -31 43 -33q-35 -35 -88 -35q-16 0 -30.5 19.5t-14.5 60.5zM617 248q0 27 8 41q55 25 104 66.5t89 92t72 102.5t54 95q8 -31 8 -59q0 -31 -13 -72t-34.5 -82t-46 -77t-47.5 -56q59 0 89 -3t52 -7 q12 49 30 99t35 102.5t29.5 109.5t12.5 123q35 -23 48 -54.5t13 -74.5q0 -53 -17 -131t-52 -189q35 -10 56.5 -14t45.5 -4q14 0 17 16q20 -20 20 -53q0 -49 -63 -49q-25 0 -51.5 3t-49.5 9q-6 -23 -14 -57.5t-17.5 -73.5t-17.5 -75.5t-14 -65.5q-4 0 -14.5 1t-21.5 7 t-20.5 18.5t-9.5 34.5q0 39 8.5 105.5t22.5 126.5q-37 6 -103 6q-47 0 -94 -8t-92 -29q-12 14 -17 34.5t-5 41.5z" />
<glyph unicode="&#xbd;" horiz-adv-x="1073" d="M123 -35q0 35 31.5 96.5t84 139.5t120 168t139 182t143.5 182t133 168q49 63 84 109.5t59.5 83t42 67.5t31.5 66q23 -6 23 -41q0 -2 -2 -8.5t-2 -10.5q-12 -92 -82 -205.5t-167.5 -238.5t-205 -255t-193.5 -255q-16 -23 -41.5 -57.5t-49 -71.5t-41 -72t-17.5 -59 q0 -31 43 -33q-35 -35 -88 -35q-16 0 -30.5 19.5t-14.5 60.5zM138 757q43 -10 85 -13t64 -3q4 33 12.5 79t18.5 95t21.5 99.5t21.5 93.5q-23 -16 -47 -17q-18 0 -92 56q66 29 114.5 67.5t73.5 89.5q37 10 98 11q-33 -102 -57.5 -184.5t-43 -152t-31.5 -129t-25 -116.5 q51 0 101 1t114 7q-18 -39 -49 -62.5t-65 -36t-67 -15.5t-53 -3q-2 -6 -2 -22t2 -21q-29 8 -45 49q-14 2 -37.5 10.5t-46 23t-41 38t-24.5 55.5zM627 74q0 10 1 17t1 13q57 37 133 90.5t143.5 114t114.5 123t47 115.5q0 20 -66 20q-43 0 -83 -20.5t-75.5 -46t-64.5 -46 t-51 -20.5q-27 0 -42 30t-15 83q33 2 71.5 21.5t80.5 42t83 41t80 18.5q66 0 115 -40t49 -106q0 -47 -27.5 -99t-74 -107.5t-106.5 -114t-126 -117.5q31 0 72 -1t80.5 -4t75.5 -8t59 -12q27 -10 45 -29.5t28 -64.5q-39 4 -84 5t-92 1q-88 0 -174 -5t-151 -15 q-29 23 -38 57.5t-9 63.5z" />
<glyph unicode="&#xbe;" horiz-adv-x="1126" d="M123 731q0 72 40.5 117t110.5 51q-45 -45 -56 -73t-11 -62q0 -14 23.5 -18.5t80.5 -4.5q94 0 156.5 22.5t62.5 45.5q0 16 -16.5 35.5t-41 37t-54 32t-56.5 22.5q-23 -10 -40 -16.5t-38 -6.5q-100 0 -100 131q18 -8 57 -8q27 0 83.5 13.5t112.5 34t98 46t42 51.5 q0 12 -17.5 19.5t-43 12.5t-53 6t-46.5 1q-25 0 -52 -7t-49.5 -20.5t-38 -34t-15.5 -46.5q-33 8 -48.5 29.5t-15.5 46.5q0 37 21.5 61.5t55.5 40.5t78 23.5t87 7.5q23 0 58.5 -4.5t70.5 -18.5t60.5 -40.5t25.5 -69.5q0 -66 -46 -119.5t-128 -79.5q20 -8 45 -21.5t45.5 -35 t33.5 -54t13 -78.5q0 -68 -37 -106.5t-87 -57t-102 -22.5t-83 -4q-94 0 -140 40t-46 81zM199 -35q0 35 31.5 96.5t84 139.5t120 168t139 182t143.5 182t133 168q49 63 84 109.5t59.5 83t42 67.5t31.5 66q23 -6 23 -41q0 -2 -2 -8.5t-2 -10.5q-12 -92 -82 -205.5 t-167.5 -238.5t-205 -255t-193.5 -255q-16 -23 -41.5 -57.5t-49 -71.5t-41 -72t-17.5 -59q0 -31 43 -33q-35 -35 -88 -35q-16 0 -30.5 19.5t-14.5 60.5zM656 248q0 27 8 41q55 25 104 66.5t89 92t72 102.5t54 95q8 -31 8 -59q0 -31 -13 -72t-34.5 -82t-46 -77t-47.5 -56 q59 0 89 -3t52 -7q12 49 30 99t35 102.5t29.5 109.5t12.5 123q35 -23 48 -54.5t13 -74.5q0 -53 -17 -131t-52 -189q35 -10 56.5 -14t45.5 -4q14 0 17 16q20 -20 20 -53q0 -49 -63 -49q-25 0 -51.5 3t-49.5 9q-6 -23 -14 -57.5t-17.5 -73.5t-17.5 -75.5t-14 -65.5 q-4 0 -14.5 1t-21.5 7t-20.5 18.5t-9.5 34.5q0 39 8.5 105.5t22.5 126.5q-37 6 -103 6q-47 0 -94 -8t-92 -29q-12 14 -17 34.5t-5 41.5z" />
<glyph unicode="&#xbf;" horiz-adv-x="665" d="M-47 156q0 78 58.5 152.5t139 142t166.5 126t142 103.5q-68 -6 -135.5 -29.5t-122.5 -58.5q2 16 20.5 40.5t49 51.5t72.5 48.5t91 31.5q14 -2 34.5 -11.5t41 -20.5t37 -23.5t22.5 -18.5q-18 -45 -67 -85t-111.5 -79t-130 -75.5t-124 -76.5t-92.5 -82t-36 -91 q0 -43 19.5 -76t53.5 -55.5t77 -33.5t90 -11q43 0 108.5 9t136 31.5t136 60.5t108.5 97q-10 -63 -54 -119.5t-110.5 -97.5t-148.5 -65.5t-168 -24.5q-66 0 -121 19.5t-96 52t-63.5 75.5t-22.5 93zM373 911q0 33 13 68t31.5 68.5t38 68.5t29.5 70q51 -25 52 -109 q0 -39 -10.5 -76.5t-22.5 -71.5t-23.5 -62t-13.5 -44q-45 0 -69.5 28t-24.5 60z" />
<glyph unicode="&#xc0;" horiz-adv-x="798" d="M80 63q0 78 35 176.5t78 217.5q18 49 47.5 122.5t69.5 154.5t88 162t102.5 146.5t113 105.5t119.5 40q59 0 80 -33t21 -82q0 -41 -11.5 -103.5t-27 -137t-30.5 -159.5t-22 -167q47 4 105.5 5t97.5 1h25q-23 -12 -46.5 -20.5t-52 -17.5t-62.5 -18.5t-79 -23.5 q-4 -41 -4 -80v-76q0 -133 21.5 -213.5t74.5 -80.5q20 0 40 15t30 38q6 -6 6 -21q0 -8 -4 -20t-13.5 -22.5t-26.5 -18.5t-44 -8q-63 0 -102 28.5t-60.5 76.5t-29 110.5t-7.5 130.5q0 29 1 58.5t3 58.5q-41 -14 -98 -28.5t-119 -14.5q-78 0 -133 24q-35 -115 -54 -205 t-19 -155q0 -45 12 -66q-53 0 -89 22.5t-36 77.5zM285 449q59 0 146 6t190 37q0 45 10 106t26.5 128t35 133.5t34.5 120.5t26.5 92t10.5 48q0 31 -21 31q-47 0 -95 -40t-93 -102.5t-87 -141.5t-78 -156.5t-62.5 -147t-42.5 -114.5zM627 1491q80 0 132 -58.5t97 -168.5 q-68 0 -107.5 26.5t-62 63.5t-34 75.5t-25.5 61.5z" />
<glyph unicode="&#xc1;" horiz-adv-x="798" d="M80 63q0 78 35 176.5t78 217.5q18 49 47.5 122.5t69.5 154.5t88 162t102.5 146.5t113 105.5t119.5 40q59 0 80 -33t21 -82q0 -41 -11.5 -103.5t-27 -137t-30.5 -159.5t-22 -167q47 4 105.5 5t97.5 1h25q-23 -12 -46.5 -20.5t-52 -17.5t-62.5 -18.5t-79 -23.5 q-4 -41 -4 -80v-76q0 -133 21.5 -213.5t74.5 -80.5q20 0 40 15t30 38q6 -6 6 -21q0 -8 -4 -20t-13.5 -22.5t-26.5 -18.5t-44 -8q-63 0 -102 28.5t-60.5 76.5t-29 110.5t-7.5 130.5q0 29 1 58.5t3 58.5q-41 -14 -98 -28.5t-119 -14.5q-78 0 -133 24q-35 -115 -54 -205 t-19 -155q0 -45 12 -66q-53 0 -89 22.5t-36 77.5zM285 449q59 0 146 6t190 37q0 45 10 106t26.5 128t35 133.5t34.5 120.5t26.5 92t10.5 48q0 31 -21 31q-47 0 -95 -40t-93 -102.5t-87 -141.5t-78 -156.5t-62.5 -147t-42.5 -114.5zM576 1239q35 12 69.5 53t73.5 85t84.5 82 t104.5 46q-25 -59 -64 -111.5t-81 -91t-82 -61t-66 -22.5q-8 0 -21.5 4t-17.5 16z" />
<glyph unicode="&#xc2;" horiz-adv-x="798" d="M80 63q0 78 35 176.5t78 217.5q18 49 47.5 122.5t69.5 154.5t88 162t102.5 146.5t113 105.5t119.5 40q59 0 80 -33t21 -82q0 -41 -11.5 -103.5t-27 -137t-30.5 -159.5t-22 -167q47 4 105.5 5t97.5 1h25q-23 -12 -46.5 -20.5t-52 -17.5t-62.5 -18.5t-79 -23.5 q-4 -41 -4 -80v-76q0 -133 21.5 -213.5t74.5 -80.5q20 0 40 15t30 38q6 -6 6 -21q0 -8 -4 -20t-13.5 -22.5t-26.5 -18.5t-44 -8q-63 0 -102 28.5t-60.5 76.5t-29 110.5t-7.5 130.5q0 29 1 58.5t3 58.5q-41 -14 -98 -28.5t-119 -14.5q-78 0 -133 24q-35 -115 -54 -205 t-19 -155q0 -45 12 -66q-53 0 -89 22.5t-36 77.5zM285 449q59 0 146 6t190 37q0 45 10 106t26.5 128t35 133.5t34.5 120.5t26.5 92t10.5 48q0 31 -21 31q-47 0 -95 -40t-93 -102.5t-87 -141.5t-78 -156.5t-62.5 -147t-42.5 -114.5zM522 1296q27 4 60.5 33t70.5 72t75 95 t70 106l70 -13q0 -53 -1 -89t-1 -52q0 -66 19.5 -129t91.5 -92q-55 2 -92 21.5t-57.5 51t-29 75.5t-8.5 94v22h-2q-14 -25 -37.5 -62.5t-52.5 -73.5t-60.5 -61.5t-62.5 -25.5q-29 0 -53 28z" />
<glyph unicode="&#xc3;" horiz-adv-x="798" d="M80 63q0 78 35 176.5t78 217.5q18 49 47.5 122.5t69.5 154.5t88 162t102.5 146.5t113 105.5t119.5 40q59 0 80 -33t21 -82q0 -41 -11.5 -103.5t-27 -137t-30.5 -159.5t-22 -167q47 4 105.5 5t97.5 1h25q-23 -12 -46.5 -20.5t-52 -17.5t-62.5 -18.5t-79 -23.5 q-4 -41 -4 -80v-76q0 -133 21.5 -213.5t74.5 -80.5q20 0 40 15t30 38q6 -6 6 -21q0 -8 -4 -20t-13.5 -22.5t-26.5 -18.5t-44 -8q-63 0 -102 28.5t-60.5 76.5t-29 110.5t-7.5 130.5q0 29 1 58.5t3 58.5q-41 -14 -98 -28.5t-119 -14.5q-78 0 -133 24q-35 -115 -54 -205 t-19 -155q0 -45 12 -66q-53 0 -89 22.5t-36 77.5zM285 449q59 0 146 6t190 37q0 45 10 106t26.5 128t35 133.5t34.5 120.5t26.5 92t10.5 48q0 31 -21 31q-47 0 -95 -40t-93 -102.5t-87 -141.5t-78 -156.5t-62.5 -147t-42.5 -114.5zM471 1344q31 0 53.5 19.5t46 43t51.5 43 t69 19.5q61 0 96 -18.5t53 -42t25.5 -42t17.5 -18.5q8 0 18.5 2t23.5 10t30.5 24.5t42.5 45.5q6 -10 8 -26.5t2 -37.5q0 -20 -10 -35.5t-23.5 -26.5t-28 -16.5t-20.5 -5.5q-35 0 -63.5 21.5t-50 46.5t-36 46.5t-22.5 21.5q-23 0 -50.5 -18.5t-56 -41t-58.5 -41t-56 -18.5 q-51 0 -62 45z" />
<glyph unicode="&#xc4;" horiz-adv-x="798" d="M80 63q0 78 35 176.5t78 217.5q18 49 47.5 122.5t69.5 154.5t88 162t102.5 146.5t113 105.5t119.5 40q59 0 80 -33t21 -82q0 -41 -11.5 -103.5t-27 -137t-30.5 -159.5t-22 -167q47 4 105.5 5t97.5 1h25q-23 -12 -46.5 -20.5t-52 -17.5t-62.5 -18.5t-79 -23.5 q-4 -41 -4 -80v-76q0 -133 21.5 -213.5t74.5 -80.5q20 0 40 15t30 38q6 -6 6 -21q0 -8 -4 -20t-13.5 -22.5t-26.5 -18.5t-44 -8q-63 0 -102 28.5t-60.5 76.5t-29 110.5t-7.5 130.5q0 29 1 58.5t3 58.5q-41 -14 -98 -28.5t-119 -14.5q-78 0 -133 24q-35 -115 -54 -205 t-19 -155q0 -45 12 -66q-53 0 -89 22.5t-36 77.5zM285 449q59 0 146 6t190 37q0 45 10 106t26.5 128t35 133.5t34.5 120.5t26.5 92t10.5 48q0 31 -21 31q-47 0 -95 -40t-93 -102.5t-87 -141.5t-78 -156.5t-62.5 -147t-42.5 -114.5zM573 1362q0 20 8.5 41t19.5 37t19 29.5 t8 23.5q47 0 71 -16t24 -37q0 -18 -12.5 -37.5t-28 -40t-30.5 -41.5t-19 -39q-35 4 -47.5 28t-12.5 52zM852 1354q0 25 8 45.5t18.5 37.5t18.5 30.5t8 23.5q47 0 71.5 -19.5t24.5 -37.5q0 -20 -12 -38.5t-27.5 -37t-31 -37.5t-21.5 -39q-33 6 -45 24.5t-12 47.5z" />
<glyph unicode="&#xc5;" horiz-adv-x="798" d="M80 63q0 78 35 176.5t78 217.5q18 49 47.5 122.5t69.5 154.5t88 162t102.5 146.5t113 105.5t119.5 40q59 0 80 -33t21 -82q0 -41 -11.5 -103.5t-27 -137t-30.5 -159.5t-22 -167q47 4 105.5 5t97.5 1h25q-23 -12 -46.5 -20.5t-52 -17.5t-62.5 -18.5t-79 -23.5 q-4 -41 -4 -80v-76q0 -133 21.5 -213.5t74.5 -80.5q20 0 40 15t30 38q6 -6 6 -21q0 -8 -4 -20t-13.5 -22.5t-26.5 -18.5t-44 -8q-63 0 -102 28.5t-60.5 76.5t-29 110.5t-7.5 130.5q0 29 1 58.5t3 58.5q-41 -14 -98 -28.5t-119 -14.5q-78 0 -133 24q-35 -115 -54 -205 t-19 -155q0 -45 12 -66q-53 0 -89 22.5t-36 77.5zM285 449q59 0 146 6t190 37q0 45 10 106t26.5 128t35 133.5t34.5 120.5t26.5 92t10.5 48q0 31 -21 31q-47 0 -95 -40t-93 -102.5t-87 -141.5t-78 -156.5t-62.5 -147t-42.5 -114.5zM645 1331q0 37 15.5 81t46.5 81t76 62.5 t104 25.5q2 -10 20.5 -19.5t40 -25.5t39 -43t17.5 -70q0 -35 -13.5 -73.5t-39 -71.5t-62.5 -54.5t-84 -21.5q-160 10 -160 129zM731 1309q1 -29 19 -43q39 0 70.5 18.5t55 45t37 57t13.5 57.5q0 35 -16.5 47t-24.5 12q-25 0 -51.5 -13t-49 -39t-38 -61.5t-15.5 -80.5z" />
<glyph unicode="&#xc6;" horiz-adv-x="1144" d="M29 94q12 25 33.5 91.5t50 157.5t65.5 197.5t82 208t97.5 190.5t111.5 146h-115q-35 0 -63.5 12.5t-42.5 51.5l139 18q18 2 52 5.5t78 5.5t94.5 4t101.5 2q270 0 400 -37t151 -100q-31 8 -92.5 15t-136 11t-158.5 6t-160 2q-59 -174 -91 -286.5t-48 -169.5q145 8 274 8 t270 4q-16 -98 -45.5 -210t-83 -212t-135.5 -175t-201 -101h-20q-68 0 -114 24.5t-75.5 64.5t-42 93t-12.5 110q0 80 17.5 161t40.5 132q-57 -4 -103.5 -6t-75.5 -2q-39 -109 -59 -166t-31.5 -90t-19.5 -50t-21 -44q-16 -35 -38.5 -56.5t-51.5 -21.5q-10 0 -22 6zM303 610 q37 0 81 3t97 5l156 453l8 16h-88q-86 -106 -145.5 -234t-108.5 -243zM506 221q0 -72 28.5 -134t110.5 -97q96 25 176 99.5t140.5 169.5t97.5 194.5t49 175.5q-63 -14 -122.5 -30.5t-124 -32t-139.5 -26t-167 -10.5q-12 -53 -21.5 -95t-15.5 -77.5t-9 -68.5t-3 -68z" />
<glyph unicode="&#xc7;" horiz-adv-x="1087" d="M154 399q0 137 62.5 277.5t170 254t249.5 185.5t302 72q37 0 71.5 -18.5t61.5 -49t43 -68.5t16 -77q0 -45 -14 -64q-10 27 -23.5 57.5t-32 56.5t-44 43t-58.5 17q-117 0 -240.5 -60t-227 -158.5t-169 -222.5t-65.5 -251q0 -72 28.5 -130t73.5 -100t100.5 -65.5 t110.5 -23.5q104 0 202.5 40t184.5 100t157 129t120 126q6 0 6 -25q0 -18 -2 -20q-49 -80 -129 -157t-173 -138t-190.5 -103.5t-179.5 -52.5q20 -27 33.5 -59.5t13.5 -73.5q0 -47 -16 -81.5t-42 -57.5t-56.5 -34t-57.5 -11q-35 0 -69.5 18.5t-40.5 40.5q12 -2 20 -2h15 q78 0 118.5 39t40.5 144q0 43 -8 75q-80 0 -146.5 33t-114.5 91.5t-74.5 136t-26.5 167.5z" />
<glyph unicode="&#xc8;" horiz-adv-x="935" d="M98 176q0 119 51.5 202t128 140t163.5 91t161 57q-49 18 -100 42.5t-92 57.5t-67 73t-26 89q0 84 49.5 134t116 77.5t136 37t112.5 9.5q88 0 151.5 -13.5t105.5 -35t61.5 -50t19.5 -61.5q0 -29 -22.5 -55.5t-88.5 -48.5q6 6 7.5 12t1.5 12q0 39 -17.5 73t-47.5 59.5 t-68.5 40t-83.5 14.5q-41 0 -97.5 -8.5t-110 -28t-90 -50t-36.5 -75.5q0 -51 54 -100.5t134 -87.5t171 -60.5t163 -22.5q51 0 90 23q-37 -125 -186 -125q-18 0 -42 3t-48.5 9t-47 13.5t-38.5 13.5q-53 -10 -132 -44t-152 -84t-125 -112.5t-52 -132.5q0 -43 37 -77.5 t93 -57.5t122.5 -35t126.5 -12q80 0 139 10t99 37t59.5 71t19.5 109q0 23 -5 42.5t-13 35.5q49 -23 73.5 -54.5t24.5 -92.5q0 -37 -19.5 -83t-68.5 -86t-132 -68t-212 -28q-51 0 -128 6.5t-148.5 28t-123 60.5t-51.5 106zM611 1497q80 0 132 -58.5t97 -168.5 q-68 0 -107.5 26.5t-62 63.5t-34 75.5t-25.5 61.5z" />
<glyph unicode="&#xc9;" horiz-adv-x="935" d="M98 176q0 119 51.5 202t128 140t163.5 91t161 57q-49 18 -100 42.5t-92 57.5t-67 73t-26 89q0 84 49.5 134t116 77.5t136 37t112.5 9.5q88 0 151.5 -13.5t105.5 -35t61.5 -50t19.5 -61.5q0 -29 -22.5 -55.5t-88.5 -48.5q6 6 7.5 12t1.5 12q0 39 -17.5 73t-47.5 59.5 t-68.5 40t-83.5 14.5q-41 0 -97.5 -8.5t-110 -28t-90 -50t-36.5 -75.5q0 -51 54 -100.5t134 -87.5t171 -60.5t163 -22.5q51 0 90 23q-37 -125 -186 -125q-18 0 -42 3t-48.5 9t-47 13.5t-38.5 13.5q-53 -10 -132 -44t-152 -84t-125 -112.5t-52 -132.5q0 -43 37 -77.5 t93 -57.5t122.5 -35t126.5 -12q80 0 139 10t99 37t59.5 71t19.5 109q0 23 -5 42.5t-13 35.5q49 -23 73.5 -54.5t24.5 -92.5q0 -37 -19.5 -83t-68.5 -86t-132 -68t-212 -28q-51 0 -128 6.5t-148.5 28t-123 60.5t-51.5 106zM623 1260q35 12 69.5 53t73.5 85t84.5 82t104.5 46 q-25 -59 -64 -111.5t-81 -91t-82 -61t-66 -22.5q-8 0 -21.5 4t-17.5 16z" />
<glyph unicode="&#xca;" horiz-adv-x="935" d="M98 176q0 119 51.5 202t128 140t163.5 91t161 57q-49 18 -100 42.5t-92 57.5t-67 73t-26 89q0 84 49.5 134t116 77.5t136 37t112.5 9.5q88 0 151.5 -13.5t105.5 -35t61.5 -50t19.5 -61.5q0 -29 -22.5 -55.5t-88.5 -48.5q6 6 7.5 12t1.5 12q0 39 -17.5 73t-47.5 59.5 t-68.5 40t-83.5 14.5q-41 0 -97.5 -8.5t-110 -28t-90 -50t-36.5 -75.5q0 -51 54 -100.5t134 -87.5t171 -60.5t163 -22.5q51 0 90 23q-37 -125 -186 -125q-18 0 -42 3t-48.5 9t-47 13.5t-38.5 13.5q-53 -10 -132 -44t-152 -84t-125 -112.5t-52 -132.5q0 -43 37 -77.5 t93 -57.5t122.5 -35t126.5 -12q80 0 139 10t99 37t59.5 71t19.5 109q0 23 -5 42.5t-13 35.5q49 -23 73.5 -54.5t24.5 -92.5q0 -37 -19.5 -83t-68.5 -86t-132 -68t-212 -28q-51 0 -128 6.5t-148.5 28t-123 60.5t-51.5 106zM608 1302q27 4 60.5 33t70.5 72t75 95t70 106 l70 -13q0 -53 -1 -89t-1 -52q0 -66 19.5 -129t91.5 -92q-55 2 -92 21.5t-57.5 51t-29 75.5t-8.5 94v22h-2q-14 -25 -37.5 -62.5t-52.5 -73.5t-60.5 -61.5t-62.5 -25.5q-29 0 -53 28z" />
<glyph unicode="&#xcb;" horiz-adv-x="935" d="M98 176q0 119 51.5 202t128 140t163.5 91t161 57q-49 18 -100 42.5t-92 57.5t-67 73t-26 89q0 84 49.5 134t116 77.5t136 37t112.5 9.5q88 0 151.5 -13.5t105.5 -35t61.5 -50t19.5 -61.5q0 -29 -22.5 -55.5t-88.5 -48.5q6 6 7.5 12t1.5 12q0 39 -17.5 73t-47.5 59.5 t-68.5 40t-83.5 14.5q-41 0 -97.5 -8.5t-110 -28t-90 -50t-36.5 -75.5q0 -51 54 -100.5t134 -87.5t171 -60.5t163 -22.5q51 0 90 23q-37 -125 -186 -125q-18 0 -42 3t-48.5 9t-47 13.5t-38.5 13.5q-53 -10 -132 -44t-152 -84t-125 -112.5t-52 -132.5q0 -43 37 -77.5 t93 -57.5t122.5 -35t126.5 -12q80 0 139 10t99 37t59.5 71t19.5 109q0 23 -5 42.5t-13 35.5q49 -23 73.5 -54.5t24.5 -92.5q0 -37 -19.5 -83t-68.5 -86t-132 -68t-212 -28q-51 0 -128 6.5t-148.5 28t-123 60.5t-51.5 106zM612 1356q0 20 8.5 41t19.5 37t19 29.5t8 23.5 q47 0 71 -16t24 -37q0 -18 -12.5 -37.5t-28 -40t-30.5 -41.5t-19 -39q-35 4 -47.5 28t-12.5 52zM891 1348q0 25 8 45.5t18.5 37.5t18.5 30.5t8 23.5q47 0 71.5 -19.5t24.5 -37.5q0 -20 -12 -38.5t-27.5 -37t-31 -37.5t-21.5 -39q-33 6 -45 24.5t-12 47.5z" />
<glyph unicode="&#xcc;" horiz-adv-x="239" d="M121 137q0 31 2 69t10 83q14 102 50 228t75 245t70.5 214t40.5 138q2 6 2 29q0 51 -23 51q-25 0 -52.5 -23.5t-35.5 -37.5q4 23 19.5 52t50.5 34q55 0 78.5 -36t23.5 -120q0 -100 -24.5 -207.5t-56.5 -216.5t-64.5 -215.5t-46.5 -202.5q-8 -47 -10.5 -98t-2.5 -94v-61 t4 -38q-53 6 -81.5 54.5t-28.5 152.5zM217 1497q80 0 132 -58.5t97 -168.5q-68 0 -107.5 26.5t-62 63.5t-34 75.5t-25.5 61.5z" />
<glyph unicode="&#xcd;" horiz-adv-x="239" d="M121 137q0 31 2 69t10 83q14 102 50 228t75 245t70.5 214t40.5 138q2 6 2 29q0 51 -23 51q-25 0 -52.5 -23.5t-35.5 -37.5q4 23 19.5 52t50.5 34q55 0 78.5 -36t23.5 -120q0 -100 -24.5 -207.5t-56.5 -216.5t-64.5 -215.5t-46.5 -202.5q-8 -47 -10.5 -98t-2.5 -94v-61 t4 -38q-53 6 -81.5 54.5t-28.5 152.5zM182 1245q35 12 69.5 53t73.5 85t84.5 82t104.5 46q-25 -59 -64 -111.5t-81 -91t-82 -61t-66 -22.5q-8 0 -21.5 4t-17.5 16z" />
<glyph unicode="&#xce;" horiz-adv-x="239" d="M121 137q0 31 2 69t10 83q14 102 50 228t75 245t70.5 214t40.5 138q2 6 2 29q0 51 -23 51q-25 0 -52.5 -23.5t-35.5 -37.5q4 23 19.5 52t50.5 34q55 0 78.5 -36t23.5 -120q0 -100 -24.5 -207.5t-56.5 -216.5t-64.5 -215.5t-46.5 -202.5q-8 -47 -10.5 -98t-2.5 -94v-61 t4 -38q-53 6 -81.5 54.5t-28.5 152.5zM150 1288q27 4 60.5 33t70.5 72t75 95t70 106l70 -13q0 -53 -1 -89t-1 -52q0 -66 19.5 -129t91.5 -92q-55 2 -92 21.5t-57.5 51t-29 75.5t-8.5 94v22h-2q-14 -25 -37.5 -62.5t-52.5 -73.5t-60.5 -61.5t-62.5 -25.5q-29 0 -53 28z" />
<glyph unicode="&#xcf;" horiz-adv-x="239" d="M121 137q0 31 2 69t10 83q14 102 50 228t75 245t70.5 214t40.5 138q2 6 2 29q0 51 -23 51q-25 0 -52.5 -23.5t-35.5 -37.5q4 23 19.5 52t50.5 34q55 0 78.5 -36t23.5 -120q0 -100 -24.5 -207.5t-56.5 -216.5t-64.5 -215.5t-46.5 -202.5q-8 -47 -10.5 -98t-2.5 -94v-61 t4 -38q-53 6 -81.5 54.5t-28.5 152.5zM194 1362q0 20 8.5 41t19.5 37t19 29.5t8 23.5q47 0 71 -16t24 -37q0 -18 -12.5 -37.5t-28 -40t-30.5 -41.5t-19 -39q-35 4 -47.5 28t-12.5 52zM473 1354q0 25 8 45.5t18.5 37.5t18.5 30.5t8 23.5q47 0 71.5 -19.5t24.5 -37.5 q0 -20 -12 -38.5t-27.5 -37t-31 -37.5t-21.5 -39q-33 6 -45 24.5t-12 47.5z" />
<glyph unicode="&#xd0;" horiz-adv-x="958" d="M8 569q41 0 80 4.5t74 8.5q49 141 94 286.5t86 276.5q-25 6 -76 6q-41 0 -74.5 -9t-74.5 -26q29 41 83 55.5t107 14.5q143 0 273.5 -43t229.5 -115t157.5 -164t58.5 -190q0 -70 -42 -149t-111.5 -156.5t-157.5 -149.5t-179.5 -127t-178.5 -88t-152 -33q-29 0 -47.5 6.5 t-34.5 12.5l-2 -23q-6 -29 -17.5 -59.5t-21.5 -42.5q-35 23 -46 60.5t-11 74.5v34.5t2 26.5l2 27q16 78 42.5 182.5t63.5 231.5q-47 4 -79.5 18.5t-47.5 48.5zM139 88q43 10 121 32.5t170 59.5t186.5 87t172 114.5t127 141.5t49.5 167q0 80 -53.5 159t-133.5 141.5t-175 101 t-177 38.5q-43 -135 -82 -264t-80 -264v-6q4 2 14.5 2h22.5h70t69.5 -2t59 -6t39.5 -10q-72 -33 -147 -50.5t-152 -25.5q-29 -109 -53.5 -210t-47.5 -206z" />
<glyph unicode="&#xd1;" horiz-adv-x="671" d="M125 -27q16 166 26.5 337t36.5 343q23 145 60 283.5t78 239.5q31 18 71 18q41 0 60 -20q-51 -131 -73 -255t-22 -247q0 -104 12.5 -203.5t35.5 -198.5q16 -72 40.5 -137t77.5 -113q8 27 17.5 52.5t13.5 54.5q14 88 32.5 195.5t46.5 222t65.5 226.5t90 207t121 165.5 t158.5 103.5q-96 -127 -161.5 -266t-110.5 -285.5t-75 -297t-54 -296.5q-10 -55 -44 -90t-87 -45q-100 20 -149.5 86t-72 152t-29.5 182t-24 180q-8 -98 -16 -174t-23 -164q-6 -37 -14 -74.5t-20.5 -73.5t-29 -64.5t-38.5 -43.5zM411 1352q31 0 53.5 19.5t46 43t51.5 43 t69 19.5q61 0 96 -18.5t53 -42t25.5 -42t17.5 -18.5q8 0 18.5 2t23.5 10t30.5 24.5t42.5 45.5q6 -10 8 -26.5t2 -37.5q0 -20 -10 -35.5t-23.5 -26.5t-28 -16.5t-20.5 -5.5q-35 0 -63.5 21.5t-50 46.5t-36 46.5t-22.5 21.5q-23 0 -50.5 -18.5t-56 -41t-58.5 -41t-56 -18.5 q-51 0 -62 45z" />
<glyph unicode="&#xd2;" horiz-adv-x="1261" d="M18 514q0 141 59.5 265t154 215t213 144.5t239.5 53.5q150 0 280 -25.5t226 -80t152.5 -139.5t56.5 -204q0 -164 -67.5 -304t-178.5 -243.5t-253 -163t-292 -59.5q-86 0 -166 38t-140 101.5t-96 142.5t-36 163q0 123 37 230.5t90 193.5t114.5 146.5t108.5 88.5 q-104 -47 -193 -115.5t-153.5 -152.5t-100.5 -178t-36 -191q0 -28 6 -53q-12 20 -18.5 56t-6.5 71zM266 410q0 -76 21.5 -145.5t62.5 -122t102.5 -83t139.5 -30.5q113 0 229.5 48t210.5 134t153.5 204t59.5 257q0 86 -38 168t-108.5 146.5t-169 104t-220.5 39.5 q-74 0 -135.5 -37.5t-110.5 -98t-86 -138.5t-61.5 -159t-37 -155.5t-12.5 -131.5zM686 1497q80 0 132 -58.5t97 -168.5q-68 0 -107.5 26.5t-62 63.5t-34 75.5t-25.5 61.5z" />
<glyph unicode="&#xd3;" horiz-adv-x="1261" d="M18 514q0 141 59.5 265t154 215t213 144.5t239.5 53.5q150 0 280 -25.5t226 -80t152.5 -139.5t56.5 -204q0 -164 -67.5 -304t-178.5 -243.5t-253 -163t-292 -59.5q-86 0 -166 38t-140 101.5t-96 142.5t-36 163q0 123 37 230.5t90 193.5t114.5 146.5t108.5 88.5 q-104 -47 -193 -115.5t-153.5 -152.5t-100.5 -178t-36 -191q0 -28 6 -53q-12 20 -18.5 56t-6.5 71zM266 410q0 -76 21.5 -145.5t62.5 -122t102.5 -83t139.5 -30.5q113 0 229.5 48t210.5 134t153.5 204t59.5 257q0 86 -38 168t-108.5 146.5t-169 104t-220.5 39.5 q-74 0 -135.5 -37.5t-110.5 -98t-86 -138.5t-61.5 -159t-37 -155.5t-12.5 -131.5zM633 1245q35 12 69.5 53t73.5 85t84.5 82t104.5 46q-25 -59 -64 -111.5t-81 -91t-82 -61t-66 -22.5q-8 0 -21.5 4t-17.5 16z" />
<glyph unicode="&#xd4;" horiz-adv-x="1261" d="M18 514q0 141 59.5 265t154 215t213 144.5t239.5 53.5q150 0 280 -25.5t226 -80t152.5 -139.5t56.5 -204q0 -164 -67.5 -304t-178.5 -243.5t-253 -163t-292 -59.5q-86 0 -166 38t-140 101.5t-96 142.5t-36 163q0 123 37 230.5t90 193.5t114.5 146.5t108.5 88.5 q-104 -47 -193 -115.5t-153.5 -152.5t-100.5 -178t-36 -191q0 -28 6 -53q-12 20 -18.5 56t-6.5 71zM266 410q0 -76 21.5 -145.5t62.5 -122t102.5 -83t139.5 -30.5q113 0 229.5 48t210.5 134t153.5 204t59.5 257q0 86 -38 168t-108.5 146.5t-169 104t-220.5 39.5 q-74 0 -135.5 -37.5t-110.5 -98t-86 -138.5t-61.5 -159t-37 -155.5t-12.5 -131.5zM565 1308q27 4 60.5 33t70.5 72t75 95t70 106l70 -13q0 -53 -1 -89t-1 -52q0 -66 19.5 -129t91.5 -92q-55 2 -92 21.5t-57.5 51t-29 75.5t-8.5 94v22h-2q-14 -25 -37.5 -62.5t-52.5 -73.5 t-60.5 -61.5t-62.5 -25.5q-29 0 -53 28z" />
<glyph unicode="&#xd5;" horiz-adv-x="1261" d="M18 514q0 141 59.5 265t154 215t213 144.5t239.5 53.5q150 0 280 -25.5t226 -80t152.5 -139.5t56.5 -204q0 -164 -67.5 -304t-178.5 -243.5t-253 -163t-292 -59.5q-86 0 -166 38t-140 101.5t-96 142.5t-36 163q0 123 37 230.5t90 193.5t114.5 146.5t108.5 88.5 q-104 -47 -193 -115.5t-153.5 -152.5t-100.5 -178t-36 -191q0 -28 6 -53q-12 20 -18.5 56t-6.5 71zM266 410q0 -76 21.5 -145.5t62.5 -122t102.5 -83t139.5 -30.5q113 0 229.5 48t210.5 134t153.5 204t59.5 257q0 86 -38 168t-108.5 146.5t-169 104t-220.5 39.5 q-74 0 -135.5 -37.5t-110.5 -98t-86 -138.5t-61.5 -159t-37 -155.5t-12.5 -131.5zM542 1364q31 0 53.5 19.5t46 43t51.5 43t69 19.5q61 0 96 -18.5t53 -42t25.5 -42t17.5 -18.5q8 0 18.5 2t23.5 10t30.5 24.5t42.5 45.5q6 -10 8 -26.5t2 -37.5q0 -20 -10 -35.5t-23.5 -26.5 t-28 -16.5t-20.5 -5.5q-35 0 -63.5 21.5t-50 46.5t-36 46.5t-22.5 21.5q-23 0 -50.5 -18.5t-56 -41t-58.5 -41t-56 -18.5q-51 0 -62 45z" />
<glyph unicode="&#xd6;" horiz-adv-x="1261" d="M18 514q0 141 59.5 265t154 215t213 144.5t239.5 53.5q150 0 280 -25.5t226 -80t152.5 -139.5t56.5 -204q0 -164 -67.5 -304t-178.5 -243.5t-253 -163t-292 -59.5q-86 0 -166 38t-140 101.5t-96 142.5t-36 163q0 123 37 230.5t90 193.5t114.5 146.5t108.5 88.5 q-104 -47 -193 -115.5t-153.5 -152.5t-100.5 -178t-36 -191q0 -28 6 -53q-12 20 -18.5 56t-6.5 71zM266 410q0 -76 21.5 -145.5t62.5 -122t102.5 -83t139.5 -30.5q113 0 229.5 48t210.5 134t153.5 204t59.5 257q0 86 -38 168t-108.5 146.5t-169 104t-220.5 39.5 q-74 0 -135.5 -37.5t-110.5 -98t-86 -138.5t-61.5 -159t-37 -155.5t-12.5 -131.5zM604 1382q0 20 8.5 41t19.5 37t19 29.5t8 23.5q47 0 71 -16t24 -37q0 -18 -12.5 -37.5t-28 -40t-30.5 -41.5t-19 -39q-35 4 -47.5 28t-12.5 52zM883 1374q0 25 8 45.5t18.5 37.5t18.5 30.5 t8 23.5q47 0 71.5 -19.5t24.5 -37.5q0 -20 -12 -38.5t-27.5 -37t-31 -37.5t-21.5 -39q-33 6 -45 24.5t-12 47.5z" />
<glyph unicode="&#xd7;" horiz-adv-x="980" d="M238 309q100 25 181 92.5t156 141.5q-25 31 -51 68.5t-48.5 79.5t-38 85t-15.5 84q0 27 10 53q29 -90 78 -173t106 -156q43 35 91.5 78t89.5 88t70.5 89t35.5 79q25 -18 25 -46q0 -41 -27 -86t-66.5 -92t-84.5 -93t-82 -87q45 -74 97 -140.5t114 -119.5q-88 23 -148.5 83 t-109.5 132q-37 -31 -74 -71t-76 -73.5t-79 -57t-79 -23.5q-33 0 -51 18.5t-24 46.5z" />
<glyph unicode="&#xd8;" horiz-adv-x="1261" d="M-51 514q0 141 59.5 265t153.5 215t213 144.5t239 53.5q86 0 164 -8t150 -25q33 61 49 104.5t27 88.5q20 -14 20 -64q0 -29 -7 -64.5t-24 -82.5q154 -47 245 -145.5t91 -252.5q0 -164 -67.5 -304t-178 -243.5t-253 -163t-291.5 -59.5q-23 0 -40.5 2.5t-37.5 8.5 q-12 -29 -20.5 -59.5t-8.5 -47.5q0 -35 39 -35q-16 -16 -30.5 -25.5t-32.5 -9.5q-16 0 -36 19.5t-20 69.5q0 51 27 112q-59 27 -110.5 71t-88.5 98t-58.5 115.5t-21.5 125.5q0 123 37 230.5t90.5 193.5t114.5 146.5t109 88.5q-104 -47 -193.5 -115.5t-154 -152.5 t-100.5 -178t-36 -191q0 -16 2 -28.5t2 -24.5q-12 20 -17 56t-5 71zM197 410q0 -121 50 -216.5t148 -138.5q39 96 102.5 229.5t134 274.5t139.5 277.5t120 240.5q-57 23 -118.5 38t-133.5 15q-74 0 -135.5 -37.5t-110.5 -98t-86 -138.5t-61.5 -159t-36.5 -155.5t-12 -131.5z M479 33q12 -4 22.5 -4h20.5q113 0 229.5 48t211 134t154 203.5t59.5 257.5q0 106 -57 203t-161 163q-49 -111 -113.5 -242.5t-131 -267t-129 -263.5t-105.5 -232z" />
<glyph unicode="&#xd9;" horiz-adv-x="860" d="M147 334q0 78 12.5 171t34 189.5t53.5 186.5t71.5 160.5t87 112.5t100.5 42q27 0 41 -8q-66 -47 -121 -151.5t-95 -236.5t-61.5 -277.5t-21.5 -274.5q0 -72 26.5 -126t104.5 -77q59 0 127.5 47t127 109.5t97.5 126t39 94.5q45 256 121 456.5t172 327.5q47 -6 86 -39 q-23 -33 -53.5 -95t-63.5 -140t-64.5 -166t-56 -171t-40 -154.5t-15.5 -116.5q0 -68 10.5 -134.5t36 -121t70.5 -90t112 -41.5q-20 -4 -33.5 -7.5t-23.5 -3.5q-35 0 -74 15.5t-75.5 52.5t-67.5 96.5t-49 147.5q-31 -49 -69 -96.5t-84 -84.5t-98 -59.5t-112 -22.5 q-123 0 -187.5 84t-64.5 275zM637 1497q80 0 132 -58.5t97 -168.5q-68 0 -107.5 26.5t-62 63.5t-34 75.5t-25.5 61.5z" />
<glyph unicode="&#xda;" horiz-adv-x="860" d="M147 334q0 78 12.5 171t34 189.5t53.5 186.5t71.5 160.5t87 112.5t100.5 42q27 0 41 -8q-66 -47 -121 -151.5t-95 -236.5t-61.5 -277.5t-21.5 -274.5q0 -72 26.5 -126t104.5 -77q59 0 127.5 47t127 109.5t97.5 126t39 94.5q45 256 121 456.5t172 327.5q47 -6 86 -39 q-23 -33 -53.5 -95t-63.5 -140t-64.5 -166t-56 -171t-40 -154.5t-15.5 -116.5q0 -68 10.5 -134.5t36 -121t70.5 -90t112 -41.5q-20 -4 -33.5 -7.5t-23.5 -3.5q-35 0 -74 15.5t-75.5 52.5t-67.5 96.5t-49 147.5q-31 -49 -69 -96.5t-84 -84.5t-98 -59.5t-112 -22.5 q-123 0 -187.5 84t-64.5 275zM639 1245q35 12 69.5 53t73.5 85t84.5 82t104.5 46q-25 -59 -64 -111.5t-81 -91t-82 -61t-66 -22.5q-8 0 -21.5 4t-17.5 16z" />
<glyph unicode="&#xdb;" horiz-adv-x="860" d="M147 334q0 78 12.5 171t34 189.5t53.5 186.5t71.5 160.5t87 112.5t100.5 42q27 0 41 -8q-66 -47 -121 -151.5t-95 -236.5t-61.5 -277.5t-21.5 -274.5q0 -72 26.5 -126t104.5 -77q59 0 127.5 47t127 109.5t97.5 126t39 94.5q45 256 121 456.5t172 327.5q47 -6 86 -39 q-23 -33 -53.5 -95t-63.5 -140t-64.5 -166t-56 -171t-40 -154.5t-15.5 -116.5q0 -68 10.5 -134.5t36 -121t70.5 -90t112 -41.5q-20 -4 -33.5 -7.5t-23.5 -3.5q-35 0 -74 15.5t-75.5 52.5t-67.5 96.5t-49 147.5q-31 -49 -69 -96.5t-84 -84.5t-98 -59.5t-112 -22.5 q-123 0 -187.5 84t-64.5 275zM541 1308q27 4 60.5 33t70.5 72t75 95t70 106l70 -13q0 -53 -1 -89t-1 -52q0 -66 19.5 -129t91.5 -92q-55 2 -92 21.5t-57.5 51t-29 75.5t-8.5 94v22h-2q-14 -25 -37.5 -62.5t-52.5 -73.5t-60.5 -61.5t-62.5 -25.5q-29 0 -53 28z" />
<glyph unicode="&#xdc;" horiz-adv-x="860" d="M147 334q0 78 12.5 171t34 189.5t53.5 186.5t71.5 160.5t87 112.5t100.5 42q27 0 41 -8q-66 -47 -121 -151.5t-95 -236.5t-61.5 -277.5t-21.5 -274.5q0 -72 26.5 -126t104.5 -77q59 0 127.5 47t127 109.5t97.5 126t39 94.5q45 256 121 456.5t172 327.5q47 -6 86 -39 q-23 -33 -53.5 -95t-63.5 -140t-64.5 -166t-56 -171t-40 -154.5t-15.5 -116.5q0 -68 10.5 -134.5t36 -121t70.5 -90t112 -41.5q-20 -4 -33.5 -7.5t-23.5 -3.5q-35 0 -74 15.5t-75.5 52.5t-67.5 96.5t-49 147.5q-31 -49 -69 -96.5t-84 -84.5t-98 -59.5t-112 -22.5 q-123 0 -187.5 84t-64.5 275zM571 1370q0 20 8.5 41t19.5 37t19 29.5t8 23.5q47 0 71 -16t24 -37q0 -18 -12.5 -37.5t-28 -40t-30.5 -41.5t-19 -39q-35 4 -47.5 28t-12.5 52zM850 1362q0 25 8 45.5t18.5 37.5t18.5 30.5t8 23.5q47 0 71.5 -19.5t24.5 -37.5q0 -20 -12 -38.5 t-27.5 -37t-31 -37.5t-21.5 -39q-33 6 -45 24.5t-12 47.5z" />
<glyph unicode="&#xdd;" horiz-adv-x="628" d="M143 328q0 106 37 228t86 245t97.5 240.5t70.5 220.5q10 -41 16.5 -77t6.5 -71q0 -94 -33 -188.5t-71 -192.5t-70.5 -201.5t-32.5 -216.5q0 -12 2 -40.5t10 -58.5t21.5 -53.5t35.5 -23.5q20 0 57.5 42t80.5 106.5t86 141.5t71 144q59 135 110.5 290t92.5 315q49 6 69.5 7 t43.5 1q-10 -33 -35 -109t-58.5 -180t-73.5 -229t-81 -254t-80 -254t-69.5 -229.5t-51 -181.5t-24.5 -109q-6 -29 -6 -64q0 -20 2 -33.5t16 -13.5q20 0 34.5 22.5t24.5 49.5q-10 -57 -32.5 -93t-77.5 -36q-41 0 -56.5 33.5t-15.5 80.5q0 33 11.5 88.5t30 121t41 137t47 139 t47 125t40.5 94.5q-25 -31 -51.5 -64.5t-55 -63.5t-61.5 -53.5t-69 -31.5q-51 2 -86 23.5t-56.5 55t-31 79t-9.5 92.5zM559 1272q35 12 69.5 53t73.5 85t84.5 82t104.5 46q-25 -59 -64 -111.5t-81 -91t-82 -61t-66 -22.5q-8 0 -21.5 4t-17.5 16z" />
<glyph unicode="&#xde;" horiz-adv-x="841" d="M-309 582q0 59 32.5 105t86 79t122 54.5t139 34.5t136 18.5t117.5 5.5q41 94 77.5 164.5t85.5 123.5q-20 -51 -43.5 -125.5t-52.5 -167.5q94 -6 190.5 -28.5t174.5 -64.5t126 -105.5t48 -155.5v-51q0 -12 -21.5 -49t-96.5 -79t-220.5 -82t-390.5 -58 q-29 -100 -53.5 -188.5t-38.5 -178.5q-37 37 -37 127q0 53 10 113.5t27 113.5q-43 -6 -82 -6q-41 0 -82 5.5t-84 17.5q27 6 62.5 11t72.5 9t71.5 9.5t57.5 11.5q53 190 95 333.5t83 249.5q-68 0 -158 -12t-173 -46t-145.5 -92t-76.5 -149l-6 -16q-53 0 -53 68zM223 266 q37 10 101.5 23.5t137.5 32t147.5 41t136 51t99.5 63.5t38 80q0 61 -54.5 106.5t-133.5 78t-165.5 52t-152.5 29.5q-23 -74 -44.5 -150.5t-42 -149t-36.5 -139.5t-31 -118z" />
<glyph unicode="&#xdf;" horiz-adv-x="698" d="M39 -492q0 109 6 255.5t16.5 296t24 282.5t29.5 215q6 61 22.5 150.5t42 186.5t62.5 194.5t85 174t108.5 125t133.5 48.5q92 0 140.5 -52.5t48.5 -156.5q0 -88 -28 -165t-76 -143.5t-112.5 -122t-138.5 -100.5q39 -4 88.5 -23.5t93.5 -56t74.5 -93t30.5 -136.5 q0 -72 -27.5 -130t-70.5 -102t-96.5 -76t-105.5 -51.5t-97 -28.5t-70 -9q63 35 124 71.5t107 79.5t73.5 97.5t27.5 121.5q0 55 -16.5 104.5t-46 89.5t-68.5 67.5t-84 40.5q-23 -10 -43.5 -18.5t-42.5 -16.5q-4 -41 -12.5 -120t-17.5 -175t-18 -199.5t-18.5 -196t-16.5 -163 t-11 -99.5q-6 -41 -33 -109.5t-82 -137.5q-4 18 -5 38.5t-1 42.5zM256 655q82 35 161 88.5t139 123t97 157.5t37 195q0 27 -4 55.5t-14 52t-28.5 37.5t-47.5 14q-59 0 -105.5 -40t-82 -103.5t-61 -143t-43 -159.5t-30 -154t-18.5 -123z" />
<glyph unicode="&#xe0;" d="M70 154q0 92 45 184t115.5 173t156.5 144.5t168 96.5q55 -12 103.5 -43t60.5 -72q-27 -43 -58.5 -104.5t-58.5 -127t-45 -127t-18 -104.5q0 -35 9 -68.5t28.5 -61.5t48 -44t65.5 -16q-6 -16 -30.5 -22.5t-38.5 -6.5q-96 0 -133 49t-37 121q0 20 1 38.5t7 41.5 q-4 0 -27.5 -35t-61.5 -78t-85 -77.5t-99 -34.5q-31 0 -53 16t-35.5 43t-20.5 56.5t-7 58.5zM125 63q0 -25 31 -24q39 0 93 43t108.5 103.5t99.5 124t63 106.5q12 27 23.5 59.5t20.5 65t17.5 63t12.5 53.5q-74 -35 -156 -99t-151.5 -145t-115.5 -172t-46 -178zM465 1055 q80 0 132 -58.5t97 -168.5q-68 0 -107.5 26.5t-62 63.5t-34 75.5t-25.5 61.5z" />
<glyph unicode="&#xe1;" d="M70 154q0 92 45 184t115.5 173t156.5 144.5t168 96.5q55 -12 103.5 -43t60.5 -72q-27 -43 -58.5 -104.5t-58.5 -127t-45 -127t-18 -104.5q0 -35 9 -68.5t28.5 -61.5t48 -44t65.5 -16q-6 -16 -30.5 -22.5t-38.5 -6.5q-96 0 -133 49t-37 121q0 20 1 38.5t7 41.5 q-4 0 -27.5 -35t-61.5 -78t-85 -77.5t-99 -34.5q-31 0 -53 16t-35.5 43t-20.5 56.5t-7 58.5zM125 63q0 -25 31 -24q39 0 93 43t108.5 103.5t99.5 124t63 106.5q12 27 23.5 59.5t20.5 65t17.5 63t12.5 53.5q-74 -35 -156 -99t-151.5 -145t-115.5 -172t-46 -178zM475 811 q35 12 69.5 53t73.5 85t84.5 82t104.5 46q-25 -59 -64 -111.5t-81 -91t-82 -61t-66 -22.5q-8 0 -21.5 4t-17.5 16z" />
<glyph unicode="&#xe2;" d="M70 154q0 92 45 184t115.5 173t156.5 144.5t168 96.5q55 -12 103.5 -43t60.5 -72q-27 -43 -58.5 -104.5t-58.5 -127t-45 -127t-18 -104.5q0 -35 9 -68.5t28.5 -61.5t48 -44t65.5 -16q-6 -16 -30.5 -22.5t-38.5 -6.5q-96 0 -133 49t-37 121q0 20 1 38.5t7 41.5 q-4 0 -27.5 -35t-61.5 -78t-85 -77.5t-99 -34.5q-31 0 -53 16t-35.5 43t-20.5 56.5t-7 58.5zM125 63q0 -25 31 -24q39 0 93 43t108.5 103.5t99.5 124t63 106.5q12 27 23.5 59.5t20.5 65t17.5 63t12.5 53.5q-74 -35 -156 -99t-151.5 -145t-115.5 -172t-46 -178zM406 862 q27 4 60.5 33t70.5 72t75 95t70 106l70 -13q0 -53 -1 -89t-1 -52q0 -66 19.5 -129t91.5 -92q-55 2 -92 21.5t-57.5 51t-29 75.5t-8.5 94v22h-2q-14 -25 -37.5 -62.5t-52.5 -73.5t-60.5 -61.5t-62.5 -25.5q-29 0 -53 28z" />
<glyph unicode="&#xe3;" d="M70 154q0 92 45 184t115.5 173t156.5 144.5t168 96.5q55 -12 103.5 -43t60.5 -72q-27 -43 -58.5 -104.5t-58.5 -127t-45 -127t-18 -104.5q0 -35 9 -68.5t28.5 -61.5t48 -44t65.5 -16q-6 -16 -30.5 -22.5t-38.5 -6.5q-96 0 -133 49t-37 121q0 20 1 38.5t7 41.5 q-4 0 -27.5 -35t-61.5 -78t-85 -77.5t-99 -34.5q-31 0 -53 16t-35.5 43t-20.5 56.5t-7 58.5zM125 63q0 -25 31 -24q39 0 93 43t108.5 103.5t99.5 124t63 106.5q12 27 23.5 59.5t20.5 65t17.5 63t12.5 53.5q-74 -35 -156 -99t-151.5 -145t-115.5 -172t-46 -178zM399 924 q31 0 53.5 19.5t46 43t51.5 43t69 19.5q61 0 96 -18.5t53 -42t25.5 -42t17.5 -18.5q8 0 18.5 2t23.5 10t30.5 24.5t42.5 45.5q6 -10 8 -26.5t2 -37.5q0 -20 -10 -35.5t-23.5 -26.5t-28 -16.5t-20.5 -5.5q-35 0 -63.5 21.5t-50 46.5t-36 46.5t-22.5 21.5q-23 0 -50.5 -18.5 t-56 -41t-58.5 -41t-56 -18.5q-51 0 -62 45z" />
<glyph unicode="&#xe4;" d="M70 154q0 92 45 184t115.5 173t156.5 144.5t168 96.5q55 -12 103.5 -43t60.5 -72q-27 -43 -58.5 -104.5t-58.5 -127t-45 -127t-18 -104.5q0 -35 9 -68.5t28.5 -61.5t48 -44t65.5 -16q-6 -16 -30.5 -22.5t-38.5 -6.5q-96 0 -133 49t-37 121q0 20 1 38.5t7 41.5 q-4 0 -27.5 -35t-61.5 -78t-85 -77.5t-99 -34.5q-31 0 -53 16t-35.5 43t-20.5 56.5t-7 58.5zM125 63q0 -25 31 -24q39 0 93 43t108.5 103.5t99.5 124t63 106.5q12 27 23.5 59.5t20.5 65t17.5 63t12.5 53.5q-74 -35 -156 -99t-151.5 -145t-115.5 -172t-46 -178zM448 942 q0 20 8.5 41t19.5 37t19 29.5t8 23.5q47 0 71 -16t24 -37q0 -18 -12.5 -37.5t-28 -40t-30.5 -41.5t-19 -39q-35 4 -47.5 28t-12.5 52zM727 934q0 25 8 45.5t18.5 37.5t18.5 30.5t8 23.5q47 0 71.5 -19.5t24.5 -37.5q0 -20 -12 -38.5t-27.5 -37t-31 -37.5t-21.5 -39 q-33 6 -45 24.5t-12 47.5z" />
<glyph unicode="&#xe5;" d="M70 154q0 92 45 184t115.5 173t156.5 144.5t168 96.5q55 -12 103.5 -43t60.5 -72q-27 -43 -58.5 -104.5t-58.5 -127t-45 -127t-18 -104.5q0 -35 9 -68.5t28.5 -61.5t48 -44t65.5 -16q-6 -16 -30.5 -22.5t-38.5 -6.5q-96 0 -133 49t-37 121q0 20 1 38.5t7 41.5 q-4 0 -27.5 -35t-61.5 -78t-85 -77.5t-99 -34.5q-31 0 -53 16t-35.5 43t-20.5 56.5t-7 58.5zM125 63q0 -25 31 -24q39 0 93 43t108.5 103.5t99.5 124t63 106.5q12 27 23.5 59.5t20.5 65t17.5 63t12.5 53.5q-74 -35 -156 -99t-151.5 -145t-115.5 -172t-46 -178zM510 897 q0 37 15.5 81t46.5 81t76 62.5t104 25.5q2 -10 20.5 -19.5t40 -25.5t39 -43t17.5 -70q0 -35 -13.5 -73.5t-39 -71.5t-62.5 -54.5t-84 -21.5q-160 10 -160 129zM596 875q1 -29 19 -43q39 0 70.5 18.5t55 45t37 57t13.5 57.5q0 35 -16.5 47t-24.5 12q-25 0 -51.5 -13t-49 -39 t-38 -61.5t-15.5 -80.5z" />
<glyph unicode="&#xe6;" horiz-adv-x="1124" d="M68 154q0 90 44 182t114.5 172t157.5 144.5t171 99.5q41 -8 83 -32t64 -58q68 63 146 90q39 0 79 -8.5t73.5 -27t57 -47t34.5 -69.5q-14 -49 -52.5 -104.5t-90.5 -102.5t-113.5 -77.5t-120.5 -30.5q-35 0 -63.5 11t-41.5 28q-4 -4 -12 -20.5t-16.5 -40t-13.5 -51.5 t-5 -54q0 -63 42 -89t95 -26q47 0 117 27.5t140.5 77t133 116t97.5 142.5q-18 -102 -70.5 -181.5t-120 -133.5t-140.5 -82.5t-130 -28.5q-98 0 -150 31.5t-81 82.5q-29 -27 -65 -64.5t-73 -92.5q12 41 23.5 73.5t24 63t28 61.5t35.5 66q-18 -23 -50 -61t-71 -73.5t-82 -61 t-82 -25.5q-31 0 -53 16t-35.5 43t-20.5 56.5t-7 58.5zM123 63q0 -25 33 -24q37 0 91 43t108.5 102.5t98.5 124t62 107.5q23 53 43.5 123.5t32.5 117.5q-80 -31 -158 -95t-143.5 -145t-109.5 -171t-56 -174q0 -2 -1 -3t-1 -6zM629 371q4 -10 24.5 -16.5t30.5 -6.5 q20 0 70.5 18.5t103.5 51.5t94 80t41 102q0 27 -23 53.5t-46 28.5q-39 -4 -86 -43t-90 -90t-76 -101.5t-43 -76.5z" />
<glyph unicode="&#xe7;" horiz-adv-x="643" d="M61 256q0 80 33 167t88.5 159.5t129 120t157.5 47.5q100 0 150.5 -41t50.5 -84q0 -63 -60 -76q0 25 -11 47t-29.5 39.5t-39 27t-38.5 9.5q-63 0 -121 -50.5t-101 -126t-68.5 -162.5t-25.5 -161q0 -55 16.5 -99t65.5 -44q55 0 108.5 21.5t100.5 54t88 72.5t72 79 q-8 -35 -37 -75t-71 -77.5t-93 -67.5t-102 -42q29 -25 48 -62.5t19 -91.5q0 -47 -16.5 -81.5t-42 -57.5t-56 -34t-57.5 -11q-35 0 -69.5 18t-40.5 41q12 -2 20 -2h14q78 0 119 39t41 144q0 47 -10 94q-18 -6 -43 -6q-51 0 -87 23.5t-58.5 62.5t-33 88t-10.5 98z" />
<glyph unicode="&#xe8;" horiz-adv-x="708" d="M63 215q0 96 49.5 198.5t141.5 202.5q45 49 90 86t96 50q39 0 80 -8.5t75 -27t58.5 -47t30.5 -69.5q-12 -49 -50 -104.5t-90 -102.5t-114.5 -77.5t-122.5 -30.5q-35 0 -62.5 11t-41.5 28q-4 -4 -12.5 -20.5t-15.5 -40t-13 -51.5t-6 -54q0 -63 42 -89t95 -26 q45 0 115.5 27.5t143.5 77t136 116t96 142.5q-23 -104 -79 -185.5t-126.5 -135.5t-145.5 -82t-132 -28q-68 0 -113 20.5t-72.5 54.5t-40 77t-12.5 88zM221 371q6 -10 26.5 -16.5t33.5 -6.5q20 0 70 18.5t103.5 51.5t94.5 80t41 102q0 27 -25.5 53.5t-48.5 28.5 q-41 -4 -87 -43t-88 -89t-75 -101.5t-45 -77.5zM342 1063q80 0 132 -58.5t97 -168.5q-68 0 -107.5 26.5t-62 63.5t-34 75.5t-25.5 61.5z" />
<glyph unicode="&#xe9;" horiz-adv-x="708" d="M63 215q0 96 49.5 198.5t141.5 202.5q45 49 90 86t96 50q39 0 80 -8.5t75 -27t58.5 -47t30.5 -69.5q-12 -49 -50 -104.5t-90 -102.5t-114.5 -77.5t-122.5 -30.5q-35 0 -62.5 11t-41.5 28q-4 -4 -12.5 -20.5t-15.5 -40t-13 -51.5t-6 -54q0 -63 42 -89t95 -26 q45 0 115.5 27.5t143.5 77t136 116t96 142.5q-23 -104 -79 -185.5t-126.5 -135.5t-145.5 -82t-132 -28q-68 0 -113 20.5t-72.5 54.5t-40 77t-12.5 88zM221 371q6 -10 26.5 -16.5t33.5 -6.5q20 0 70 18.5t103.5 51.5t94.5 80t41 102q0 27 -25.5 53.5t-48.5 28.5 q-41 -4 -87 -43t-88 -89t-75 -101.5t-45 -77.5zM320 817q35 12 69.5 53t73.5 85t84.5 82t104.5 46q-25 -59 -64 -111.5t-81 -91t-82 -61t-66 -22.5q-8 0 -21.5 4t-17.5 16z" />
<glyph unicode="&#xea;" horiz-adv-x="708" d="M63 215q0 96 49.5 198.5t141.5 202.5q45 49 90 86t96 50q39 0 80 -8.5t75 -27t58.5 -47t30.5 -69.5q-12 -49 -50 -104.5t-90 -102.5t-114.5 -77.5t-122.5 -30.5q-35 0 -62.5 11t-41.5 28q-4 -4 -12.5 -20.5t-15.5 -40t-13 -51.5t-6 -54q0 -63 42 -89t95 -26 q45 0 115.5 27.5t143.5 77t136 116t96 142.5q-23 -104 -79 -185.5t-126.5 -135.5t-145.5 -82t-132 -28q-68 0 -113 20.5t-72.5 54.5t-40 77t-12.5 88zM221 371q6 -10 26.5 -16.5t33.5 -6.5q20 0 70 18.5t103.5 51.5t94.5 80t41 102q0 27 -25.5 53.5t-48.5 28.5 q-41 -4 -87 -43t-88 -89t-75 -101.5t-45 -77.5zM287 860q27 4 60.5 33t70.5 72t75 95t70 106l70 -13q0 -53 -1 -89t-1 -52q0 -66 19.5 -129t91.5 -92q-55 2 -92 21.5t-57.5 51t-29 75.5t-8.5 94v22h-2q-14 -25 -37.5 -62.5t-52.5 -73.5t-60.5 -61.5t-62.5 -25.5 q-29 0 -53 28z" />
<glyph unicode="&#xeb;" horiz-adv-x="708" d="M63 215q0 96 49.5 198.5t141.5 202.5q45 49 90 86t96 50q39 0 80 -8.5t75 -27t58.5 -47t30.5 -69.5q-12 -49 -50 -104.5t-90 -102.5t-114.5 -77.5t-122.5 -30.5q-35 0 -62.5 11t-41.5 28q-4 -4 -12.5 -20.5t-15.5 -40t-13 -51.5t-6 -54q0 -63 42 -89t95 -26 q45 0 115.5 27.5t143.5 77t136 116t96 142.5q-23 -104 -79 -185.5t-126.5 -135.5t-145.5 -82t-132 -28q-68 0 -113 20.5t-72.5 54.5t-40 77t-12.5 88zM221 371q6 -10 26.5 -16.5t33.5 -6.5q20 0 70 18.5t103.5 51.5t94.5 80t41 102q0 27 -25.5 53.5t-48.5 28.5 q-41 -4 -87 -43t-88 -89t-75 -101.5t-45 -77.5zM319 934q0 20 8.5 41t19.5 37t19 29.5t8 23.5q47 0 71 -16t24 -37q0 -18 -12.5 -37.5t-28 -40t-30.5 -41.5t-19 -39q-35 4 -47.5 28t-12.5 52zM598 926q0 25 8 45.5t18.5 37.5t18.5 30.5t8 23.5q47 0 71.5 -19.5t24.5 -37.5 q0 -20 -12 -38.5t-27.5 -37t-31 -37.5t-21.5 -39q-33 6 -45 24.5t-12 47.5z" />
<glyph unicode="&#xec;" horiz-adv-x="352" d="M61 186q0 70 19.5 146t50.5 150.5t68 144t73 125.5q61 -10 88 -45q-98 -188 -136 -346t-38 -242q0 -35 5.5 -57.5t19.5 -22.5q27 0 53.5 21.5t50 54t42 68.5t30.5 65q2 -6 2 -29q0 -31 -14.5 -68.5t-40 -72.5t-60 -63.5t-77.5 -43.5q-35 0 -59.5 17.5t-42 47.5t-26 68.5 t-8.5 81.5zM166 1063q80 0 132 -58.5t97 -168.5q-68 0 -107.5 26.5t-62 63.5t-34 75.5t-25.5 61.5z" />
<glyph unicode="&#xed;" horiz-adv-x="352" d="M61 186q0 70 19.5 146t50.5 150.5t68 144t73 125.5q61 -10 88 -45q-98 -188 -136 -346t-38 -242q0 -35 5.5 -57.5t19.5 -22.5q27 0 53.5 21.5t50 54t42 68.5t30.5 65q2 -6 2 -29q0 -31 -14.5 -68.5t-40 -72.5t-60 -63.5t-77.5 -43.5q-35 0 -59.5 17.5t-42 47.5t-26 68.5 t-8.5 81.5zM197 825q35 12 69.5 53t73.5 85t84.5 82t104.5 46q-25 -59 -64 -111.5t-81 -91t-82 -61t-66 -22.5q-8 0 -21.5 4t-17.5 16z" />
<glyph unicode="&#xee;" horiz-adv-x="352" d="M61 186q0 70 19.5 146t50.5 150.5t68 144t73 125.5q61 -10 88 -45q-98 -188 -136 -346t-38 -242q0 -35 5.5 -57.5t19.5 -22.5q27 0 53.5 21.5t50 54t42 68.5t30.5 65q2 -6 2 -29q0 -31 -14.5 -68.5t-40 -72.5t-60 -63.5t-77.5 -43.5q-35 0 -59.5 17.5t-42 47.5t-26 68.5 t-8.5 81.5zM154 866q27 4 60.5 33t70.5 72t75 95t70 106l70 -13q0 -53 -1 -89t-1 -52q0 -66 19.5 -129t91.5 -92q-55 2 -92 21.5t-57.5 51t-29 75.5t-8.5 94v22h-2q-14 -25 -37.5 -62.5t-52.5 -73.5t-60.5 -61.5t-62.5 -25.5q-29 0 -53 28z" />
<glyph unicode="&#xef;" horiz-adv-x="352" d="M61 186q0 70 19.5 146t50.5 150.5t68 144t73 125.5q61 -10 88 -45q-98 -188 -136 -346t-38 -242q0 -35 5.5 -57.5t19.5 -22.5q27 0 53.5 21.5t50 54t42 68.5t30.5 65q2 -6 2 -29q0 -31 -14.5 -68.5t-40 -72.5t-60 -63.5t-77.5 -43.5q-35 0 -59.5 17.5t-42 47.5t-26 68.5 t-8.5 81.5zM180 948q0 20 8.5 41t19.5 37t19 29.5t8 23.5q47 0 71 -16t24 -37q0 -18 -12.5 -37.5t-28 -40t-30.5 -41.5t-19 -39q-35 4 -47.5 28t-12.5 52zM459 940q0 25 8 45.5t18.5 37.5t18.5 30.5t8 23.5q47 0 71.5 -19.5t24.5 -37.5q0 -20 -12 -38.5t-27.5 -37t-31 -37.5 t-21.5 -39q-33 6 -45 24.5t-12 47.5z" />
<glyph unicode="&#xf0;" horiz-adv-x="712" d="M72 299q0 86 30.5 161t79.5 128t112.5 83.5t131.5 30.5q66 0 108 -36t58 -91q-6 82 -29.5 165t-55.5 160t-72 144.5t-79 122.5q68 -20 130.5 -84.5t110.5 -160t75.5 -213t27.5 -242.5q0 -92 -20.5 -182t-62.5 -161t-106.5 -114t-152.5 -43q-55 0 -107 26.5t-92 72 t-63.5 105.5t-23.5 128zM172 360q0 -53 17.5 -112.5t48 -110.5t71.5 -85t88 -34q41 0 76 33t61.5 81t41 105.5t14.5 106.5q0 12 -2 23.5t-6 23.5q-31 -63 -76 -63q-18 0 -37 24q31 0 51.5 27t20.5 70q0 31 -14.5 66.5t-39 66t-57.5 51t-70 20.5q-43 0 -77.5 -27.5t-59 -70.5 t-38 -95t-13.5 -100z" />
<glyph unicode="&#xf1;" horiz-adv-x="616" d="M39 -14q12 59 31.5 142t38 173t31 178t12.5 158q0 61 -15.5 108.5t-56.5 79.5q90 -10 123 -63t33 -123q0 -55 -17 -117q20 47 43 87t53.5 70t69.5 47t94 17q37 0 61.5 -17t39 -47t19.5 -71t5 -86q0 -68 -6 -140.5t-20.5 -144t-38 -138t-58.5 -119.5q-25 8 -51.5 29.5 t-36.5 41.5q23 76 42.5 154t33.5 155q0 10 3 38t6 63t6 74.5t3 76.5t-4 62.5t-14 25.5q-33 0 -63.5 -27.5t-55 -65.5t-43 -76.5t-24.5 -61.5q-53 -129 -81 -266t-52 -266q-29 6 -61 18t-50 31zM161 930q31 0 53.5 19.5t46 43t51.5 43t69 19.5q61 0 96 -18.5t53 -42t25.5 -42 t17.5 -18.5q8 0 18.5 2t23.5 10t30.5 24.5t42.5 45.5q6 -10 8 -26.5t2 -37.5q0 -20 -10 -35.5t-23.5 -26.5t-28 -16.5t-20.5 -5.5q-35 0 -63.5 21.5t-50 46.5t-36 46.5t-22.5 21.5q-23 0 -50.5 -18.5t-56 -41t-58.5 -41t-56 -18.5q-51 0 -62 45z" />
<glyph unicode="&#xf2;" horiz-adv-x="761" d="M51 223q0 39 14.5 94.5t40 116t62.5 118.5t81 104t94 75t106 29q68 0 123 -24.5t95 -66.5t62.5 -98.5t22.5 -119.5q0 -86 -39 -171t-102.5 -153t-144.5 -111t-165 -43q-123 0 -186.5 70t-63.5 180zM131 182q0 -51 24.5 -87t92.5 -36q82 0 155.5 39t129 100.5t88 136.5 t32.5 146q0 37 -8 72t-25.5 60.5t-46 42t-69.5 16.5q-59 0 -125 -54.5t-121 -131t-91 -160.5t-36 -144zM369 1063q80 0 132 -58.5t97 -168.5q-68 0 -107.5 26.5t-62 63.5t-34 75.5t-25.5 61.5z" />
<glyph unicode="&#xf3;" horiz-adv-x="761" d="M51 223q0 39 14.5 94.5t40 116t62.5 118.5t81 104t94 75t106 29q68 0 123 -24.5t95 -66.5t62.5 -98.5t22.5 -119.5q0 -86 -39 -171t-102.5 -153t-144.5 -111t-165 -43q-123 0 -186.5 70t-63.5 180zM131 182q0 -51 24.5 -87t92.5 -36q82 0 155.5 39t129 100.5t88 136.5 t32.5 146q0 37 -8 72t-25.5 60.5t-46 42t-69.5 16.5q-59 0 -125 -54.5t-121 -131t-91 -160.5t-36 -144zM316 811q35 12 69.5 53t73.5 85t84.5 82t104.5 46q-25 -59 -64 -111.5t-81 -91t-82 -61t-66 -22.5q-8 0 -21.5 4t-17.5 16z" />
<glyph unicode="&#xf4;" horiz-adv-x="761" d="M51 223q0 39 14.5 94.5t40 116t62.5 118.5t81 104t94 75t106 29q68 0 123 -24.5t95 -66.5t62.5 -98.5t22.5 -119.5q0 -86 -39 -171t-102.5 -153t-144.5 -111t-165 -43q-123 0 -186.5 70t-63.5 180zM131 182q0 -51 24.5 -87t92.5 -36q82 0 155.5 39t129 100.5t88 136.5 t32.5 146q0 37 -8 72t-25.5 60.5t-46 42t-69.5 16.5q-59 0 -125 -54.5t-121 -131t-91 -160.5t-36 -144zM285 868q27 4 60.5 33t70.5 72t75 95t70 106l70 -13q0 -53 -1 -89t-1 -52q0 -66 19.5 -129t91.5 -92q-55 2 -92 21.5t-57.5 51t-29 75.5t-8.5 94v22h-2 q-14 -25 -37.5 -62.5t-52.5 -73.5t-60.5 -61.5t-62.5 -25.5q-29 0 -53 28z" />
<glyph unicode="&#xf5;" horiz-adv-x="761" d="M51 223q0 39 14.5 94.5t40 116t62.5 118.5t81 104t94 75t106 29q68 0 123 -24.5t95 -66.5t62.5 -98.5t22.5 -119.5q0 -86 -39 -171t-102.5 -153t-144.5 -111t-165 -43q-123 0 -186.5 70t-63.5 180zM131 182q0 -51 24.5 -87t92.5 -36q82 0 155.5 39t129 100.5t88 136.5 t32.5 146q0 37 -8 72t-25.5 60.5t-46 42t-69.5 16.5q-59 0 -125 -54.5t-121 -131t-91 -160.5t-36 -144zM256 930q31 0 53.5 19.5t46 43t51.5 43t69 19.5q61 0 96 -18.5t53 -42t25.5 -42t17.5 -18.5q8 0 18.5 2t23.5 10t30.5 24.5t42.5 45.5q6 -10 8 -26.5t2 -37.5 q0 -20 -10 -35.5t-23.5 -26.5t-28 -16.5t-20.5 -5.5q-35 0 -63.5 21.5t-50 46.5t-36 46.5t-22.5 21.5q-23 0 -50.5 -18.5t-56 -41t-58.5 -41t-56 -18.5q-51 0 -62 45z" />
<glyph unicode="&#xf6;" horiz-adv-x="761" d="M51 223q0 39 14.5 94.5t40 116t62.5 118.5t81 104t94 75t106 29q68 0 123 -24.5t95 -66.5t62.5 -98.5t22.5 -119.5q0 -86 -39 -171t-102.5 -153t-144.5 -111t-165 -43q-123 0 -186.5 70t-63.5 180zM131 182q0 -51 24.5 -87t92.5 -36q82 0 155.5 39t129 100.5t88 136.5 t32.5 146q0 37 -8 72t-25.5 60.5t-46 42t-69.5 16.5q-59 0 -125 -54.5t-121 -131t-91 -160.5t-36 -144zM325 948q0 20 8.5 41t19.5 37t19 29.5t8 23.5q47 0 71 -16t24 -37q0 -18 -12.5 -37.5t-28 -40t-30.5 -41.5t-19 -39q-35 4 -47.5 28t-12.5 52zM604 940q0 25 8 45.5 t18.5 37.5t18.5 30.5t8 23.5q47 0 71.5 -19.5t24.5 -37.5q0 -20 -12 -38.5t-27.5 -37t-31 -37.5t-21.5 -39q-33 6 -45 24.5t-12 47.5z" />
<glyph unicode="&#xf7;" horiz-adv-x="980" d="M133 616q59 -23 122.5 -27.5t131.5 -4.5q104 0 200.5 1t194.5 5q41 2 93.5 6t91.5 20q-39 -37 -84 -58t-103.5 -30.5t-132.5 -11.5t-168 -2q-66 0 -122 2t-101 11.5t-77 30t-46 58.5zM410 25q0 41 10 79.5t23.5 72.5t24.5 60.5t13 43.5q43 0 66.5 -31t23.5 -64 q0 -35 -13 -67.5t-31.5 -65.5t-38 -66.5t-29.5 -70.5q-49 23 -49 109zM547 895q0 41 10 79.5t23.5 72.5t24.5 60.5t13 43.5q43 0 66.5 -31t23.5 -64q0 -35 -13 -67.5t-31.5 -65.5t-38 -66.5t-29.5 -70.5q-49 23 -49 109z" />
<glyph unicode="&#xf8;" horiz-adv-x="761" d="M51 223q0 59 32 150.5t85 177.5t126 147.5t155 61.5q41 0 76.5 -10.5t70.5 -26.5q41 59 59.5 92t26.5 70q18 -18 18 -45q0 -29 -12 -70t-35 -88q98 -86 99 -231q0 -86 -39 -171t-102.5 -154t-144.5 -111t-165 -42q-20 0 -40 4.5t-38 8.5q-16 -37 -33.5 -72t-17.5 -57 q0 -14 7 -19.5t32 -7.5q-29 -23 -59 -23q-16 0 -34 13.5t-18 46.5q0 23 14.5 59.5t41.5 83.5q-104 68 -105 213zM131 182q0 -37 11 -67.5t46 -44.5q35 66 83 142.5t99.5 155t101.5 153.5t87 136q-29 14 -55 15q-41 0 -84 -25.5t-85 -66.5t-79 -94.5t-64.5 -107.5t-44 -105.5 t-16.5 -90.5zM266 59q76 4 145.5 44t124 100.5t86 133.5t31.5 144q0 37 -7 73t-30 62l-2 -4q-37 -63 -82 -133.5t-91 -143.5t-91 -142.5t-84 -133.5z" />
<glyph unicode="&#xf9;" horiz-adv-x="550" d="M45 178q0 29 13.5 99.5t39 157.5t65.5 176t95 153q12 -14 19.5 -30.5t11.5 -41.5q-23 -59 -45.5 -126.5t-43 -139.5t-32.5 -144.5t-12 -140.5q0 -41 14 -78.5t57 -48.5q70 59 114 149.5t69.5 188t39 190.5t19.5 158q16 6 33.5 7.5t38.5 1.5h21t20 -2q-12 -61 -24.5 -135 t-23 -150t-17.5 -149.5t-7 -137.5q0 -66 15.5 -122t68.5 -85q-29 -14 -53 -14q-31 0 -54.5 21.5t-40 52t-25.5 65.5t-13 64q-12 -23 -36 -48.5t-52.5 -46t-61.5 -34t-61 -13.5q-43 0 -72 17.5t-47.5 45.5t-25.5 64.5t-7 75.5zM264 1063q80 0 132 -58.5t97 -168.5 q-68 0 -107.5 26.5t-62 63.5t-34 75.5t-25.5 61.5z" />
<glyph unicode="&#xfa;" horiz-adv-x="550" d="M45 178q0 29 13.5 99.5t39 157.5t65.5 176t95 153q12 -14 19.5 -30.5t11.5 -41.5q-23 -59 -45.5 -126.5t-43 -139.5t-32.5 -144.5t-12 -140.5q0 -41 14 -78.5t57 -48.5q70 59 114 149.5t69.5 188t39 190.5t19.5 158q16 6 33.5 7.5t38.5 1.5h21t20 -2q-12 -61 -24.5 -135 t-23 -150t-17.5 -149.5t-7 -137.5q0 -66 15.5 -122t68.5 -85q-29 -14 -53 -14q-31 0 -54.5 21.5t-40 52t-25.5 65.5t-13 64q-12 -23 -36 -48.5t-52.5 -46t-61.5 -34t-61 -13.5q-43 0 -72 17.5t-47.5 45.5t-25.5 64.5t-7 75.5zM277 813q35 12 69.5 53t73.5 85t84.5 82 t104.5 46q-25 -59 -64 -111.5t-81 -91t-82 -61t-66 -22.5q-8 0 -21.5 4t-17.5 16z" />
<glyph unicode="&#xfb;" horiz-adv-x="550" d="M45 178q0 29 13.5 99.5t39 157.5t65.5 176t95 153q12 -14 19.5 -30.5t11.5 -41.5q-23 -59 -45.5 -126.5t-43 -139.5t-32.5 -144.5t-12 -140.5q0 -41 14 -78.5t57 -48.5q70 59 114 149.5t69.5 188t39 190.5t19.5 158q16 6 33.5 7.5t38.5 1.5h21t20 -2q-12 -61 -24.5 -135 t-23 -150t-17.5 -149.5t-7 -137.5q0 -66 15.5 -122t68.5 -85q-29 -14 -53 -14q-31 0 -54.5 21.5t-40 52t-25.5 65.5t-13 64q-12 -23 -36 -48.5t-52.5 -46t-61.5 -34t-61 -13.5q-43 0 -72 17.5t-47.5 45.5t-25.5 64.5t-7 75.5zM209 847q27 4 60.5 33t70.5 72t75 95t70 106 l70 -13q0 -53 -1 -89t-1 -52q0 -66 19.5 -129t91.5 -92q-55 2 -92 21.5t-57.5 51t-29 75.5t-8.5 94v22h-2q-14 -25 -37.5 -62.5t-52.5 -73.5t-60.5 -61.5t-62.5 -25.5q-29 0 -53 28z" />
<glyph unicode="&#xfc;" horiz-adv-x="550" d="M45 178q0 29 13.5 99.5t39 157.5t65.5 176t95 153q12 -14 19.5 -30.5t11.5 -41.5q-23 -59 -45.5 -126.5t-43 -139.5t-32.5 -144.5t-12 -140.5q0 -41 14 -78.5t57 -48.5q70 59 114 149.5t69.5 188t39 190.5t19.5 158q16 6 33.5 7.5t38.5 1.5h21t20 -2q-12 -61 -24.5 -135 t-23 -150t-17.5 -149.5t-7 -137.5q0 -66 15.5 -122t68.5 -85q-29 -14 -53 -14q-31 0 -54.5 21.5t-40 52t-25.5 65.5t-13 64q-12 -23 -36 -48.5t-52.5 -46t-61.5 -34t-61 -13.5q-43 0 -72 17.5t-47.5 45.5t-25.5 64.5t-7 75.5zM252 917q0 20 8.5 41t19.5 37t19 29.5t8 23.5 q47 0 71 -16t24 -37q0 -18 -12.5 -37.5t-28 -40t-30.5 -41.5t-19 -39q-35 4 -47.5 28t-12.5 52zM531 909q0 25 8 45.5t18.5 37.5t18.5 30.5t8 23.5q47 0 71.5 -19.5t24.5 -37.5q0 -20 -12 -38.5t-27.5 -37t-31 -37.5t-21.5 -39q-33 6 -45 24.5t-12 47.5z" />
<glyph unicode="&#xfd;" horiz-adv-x="540" d="M2 86q0 78 39 166t88 177t96 174t64 157q23 -72 22 -131q0 -84 -34.5 -155t-75.5 -136.5t-76 -130t-35 -137.5q0 -16 8 -28.5t17 -12.5q10 0 40.5 26.5t64.5 61.5t63.5 69.5t42.5 51.5q25 66 55.5 146.5t62 159.5t60 148.5t51.5 112.5h41q18 0 32.5 -1t26.5 -3 q-59 -150 -120.5 -309.5t-112.5 -318.5t-88 -310.5t-49 -284.5q0 -18 10 -18t26.5 19.5t34 49t35 62.5t27.5 59q-4 -35 -17.5 -79t-33 -83t-42 -66.5t-42.5 -27.5q-47 0 -66.5 33t-19.5 82q0 47 8 111.5t22.5 133t36 139t47.5 130.5q-16 -23 -39.5 -52.5t-50 -55t-56.5 -43 t-56 -17.5q-57 0 -82 37t-25 94zM357 819q35 12 69.5 53t73.5 85t84.5 82t104.5 46q-25 -59 -64 -111.5t-81 -91t-82 -61t-66 -22.5q-8 0 -21.5 4t-17.5 16z" />
<glyph unicode="&#xfe;" horiz-adv-x="700" d="M-20 -596q12 37 31.5 133t47.5 275l64 409q16 104 32.5 201.5t26.5 175.5q-16 -2 -26.5 -3t-20.5 -1q-47 0 -67 35q47 16 77.5 34.5t57.5 43.5q12 41 23.5 107.5t23.5 141.5q33 209 52.5 333t19.5 181q0 43 -13 50q18 20 47 20t40.5 -31.5t11.5 -87.5q0 -51 -7.5 -107.5 t-17.5 -119.5q-14 -72 -23.5 -123t-16.5 -100t-16.5 -104.5t-23.5 -135.5q82 -2 150.5 -18.5t115.5 -50t74 -87t27 -133.5q0 -109 -47.5 -194.5t-119 -146t-154.5 -93.5t-156 -33q-14 -76 -26.5 -167t-34 -174t-57.5 -146t-95 -84zM197 72q61 10 125.5 33.5t117 69.5t85 118 t32.5 176q0 106 -54 151.5t-165 45.5h-23.5t-23.5 -2q-4 -27 -10.5 -61t-10.5 -75l-51 -340q-12 -35 -17 -65.5t-5 -50.5z" />
<glyph unicode="&#xff;" horiz-adv-x="540" d="M2 86q0 78 39 166t88 177t96 174t64 157q23 -72 22 -131q0 -84 -34.5 -155t-75.5 -136.5t-76 -130t-35 -137.5q0 -16 8 -28.5t17 -12.5q10 0 40.5 26.5t64.5 61.5t63.5 69.5t42.5 51.5q25 66 55.5 146.5t62 159.5t60 148.5t51.5 112.5h41q18 0 32.5 -1t26.5 -3 q-59 -150 -120.5 -309.5t-112.5 -318.5t-88 -310.5t-49 -284.5q0 -18 10 -18t26.5 19.5t34 49t35 62.5t27.5 59q-4 -35 -17.5 -79t-33 -83t-42 -66.5t-42.5 -27.5q-47 0 -66.5 33t-19.5 82q0 47 8 111.5t22.5 133t36 139t47.5 130.5q-16 -23 -39.5 -52.5t-50 -55t-56.5 -43 t-56 -17.5q-57 0 -82 37t-25 94zM291 944q0 20 8.5 41t19.5 37t19 29.5t8 23.5q47 0 71 -16t24 -37q0 -18 -12.5 -37.5t-28 -40t-30.5 -41.5t-19 -39q-35 4 -47.5 28t-12.5 52zM570 936q0 25 8 45.5t18.5 37.5t18.5 30.5t8 23.5q47 0 71.5 -19.5t24.5 -37.5q0 -20 -12 -38.5 t-27.5 -37t-31 -37.5t-21.5 -39q-33 6 -45 24.5t-12 47.5z" />
<glyph unicode="&#x152;" horiz-adv-x="1972" d="M-8 512q0 141 59.5 265t154.5 216t214 145.5t237 53.5q223 0 387 -52.5t256 -166.5q16 70 67.5 111.5t114 64t125 30t103.5 7.5q176 0 258 -48t82 -112q0 -29 -22.5 -55.5t-88.5 -48.5q8 16 9 32q0 37 -19.5 70t-50.5 57.5t-70 38t-77 13.5q-37 0 -94.5 -8.5t-110.5 -28 t-91 -50t-38 -75.5q0 -51 54 -100.5t133 -87.5t170 -60.5t165 -22.5q49 0 90 23q-39 -125 -186 -125q-18 0 -42 3t-48.5 9t-48 13.5t-37.5 13.5q-78 -14 -167 -58t-163 -110q-29 -59 -59.5 -112.5t-71.5 -98.5q6 -41 44 -73.5t93 -55.5t118.5 -35t123.5 -12q80 0 139 10 t99 37t59.5 71t19.5 109q0 23 -5 42.5t-13 35.5q47 -23 72.5 -54.5t25.5 -92.5q0 -37 -19.5 -83t-68.5 -86t-133 -68t-211 -28q-47 0 -120 5.5t-143.5 22.5t-125 52t-64.5 97q-104 -86 -230 -132.5t-263 -46.5q-86 0 -165 38t-139.5 101.5t-96.5 142.5t-36 163 q0 125 37 232.5t90.5 192.5t112.5 144.5t107 89.5q-213 -92 -331 -247.5t-147 -344.5q-2 -14 -4 -25t-2 -20q0 -16 2 -28.5t4 -24.5q-12 20 -18 54t-6 71zM242 410q0 -76 21.5 -145.5t63.5 -122t102 -83t138 -30.5q119 0 226.5 43t194.5 119.5t147.5 184t83.5 236.5 q2 14 3 29.5t1 30.5q0 82 -37 165t-106.5 147.5t-169 105t-222.5 40.5q-74 0 -135 -37.5t-111.5 -98t-87.5 -138.5t-62.5 -159t-37.5 -155.5t-12 -131.5zM1348 567q61 31 120.5 53.5t112.5 45.5q-57 29 -112.5 53t-96.5 63q0 -78 -5 -125t-19 -90z" />
<glyph unicode="&#x178;" horiz-adv-x="628" d="M143 328q0 106 37 228t86 245t97.5 240.5t70.5 220.5q10 -41 16.5 -77t6.5 -71q0 -94 -33 -188.5t-71 -192.5t-70.5 -201.5t-32.5 -216.5q0 -12 2 -40.5t10 -58.5t21.5 -53.5t35.5 -23.5q20 0 57.5 42t80.5 106.5t86 141.5t71 144q59 135 110.5 290t92.5 315q49 6 69.5 7 t43.5 1q-10 -33 -35 -109t-58.5 -180t-73.5 -229t-81 -254t-80 -254t-69.5 -229.5t-51 -181.5t-24.5 -109q-6 -29 -6 -64q0 -20 2 -33.5t16 -13.5q20 0 34.5 22.5t24.5 49.5q-10 -57 -32.5 -93t-77.5 -36q-41 0 -56.5 33.5t-15.5 80.5q0 33 11.5 88.5t30 121t41 137t47 139 t47 125t40.5 94.5q-25 -31 -51.5 -64.5t-55 -63.5t-61.5 -53.5t-69 -31.5q-51 2 -86 23.5t-56.5 55t-31 79t-9.5 92.5zM491 1382q0 20 8.5 41t19.5 37t19 29.5t8 23.5q47 0 71 -16t24 -37q0 -18 -12.5 -37.5t-28 -40t-30.5 -41.5t-19 -39q-35 4 -47.5 28t-12.5 52zM770 1374 q0 25 8 45.5t18.5 37.5t18.5 30.5t8 23.5q47 0 71.5 -19.5t24.5 -37.5q0 -20 -12 -38.5t-27.5 -37t-31 -37.5t-21.5 -39q-33 6 -45 24.5t-12 47.5z" />
<glyph unicode="&#x2c6;" horiz-adv-x="595" d="M166 874q27 4 60.5 33t70.5 72t75 95t70 106l70 -13q0 -53 -1 -89t-1 -52q0 -66 19.5 -129t91.5 -92q-55 2 -92 21.5t-57.5 51t-29 75.5t-8.5 94v22h-2q-14 -25 -37.5 -62.5t-52.5 -73.5t-60.5 -61.5t-62.5 -25.5q-29 0 -53 28z" />
<glyph unicode="&#x2dc;" horiz-adv-x="700" d="M188 930q31 0 53.5 19.5t46 43t51.5 43t69 19.5q61 0 96 -18.5t53 -42t25.5 -42t17.5 -18.5q8 0 18.5 2t23.5 10t30.5 24.5t42.5 45.5q6 -10 8 -26.5t2 -37.5q0 -20 -10 -35.5t-23.5 -26.5t-28 -16.5t-20.5 -5.5q-35 0 -63.5 21.5t-50 46.5t-36 46.5t-22.5 21.5 q-23 0 -50.5 -18.5t-56 -41t-58.5 -41t-56 -18.5q-51 0 -62 45z" />
<glyph unicode="&#x2000;" horiz-adv-x="807" />
<glyph unicode="&#x2001;" horiz-adv-x="1614" />
<glyph unicode="&#x2002;" horiz-adv-x="807" />
<glyph unicode="&#x2003;" horiz-adv-x="1614" />
<glyph unicode="&#x2004;" horiz-adv-x="538" />
<glyph unicode="&#x2005;" horiz-adv-x="403" />
<glyph unicode="&#x2006;" horiz-adv-x="269" />
<glyph unicode="&#x2007;" horiz-adv-x="269" />
<glyph unicode="&#x2008;" horiz-adv-x="201" />
<glyph unicode="&#x2009;" horiz-adv-x="322" />
<glyph unicode="&#x200a;" horiz-adv-x="89" />
<glyph unicode="&#x2010;" horiz-adv-x="671" d="M135 555q90 0 160 14.5t133 14.5q33 0 70 -1t70.5 -2t60.5 -5.5t37 -10.5q-92 -41 -186.5 -59.5t-190.5 -18.5q-51 0 -94 12.5t-60 55.5z" />
<glyph unicode="&#x2011;" horiz-adv-x="671" d="M135 555q90 0 160 14.5t133 14.5q33 0 70 -1t70.5 -2t60.5 -5.5t37 -10.5q-92 -41 -186.5 -59.5t-190.5 -18.5q-51 0 -94 12.5t-60 55.5z" />
<glyph unicode="&#x2012;" horiz-adv-x="671" d="M135 555q90 0 160 14.5t133 14.5q33 0 70 -1t70.5 -2t60.5 -5.5t37 -10.5q-92 -41 -186.5 -59.5t-190.5 -18.5q-51 0 -94 12.5t-60 55.5z" />
<glyph unicode="&#x2013;" horiz-adv-x="2150" d="M135 600q29 -12 91.5 -19.5t133.5 -7.5h277q102 0 224 2.5t243 3.5t229.5 3t182.5 2q240 0 383 -8.5t200 -43.5q-80 -4 -221 -10t-308 -11t-341 -10t-318.5 -10.5t-242 -7.5t-111.5 -2q-119 0 -200 7.5t-130 22.5t-70.5 37.5t-21.5 51.5z" />
<glyph unicode="&#x2014;" horiz-adv-x="1347" d="M133 592v8q18 -12 55 -19.5t82 -7.5h172q59 0 135 2.5t152 3.5t143.5 3t110.5 2q147 0 236.5 -8.5t121.5 -43.5q-49 -4 -137 -10t-191.5 -11t-211 -10t-197.5 -10.5t-149.5 -7.5t-67.5 -2q-143 0 -198.5 25.5t-55.5 85.5z" />
<glyph unicode="&#x2018;" horiz-adv-x="253" d="M219 1092q0 27 3 64.5t12.5 77.5t25.5 77t43 61q0 -20 7 -33.5t14.5 -27t14.5 -27.5t7 -39q0 -16 -7 -39.5t-14.5 -51.5t-14.5 -58.5t-7 -61.5q0 -23 11 -48t40 -62q-4 -6 -20 -6q-51 0 -83 37.5t-32 136.5z" />
<glyph unicode="&#x2019;" horiz-adv-x="241" d="M139 920q31 57 42.5 101t22.5 90t30.5 102.5t68.5 140.5q23 -14 41 -39t18 -58q0 -29 -21.5 -79t-55 -102t-72.5 -96t-74 -60z" />
<glyph unicode="&#x201a;" horiz-adv-x="241" d="M-33 -178q29 55 40 99t21.5 91t32 104.5t70.5 139.5q23 -16 40 -38.5t17 -57.5q0 -29 -21.5 -79t-53 -102.5t-70.5 -96.5t-76 -60z" />
<glyph unicode="&#x201c;" horiz-adv-x="444" d="M219 1092q0 27 3 64.5t12.5 77.5t25.5 77t43 61q0 -20 7 -33.5t14.5 -27t14.5 -27.5t7 -39q0 -16 -7 -39.5t-14.5 -51.5t-14.5 -58.5t-7 -61.5q0 -23 11 -48t40 -62q-4 -6 -20 -6q-51 0 -83 37.5t-32 136.5zM387 1141q0 10 2 36.5t8 58.5t20.5 61.5t39.5 48.5 q-4 -4 -4 -17q0 -18 7 -29.5t14 -22.5t14.5 -24.5t7.5 -33.5q0 -37 -7.5 -77t-7.5 -81q0 -37 6.5 -72t26.5 -59h-12q-27 0 -47.5 18.5t-36 48t-23.5 67.5t-8 77z" />
<glyph unicode="&#x201d;" horiz-adv-x="423" d="M139 920q31 57 42.5 101t22.5 90t31.5 102.5t67.5 140.5q23 -14 41 -39t18 -58q0 -27 -21.5 -77t-54 -102t-71.5 -97t-76 -61zM281 913q33 57 49 100.5t31.5 86.5t39 96t70.5 133q31 -12 46 -28.5t15 -45.5q0 -33 -20 -83t-55 -100t-81 -94.5t-95 -64.5z" />
<glyph unicode="&#x201e;" horiz-adv-x="423" d="M-29 -158q25 55 36 100.5t23.5 93.5t34 105.5t68.5 134.5q23 -16 41.5 -37.5t18.5 -56.5q0 -25 -20.5 -75t-53.5 -104t-72 -99.5t-76 -61.5zM106 -162q37 57 54.5 98t33 83t39 94.5t70.5 136.5q59 -23 59 -74q0 -33 -21.5 -83t-57 -100t-82 -93.5t-95.5 -61.5z" />
<glyph unicode="&#x2022;" horiz-adv-x="610" d="M238 532q0 37 15 81t46 81t76 62.5t104 25.5q2 -10 21.5 -19t40 -25.5t38 -43t17.5 -69.5q0 -35 -13.5 -74t-39 -72t-62.5 -54.5t-84 -21.5q-160 10 -159 129z" />
<glyph unicode="&#x2026;" horiz-adv-x="2342" d="M328 25q0 37 10 74.5t23.5 71.5t25.5 62.5t16 47.5q43 0 66 -31t23 -64q0 -35 -14.5 -68.5t-33 -66.5t-37 -66.5t-26.5 -68.5q-53 25 -53 109zM1141 25q0 37 10 75.5t22.5 73.5t24.5 62.5t16 44.5q45 0 69 -31t24 -64q0 -35 -15.5 -68.5t-35 -66.5t-38 -66.5t-24.5 -68.5 q-53 25 -53 109zM1923 25q0 39 10.5 76.5t22.5 71.5t24.5 61.5t18.5 46.5q41 0 64.5 -31t23.5 -64q0 -37 -14.5 -71.5t-33 -66.5t-37 -64.5t-26.5 -67.5q-53 25 -53 109z" />
<glyph unicode="&#x202f;" horiz-adv-x="322" />
<glyph unicode="&#x2039;" horiz-adv-x="485" d="M117 543q12 33 60 65.5t107.5 64.5t117 61.5t85.5 56.5l-2 -19q-10 -51 -54 -90t-94 -73t-95 -67.5t-54 -72.5q31 -53 83.5 -108.5t144.5 -112.5q-55 8 -109.5 36.5t-96.5 68.5t-67.5 89.5t-25.5 100.5z" />
<glyph unicode="&#x203a;" horiz-adv-x="485" d="M86 248l4 18q6 49 49 89t93.5 74t95.5 67.5t55 70.5q-41 59 -91 115.5t-136 108.5q55 -8 109 -36t96 -68t69 -90t27 -101q-12 -33 -61.5 -66t-110 -64.5t-116.5 -61.5t-83 -56z" />
<glyph unicode="&#x205f;" horiz-adv-x="403" />
<glyph unicode="&#x20ac;" horiz-adv-x="1157" d="M27 475q35 0 68.5 1t62.5 3q6 35 14 71t21 71q-53 6 -81 20t-42 43q41 0 78.5 2t72.5 4l8 19q49 100 123 188t166 152.5t198.5 101.5t221.5 37q37 0 71.5 -18.5t61.5 -49t43 -68.5t16 -77q0 -45 -14 -64q-10 27 -23.5 57.5t-32 56.5t-44 43t-58.5 17q-80 0 -162.5 -28.5 t-160.5 -78.5t-148.5 -120t-128.5 -149q55 6 109 6h94t92 -2t77 -6.5t48 -10.5q-115 -35 -234.5 -54t-234.5 -24q-16 -29 -27.5 -62.5t-15.5 -61.5q80 12 156 12h96t91 -2t75 -6t49 -11q-117 -35 -237.5 -54t-239.5 -23v-17q0 -72 28.5 -130t73.5 -100t100.5 -65.5 t110.5 -23.5q104 0 202.5 40t184.5 100t157 129t120 126q6 0 6 -25q0 -31 -26.5 -68.5t-65.5 -75.5t-83 -72.5t-77 -59.5q-59 -43 -122.5 -80t-125 -62.5t-119 -40t-106.5 -14.5q-80 0 -145.5 33t-113.5 91.5t-74.5 136t-26.5 167.5v15q-53 4 -83 16t-44 45z" />
<glyph unicode="&#x2122;" horiz-adv-x="1255" d="M193 1114q0 8 1 16.5t3 20.5q23 -14 35 -19.5t53 -5.5q18 0 61 4.5t107 10.5q8 8 17 28.5t15 30.5q12 -10 16.5 -24.5t8.5 -34.5q16 2 32.5 2h32.5q74 0 118 -2t59 -8q2 14 5 21t5 11h22q10 0 20.5 -2t20.5 -4l23 -8q-14 -70 -24.5 -136.5t-10.5 -135.5q0 -47 6 -88 t27 -82q57 86 90 172t43 178q59 0 111 -15q-12 -37 -29 -81.5t-32 -100t-25.5 -120t-10.5 -140.5q0 -37 4 -75t15.5 -68.5t32 -52t51.5 -27.5q29 2 77 28.5t89 61.5q-43 -70 -86 -102.5t-99 -38.5q-90 0 -131 52t-41 179q0 29 3 57.5t3 63.5q-14 -16 -27.5 -30.5 t-25.5 -18.5q-53 4 -81.5 46t-41.5 93q-16 -63 -38.5 -133t-49 -132.5t-59.5 -111.5t-72 -71q18 39 46 126t58.5 194.5t61.5 222t55 212.5q-14 0 -30.5 1t-51.5 1q-29 0 -60.5 -1t-96.5 -1q-61 -174 -105.5 -316.5t-44.5 -250.5q0 -39 12 -39q25 0 46 35q2 -2 2 -14 q-6 -16 -13.5 -40t-46.5 -24q-43 0 -57.5 39t-14.5 92q0 127 44.5 258t95.5 250q-29 0 -65 -5t-70 -5q-51 0 -69.5 12t-18.5 45z" />
</font>
</defs>
</svg>
